<mxfile host="app.diagrams.net" agent="Mozilla/5.0 (Windows NT 10.0; Win64; x64) AppleWebKit/537.36 (KHTML, like Gecko) Chrome/140.0.0.0 Safari/537.36" version="28.2.5">
  <diagram name="Page-1" id="c81q3fejT2Z9lAwrouMy">
    <mxGraphModel dx="1426" dy="743" grid="1" gridSize="10" guides="1" tooltips="1" connect="1" arrows="1" fold="1" page="1" pageScale="1" pageWidth="1169" pageHeight="827" math="0" shadow="0">
      <root>
        <mxCell id="0" />
        <mxCell id="1" parent="0" />
        <mxCell id="gHBn23wMbkpfhwxa4SyB-48" value="" style="rounded=0;whiteSpace=wrap;html=1;dashed=1;dashPattern=12 12;" parent="1" vertex="1">
          <mxGeometry y="110" width="1160" height="540" as="geometry" />
        </mxCell>
        <mxCell id="gHBn23wMbkpfhwxa4SyB-7" value="" style="rounded=0;whiteSpace=wrap;html=1;" parent="1" vertex="1">
          <mxGeometry x="12.03" y="150" width="107.97" height="300" as="geometry" />
        </mxCell>
        <mxCell id="gHBn23wMbkpfhwxa4SyB-3" value="" style="shape=image;verticalLabelPosition=bottom;labelBackgroundColor=default;verticalAlign=top;aspect=fixed;imageAspect=0;image=data:image/png,iVBORw0KGgoAAAANSUhEUgAAAK4AAACUCAIAAACFj4VyAAARDElEQVR4Ae2d0UsqTxvHf/+st4IgdOeVV3oliwQi6MUuRki4Ep2ik3gwMII0opLoSCaSSC510Ym62pf4xrzTM7Pr6u5arnOQw7jNzo7P85lnnpl5ZvY/28c/yxpNJgP1cZLAcHB90zsN6jMcXPvQ1exb/5udxTmHQsEJAlwPFoWb3mmoNCgUQrRqgaMQKg0KhRVDITwaFAqrh0JINCgUVhKFMGhQKKwqCoHToFBYYRSCpUGhsNooBEiDQmHlUQiKhpVEYWoNMYfz8PDXfZJnCX9FHabWEB/+iWHMKzjNXfqffVoxFKbWcHTf7xyf7elHetYsp2tGpt45PuMVsLR05/gMddCz5u/qn87x2ei+zzBFNR4e/i7t8/Ly7DwzPPsvq4TC1Bq2D0/0rJlPVrSEkU9WkNjc2LrqXBAdhArE1Bp2js9INfLJip41O8dny6wJ/zPXBQXLGjXNVi6u55OVzY0t/pOL63v6ES+UJaS3tV0tYfDV2NzYAp3tw5NvWZ2xrNHstu+cY2WsQtNsiaKHJrSEYRYPlqB+9ojRfV+KAqvPt9AQfRQsa3TVuUCbI62QFz3T0xISU2sIEyWtTz5ZKaaqt9e9JdSEf8RaoGAWD0STkIvr2VgpF9ebZmv5Q4mHh79m8SAbK6EOhAn0WUt2GqKPwui+n4vrvKzhLjTN1lXnQnTa+YYSanpqDR8e/l51Ln5X/8BL4CuZi+tL9hgijgJ8dYKCljAwZFiyrKVgYTqhc3xG7FY2VrrqXCyzhtFH4Xf1D49CPlnZ1naXbHulEJCLGOUyw5CL6+3Dk2XWM/oo7OlHfIPLxfXf1T/LFDFRudNXsZ5Ns7XMeq4jCksWsZPuyXWFQojLOZPJYGoNv13EROVOX7+9nsoqhMuik+LF6wqFcDWhrILInNMVZRUWZ1G6suwk6JnXlVVYXBMzhRuerwDHvnN81j48uepc4EFe6uOSR6Gweihg2qqYqmKKEEsG/pe5FQorhsLUGl51LrKxEr/YnU9WcnH99rrnZxpAobBiKEwmAyNT5znA/KCWMLa1XRf7P/NPCoVVQmFqDW+ve8VUlU0Ps0Q+WSmna6P7/kyVO2VQKHwDCgtPPKN3cEHBTx+hUFgxFEb3fScUjEzdT9yDQiF0FMziAd+1I1Zl4cVfzFnxS53oI1Dswm6jZY3ICqqWMBa2Xk59kPv16E8xldM1HgUtYfiPKjYydRYzjeGD/4VvEn2JxfSFkXXXuvSvUUYBXTvPAVowJoWk4vB+sWm2trVdPWtua7v+AwtYODzzQzc3thDhuLCl8f5bkDPKKCCwmEcBew0CCWKDhjBkCERbt9c9YsDyycoyQ7GjiQJ0I0a3ogOet7ksLT9xazY3thCYL+6hC6NK0UEBUaOj+z62wrGdT99ocudSGLozvrZI5+J6MVXtHJ/dXvdG9/2Hh7+BGCGxbtFBoXN8tq3tltO1zY0t0cPHxZ8Zv8S04jQ8gWe6ubFlZOpm8SCkTZ5RQMGyRvwWRLFhgYNyurZMh5wp2HsCu3vL6RofjMl+TtibPKOAwmQy0LOmVHyQIwZmgXiL3vW6cM7RfZ9EPzMakGAOxMKPkN4YERSkS0RMglrC2NOPfrhJ4NWzpx/xAx/2QxgK/qcx+MchHREUyFQdkR02TC558k6UtZcrljVy5yA8pyciKIzu+2bxIBfXc3Ed84AiDbm47j/AxIs6F86DEyCkPi8GRPh1IR0BEBEUEFI2uu9fdS7ahydm8UC6dbqYqv5kj2F03xf7BS1hFFNVs3iA4DnUP4zxZHRQAA0s9LRzfCY6EPlk5ceOJ6fW8Hf1D3F+tYRhZOowZvhp4Xk8kUKBt8wstoBvZ4g18rOUTB4R1DwghpFk4JBPVoxM3U8MBF/bmenIogAj0T48Ie0MJy/NlMvMDA8PfzvHZzhOa2ZmLxk6x2eif+N/EdXLo5En4ihMJgMSaYJFau8CkubEQhe81FxcD2TRiFCLlTPp00O6GGUUYBjIqUfYrO6nxxXPbAhkbELGw5gLCcM9dCIp+igEHigW0ua7wOvppHKn6+uIgs+5pqk1JMvfgZzZoFAIPbYxcBFLrYJPvCaTQeD1dGr9TtfX0Sr4nFpQKEjP8fzpR3hK1aZQkBoGZRXm7qGkeKkOQlmFj+Oildto27ZCQaHw6TkoFD5QCGQnkxpBzN1VS10ep4vSft2/26jmFcRBxJpaBXJuezZW8r9BSlmF1bMKk8kApyzgRSO5uO7zZAWYNIXCN6Dgf+CHd0zgBVR7+tHtdc/P+pZCwfYvPicXgV0XQ4OCWvHDmmGAeyZF/8OnT8OE4DER/Smm9uEJCRzNJyvhRQh6lDvLhjio2+seH221ubGVjZWWGbcymQwijoJljW6vewQFFjAYYJtmqvWeYHblqnOBo//4KKZsrDS67y/BcLIKRxwF/E6yWZ0FQxuZ+ra2G9IWRCZip0T78GRb20UsLjEJCGFaZtxK9K0CApk6x2fEMKD9YXNBMVVd8vtY2MEaP2rLxlpYhclkQJwy3hT/nPdMolaBzF06mSKX62uBAkLLt7VdqW3AmMJFRoH/yeU9kwia/ZZ9O2uBAroJ9j4/Eg7v83C1BUARz2PDQkY2Vvpd/RPUNo15K7YuKEAuOI7VLB7wEfEhbUGcqQns5kOnUE7X9vSjbzEGrJ7rhQLMA/qL2+veVecCe4+W7KvDXQeXqEN4x+owTc9MrB0KkIhljdjuypkyCi8Dq0Z4j/Be8pqi4F1A65NToRDuetgKkaRQUCh8SkChoFBQKEwUBF8koKzCF3GsUNceeFUVCgqFTwkoFBQKCgXlK3yVgLIKyiooq/C1TQTuha1cgcoqKKugrIKyCl8loKyCsgrKKnxtEyvXtQdeYWUVlFVQVkFZha8SUFZBWYUfYBUQUcgCy1TiGyWAqE/xAA3vV3wdtYF3Qqr/f44EvCtezOkLBbN4YGTqetZUn2+XAN5gKSrY+xVfKJD3veM9iur/b5EAdpd7V7yY0y8KZAcxv5VRpZcpAezdFhXs/YpC4eOwvgh88HIi74oXcyoUosABDpwwMnVRwd6vKBQUCp+0KBQUCgqFSLgIzMtRvkJE2jTT6MIJhYJC4VMCEUQBL/DWEgY+c7USfm5nrhudMqNAp7/+qOtRQ6GcrjV3Tvf1Fj5mocGfriIVPbSFM5rK6ZqRqRuZejldK6aqgGkudbL3yW9ubBVTVZSGMxnB6FxTalrCYG81xXnS0p/AX8wnK/wt5KghPidJRwoFLWGYhQY/Dp6On8QTG3kR5OJ6MVVt7pyOB49vr+/8vbZtv72+9y+HzZ3TcrrG3+WUxtytU2koysjUPSo1F9dvunfjwSP7tH913UnKJytmocHyjweP562eU23J9YijMB48uqAAdMaDR0KA+PWme0cER75CQ+1f3Zfnf+Lt/JXp+Kn9q8vOECXl8F+zsRKh8+31Hed98tn49Mf5Yjun5HEz7SJKWF8UtISxr7eIrHkh8un2r66LpcWfvCDFygRb7k08GyuJYN1077KxEq9+Pi2iMB488hlc0muKgsvPfnt9Zx9objp+kp72CLHmk5VyujYdPzE1swQrRwrcdPwknuvMq0qKgm3betZ04lKh8DkcEn0Fpw4iF9fFRjwePDZ3Ts1CA76eWWict3rT8dO+3nISPTQnFjUdP523emahUU7XyukaK4pRgsR48OgCmRMK48GjkzlRKMyHgpYw9KxJtAKLzZx8NhBwcTXwTsHzVo8U1b8cltM1sSgjU+9fDknm5s6pEw1OKNi23dw5ldKpUJgPhVxcJ/obDx6djt12an/w+4qpKlFt/3Lo5BJKXYqX539OtLmg4DQyUijMh4KWMEjr3NdbTk2T77xJWkQKepW2V9yrJYxiqkpcByef1AUF27aldykU/KKAuDqiafevUm/xvEXfQSIWgtkC3paMB4/S8Z47Cm+v76L5USj4RcEsNOa1CtKxqPuIAFhIBy/b2q7YE7mjYNv2eatHBpYKhflQEA07fHJRGWKbZlekhRDFsMxiggw+mzun4tNFFMQpUbPQ4PsjhcJ8KEjb5Xnr4y1evFhF/ZErN9073s576R1QQj5ZIffedO9EsySigClt/qH9yyFvihQK86GAQSDxHG3bRp+djZXEBkogwFITmU7w7ntqCUOcHvaCwr7eEofB/LSHQmFuFKBsYqWx/nTe6pXTNaexJWvW4gyjWWh4YQivANnXW3zjfnn+5wWF5s5pNlYiEE/HT+y5CoW5UYDvXU7XSMtm6rnp3ulZ02l5Gl0MWSBAftF+iFfgcrJnAUGxb5J2EFj8FIejIEmhsAgKaJ3ldI1MNzENvTz/O2/1ELVA1AkUiD7c1wz5EsQJctu2PVoFmCtS57fXdxYSQboetRz1qVCnNQimGLiKZqEhdhYo4u31HbPI7BZYFCNT94MC6SDmRcHI1IlNgtOqrMKCVoFpV0sY2VjJLDSIfJmFIGM2zC+RzNK5AfYIPiF2EN59BfQjosrfXt/NQiMbKymr8EGDaHhnWgVeQzDRzZ1T0UJMx0+8/ZdONRJc+JJJ2j8KGAQRFvuXQ7Fk1UF47SCIkhAYWE7XyLhfnPMvpqrE5XRZYyRP0RJG+1eXmRzbtqUhEU5uI0oTubdt2yw0SNejUFgQBUgZQBDX7OX5H69R6TSRx9lG8V7p9JQ7CnBZxIGlQiGADoJoupiqkp6CXzQSW7a0v+fL5NPEtu/rLTY3wLLNRAGGgXivxFYpq+DLKkAZWsIg3QQfWCBVg0uoGVOwaNjfXt+lcxIzUYB7RCrJ9zuYQmWPdk9I5+NJae5ff9D2WVHKc7mNRFLighOPAuwzMRs3rjGoKD8bK5GGi2gX8vTNjS0vKOSTFTEAgldYNK3CzOWiXFwn7hiWFUTbC0WK0idXSE/MdxDw4cnI7e31nV8RIKXhFtKXIzpNnF/yiIK0GhFHAeYLgQXSLSXw9UgzdWpwWE+SlgP9If6R74an4yepakmvj2GnVLW5uL6t7ZL8Lq3Wi1VAlfLJCvnhjAaX8snPWZkOAl43266ESaFsrJSL69lYCa672GvedO/EuX1sIcLWlGKqikKABQwPSiPCle5MEsfxtm2/PP/DbA8iXbFtDZM/hAMM/8QaQkneURCXOiOLgji5Bon3L4c33bv+5ZD0vhAEJuBEQZN+BGsN+3rLLDT0rGkWGiJSLj6HljDIsBNPB2oY6J+3eiIEmKtwGX96RwHokO4M1YiaVdASBsPce0IaDwIvQYqOU8lOSDHjvLmxJaXBqUBcR7AMsdL817lQkI5oojmC8LIdkRe9SxD65saWtAHxt7O0OweMhnyyQjxWVoI00dw5nem6zoUC/EepPePxckmvjK+AsHHpAgGR9dvru5f9qe1fXd4rJIWQMBYXCTIaEEkwEzJsmJEOashTRBSkAe/sLpRJfohTODW7iyVWBgXUGN4iDlHAhvPp+Amf8eDxpnuHaTupA89+MxLw5rCFDd7GePA4HT+hnObOKTxKLzpjJWMUU0xV27+6KJPVDTvqi6mqy7CFlcNqCE+ofzlEaTMDpeBUjQePuKV/OYz4pnpInMiUnUpBBOr+ld2FkBCMIEDJXBDwT2HVYx4rjuwgFeZvcUqzs2PYoR9OOdl1/AT+RvYn98SKWQX3H6P+6kcCCoXPsBc/QozGvQoFhcKnBBQKCoX/oyBusiDjEfevvlYm9/QjL95+NCzwD/8Vubi+px+5K9v9r75QuL3+2Hq8sK/+w4W7QtXDqOf2mh4b4q578ldfKGAeHss2KyS4iFUVI+q5ZksJBPjqFwXbtvuXw21tN2LyXaGfs63tzpwkleqeXPwf5kDMok1/yR4AAAAASUVORK5CYII=;" parent="1" vertex="1">
          <mxGeometry x="12.03" y="170" width="94.05" height="80" as="geometry" />
        </mxCell>
        <mxCell id="gHBn23wMbkpfhwxa4SyB-4" value="" style="shape=image;verticalLabelPosition=bottom;labelBackgroundColor=default;verticalAlign=top;aspect=fixed;imageAspect=0;image=data:image/png,iVBORw0KGgoAAAANSUhEUgAAAJQAAACUCAIAAAD6XpeDAAAf1ElEQVR4Ae1dvU/jyhb3H5A2NYU7miCtlC4NlfVaXCEhJKIVUiqqSFSmYRECEdJAmRUUpENu0BaJ6CKEiOicElylsBARyKJIIr9kz97D4Yw9/ojjuy96EXfv2B7bM/Obc+Z8zbHizfCzbbvVapXLZSWlX6FQMAyj1WpZluU4jrxpjuO0Wq1KpZLSy0Mek8vlCoWCpmm6rpfL5crXX7lc1nVd07RCoRDyoN+Xc7lcs9m0bVveR/lVRX456Gq32zUMI2JDo3RGrKNpWrVabTQaYg9d163VapqmiXele0bX9VqtZppmp9OxLMu2bcdxXNcdjsZsZIajseu6juPYtt3tdjudjmmaBwcH8iEqFAq1Wm0wGLCnRTyMB95wNO50OqGjRmdo2e+naVqxWMzn89HH2jAMGL5arSa5q1gs6rpeqVQMw6jVas1ms9Vqdbtd0zSbzWbt969arQKhlEqlXC5Hn1YqlSqViu+MiTigYjXXdYFDFItF+i5artVqoZxGfHIM8Gzbrlar9JW0rKqqYRg4SWGGiu/zPG84GuMMbbVaMENDJwS8S1VV+lIsq6raaDQ6nY5t2yJZ+DbDdV2gklardXBwYBgG3O5bOZWTtm2bphnE50ulUqvVivWiqOA1m00cKSzkcjlN01Kcp7CMVatVXdflDAfaUCqVqtWqyFdjDUHcysPReDgav7kf9A9ORnyU4zhBHFXX9ehcNBy84WjsS3CVSqXT6biuG7HFsaoNR2OQhmq1mi+KuVyu0WgkYDWxmgF8wu6/PFjPlzd39at2/aq9e2bunpnbh83tw+b63gUU4OSPn78ub+6ubx8frOc390P+Ltu2G40GUgIWisVip9OR3wtXQ8CzbVvXdXwuFDRNsywr9Oni9ISpGmuSwvBZlgUSSu73zzAM+aSBF9n9F/jrPfV7T30oO6/vzuv7m/sRhbva/Zftw+by1snSxpG6eQx/y1snQX+0wsr309Wd890zs33fc17fg17nOI4vbTSbzdARloHnOE6pVKLI5fN50zSD2uF5Xu+p377vwSSF6bm+d4F/OEl//PxVv2pf3ty173u9p37oJIVugLg0EXSDetV76l/fPtav2tuHzdWd86WNI2Vtn/2pm8erO+frexe7Z2b9qn19+9h76gc9EM4/WM/bh01lbX/l++m37Xr0v5Xvp+rmsbK2v7x1sntmXt8+BvW01WqJ4ky1WpU3LBA827aZEKHruu/q8uZ+9J76P37+Wt05/7ZdX946oRNweetk5fsp/OGExVmsbh7DWKzvXfz4+QsmaVAPg3rivL5f3tyt7pzDYKmbx/BS31GmLYGa37brQCISXjccjdv3vdWdc2yw78MlJ6Hvqzvn9au28/ou9sV1XVGWqVarEh4TCB7jluVyWSS44Wh8ffu4vnehrO0vbRzBuEg64HsJpjNADs9BIO3+i9hJeqb31K9ftZc2jhK//dt2HZoNJPJtu16/aj9Yz/QtWH5zP+B1cUmQdnxp42h566R+1fbtnSgY+o48NMkfvIODA8otq9WqiBzOxOWtE9q42csA5PLWCfC3y5s7HD4sDEfjy5s7qDnLULLWAu0ub52s712073tirz3Pe7CeZyFBeCNQsG/XWq0W04iC6M8HPNM0KXK6ruOQQcF5fd89MxOsAWykQg9Xvp9OJAWxh72nPixpKcLGGrPy/VRZ2wcIWfc9z3tzP3bPTCB3dmOsw6WNo/W9C5EELcti+E3MDmIzOHjD0ZgaPjRNY+I4DlysViarvLRxVL9qs0a373uwsiZ7Zqy7gLJ3z0zfVWp2Fvptuw4k2L7vsW52u12mIzUaDVaHg8fEViah9J76wLJjDUGyyksbR9uHXFy+vn3MgOJZg0G8ur59FLlo+74nEY7Yc4IOgcrrV232fMuyKCEpisL0hy/gWZZFbX21Wo1CbfdfVnfOU1/hfLsEShKb7xMlRN08nh+r9G0JnAQGvn3YFCXhB+t5dvy+bdeXNo5+/PzF8Gu1WnQJUxSFMsIv4FHnjq7rVEh9cz8yY1YwUkzka9/3sqc5BiewONYw0G5BamX14x4Cs2H4MfmzXC4jRX2CZ9s2BZkZSYG/x21NsvpLG0e7ZyY20fM8IPp/heZYF4DIrm8fafNABJ1dfgmiP6b/oZniEzy62pVKJdq4B+t5aeOIdWNOh8AwKXcajsbrexeJteN5tNNXknqwnlN5F/BPOv6O41D7C8r/f8BzHIfaUxjZZbbUgfTFdIPr28fMpk7E0Q/SYUCeivgQSbWljSMmfzLNG6D9Ax7V7Zh60L7vZTZ2QHZ00vWe+skMN5KhSeuSSCKe513e3KUyXOrmMTW6DgYDuqiZ5nRZ+QMeFVWoPXQ4GoNZPa0Oy5+jrO2z5WT3zPyrGCZrv2hDgBGbvc3izKBq+8R7/AkeRZW6e3pP/cyk85Xvp+t7F3S1s/svyto+G6+/7XBp44hNuDf3I5WFRlnbp0yIxn+Uy2XXdaeUZ1kWBY/ekBYTiDLi6uYxs6fsnpnZqJVRmhdUB8yhTH+YOG9TIT7KOanOB0vbFDwGKQUvs/UGXkStfL2nftB4/W3nQYehjU9l8VM3jylNd7tdpLF8Pj8lOc/zqJIAKyHg57y+Z8a1lrdOmDHs8uZu9smbGczQfqpfg4YzC+dgrIhZq6fgDQYD6rpDBdDzvCzlTGVtnwrHw9E4M6JPC2BR+XuwnmfpxfLWyY+fv5AR2rZNTdVTQrRtG8WYQqFALdH1q/YsEyfWoCxvnVBLJhjDYj3hb6isbh6zxQ88R8naJoJHVfVOp6NQaYXGnQ1H48zkBQjxoDwns1cnG9agu8CLSwXmN/cjMfGJ4NGQoil40//++VGP35v7sb53kY05ka3Mzus7BKQEjdHffF7U/BJL7DCnKdvk4FHbClXPM7MFw8SkMjG4fv5mhELbRiXPxHNRpDzONmncp2EYiHPvqZ+Kmyq0nxC8he/1PG8SFfg/JGeKHWRSYmK1AeKUcGR8BBbDMP7hmgp1tIPTXGxZ6mcYc5hdwk69hQkeqG4eU+J7cz8SUMLEg09t9D6qQpCSl5kbiJmX3tyPzJTLBKhEvEXdPGYuyQTshIkCVElXlN+SJgWPeoIyA09Z26cL3oP1vADgAcZU+QFvXywBkDmGqGipqurUeU79CXR/QzYaOhgGaScTy2YRaSKzauLKF9c/s7RxRHkvFS3/2DapeeVfAY95Ev5HNTyQmVe+n9KQ/tWdc6rzxZ2XSxtH9HZqgoYII+XfBY+ZBEFaCeItsFsHgtvh38zcVUH0Ci51DO7ePmzCXi/cZENXhFi2Yngyipqe51EeCUrdvwyeunlMzXeiSoR7GCB+GfYWXd8+Xt8+Xt7cwe4W5T9GKs7rIIR8zy9vnShr+5O498ubuwfr2e6/wL4yHG7YyUbNRvKpyd4Cxhp82kTfQCumoiig1H1Z87IXWJg0DOHYQHmAx8STfnlzR1k/7Q+Undf3+lUbo4/ZKKR+CDSxfdikVCW2yvfMZPdlRBWWmbmnrlfyg+hbhUqbNCC399TPQOpb3jqhLisIYIW9Qpc3d7FGp/fUX9+7yIAElbX9y5s7SlK+OPmejK4wMFGTBWaC82dKgIgoDZHORklf3jqhZvjr28fVnXPfwHLfsRBPzjvmZXnrhLquWAOAVUo2AEenvOWtEzp3qaipKArEQytUhqHmMbv/kjrDYQ8UrZp2/4WqDWxo4PDN/YANylQSw5pgT5+TJ0s0OsN77f4LLMC4Vx0lF7YDIeLcEqP9KY1N1jx4r0IjI6hXwXl9z8arIF/PYD/VJA7q8uZufe8CNsahOL6+dyHuFZ5T2BJIEIxbIq+GvcuwIwD24oCo9W27jhMrupeN+ciGozEVNT+DbqneDjFJ8LLMgv4kpGb3X+pXbdx5C+ZBcae5uMUt4gRnnEB+yIxVnudBiC3E6MHmesgbgVsDWBhqdLMtk+Ns26b+BDRBf3HGsnDb6Axa3m35VV/w7P7L7pmJ+1TpE0CQsfsvSI5LG0erO+c4wWHnQAJDMH0LK4t8DLwubGXCeQ/+SBaYMxyNI/op1c1jurJSAlMUBUNVvoRBqKpKgzazCQFiS5fz+v7j56/J6iIq4MyEjWhBPDw1wKfuSRZhgPiG9b0LbAYW0CzMtFjwqrNp4XvIbCvUbVcsFjFUhQcgZW8ho+DJt3sHged5HuSzoY9Kl20wQyUaE0QRhqmqdEpFtLAwZut5HrWC0fwCU7mF7iCiqp7z+p6B2kQFFqA538mIG+BENosSJpWt092ewuYNhQE21V3fPrbvexCyhbIuC4mLqDqLEwJ1OUVRINAdqHwKHt2BQiMhPM/LGLxQ0y2IfBRvFKyWNo6oypiuzMlUZgYDSr/MeqKs7dOmRnTUsC0mzI1HWeMUPKoATpL3Ie/2PG997wLnURBBJD4PZrC45ALm6QlXBNUKrWLMnjTdh/EfI3Hb2I1y8FhlOBS9XSiF+tbHu9b3Lih3oaSFGt4n5THTC1Vl5HxM0ogol0BJp+QSndepm8dMqBEtuchpozRGXoexzShkDUsXXYajeLvEoBC64LFNr//o6oStUoEzIqXLey65KprHZmHUSxtHlG2kqO0xudF5fQ/yW2FnmbcL2FjoXUxJYAkhqETyucWLpoygNeYdQ8ZMhTMG/Slr+3SmR2FTONbyAiMIFJEkd4lWkigWK6Yk0BUN4lbo7PxDeZSxZmkkSx08uoKmyDZg7yBbUJh4woAUiTVUQ2fapOd5dK85y8/xSXkUYVopujmONT3iYbrgMbECleWIjZFXW905p6LjxBscCh7dbghBzPJXsI3Bw9GYrGZ/HLA+lEd3LLDtJpCfTf7WxFcZi5+RbTKTYLr72dnMCH040+tDwRMtcJSiRJ75SXm2bbM4eER4xgGV45ou5TFOFTpe8raxq6IqImeDccFjyyoznjAlAdD5s+axqmi3Bo/MLBIgGwJ2mC54rP/perWAMuiyJzcpsJmEFjU2AnjImBCLj6aGFaSrT/CozEJzJHmel6LChG2FAgMvup7HnoNPo3HK6YL3bbvOLCZybY9Jm5BlIEhVAI2ezgzGM9GTgMh9sk3P85jfgVZK18hLx33l+2kyJZ0+BMvieEWRzvH20ALjnGiZ870RREdUXeShY+zJopzpm6//k/JYmhaaXS5FmZv2UwyDmJ3ytg+bOH9TdwyJCoNE5gSLD4IHro8gylvaOKJKjuM4VM705ZlfKM/zvCBV3e6/BL2VgpGsTOVv+SoS+nw22d/cj+3DZrotZ3xe4l+F91IrZZB5TLTF0CVMUaY+V8oIsfxJeSwtBHUvpD6FKQy0e9Ej4+gTsMxGYR7N9t3+EyTQLW0cRekdC7AYDAZUN5982QzRYoUv4NFgJLo/3fO8Hz9/zcm9QBnLjIvrvNc8mCVs/4fz+h40MmwDVNDqs/L9FFm953kUBTG7LcXvC3g00y2kacGqM65GSBy0wFzG8vWf3hhUZvuAU5c24b1iVrCgOcecsb6710RRhQaKwVYuRIEVvoDHcrKwhDpBzCFoKEPPMyeOZP0IfRRUYOClq6RjG0RTSJC1JYojie2hZaIKjaRlyHGBRbLseZ4nNyhg36IX2PoxHI1nVCjZYIFLJHp7otcUIxV83U+smrjpl/F5FtVAA8VE5HzAY7ohvSeIOUTvM6vJOMbsITMsEiJojWHNSHAIxEdX60nQtGinZkaWN/eDpTJmSXfYx5skogrg8oVtep7HyJYKqeka6SGfcoLgKslYK2v7dOWfUfGQvEhsPMh0bGURWQvVW9iq4XkeywVOly1KRVjm4DFtjxo5Q61z8t6KVxlXkVubxNvZGdjhiB0DpThIDmT3Jjj0JT72HFBdsElsXVDW9ql1yfM8GhZdLBapnQQfQgs+4NGtJ9TImbpvj4FH4+nYKEQ5ZE+D0Dc606M8JFYd8Y3Mdy8BDy5Rxss0BEo2FDBa9gGPGjlpfC4kgxE5e6wO08pszROXBFo5tMwWvBnpOPR1KFtRAJjOJ4KHQh9TzNmuZUWZBkNTnHzLPuCxbQ10u6zdf2FsPUong+qISwL2LeiWoPPiRJ7RWBP0InaezT82v1kHMdydKbiiYh5kzGQQ+oA3HI1pDDV7UOLxZd2GmUtj/Wdhy8zzCfr+XHkmdmd155zawJzXdyRKBi2qCizcQSQ7GsDHAKOHPuBNVgu6s4H5cBlbxz4kLlC2k1g+ZHFjQVpz4kZKbhQNLpgslFlYIM4amASViuk6xQLaKVRi2R88FoZLFYYUtzuLQbfJUsOKMnfiSSABKegS5BegvhHXdYE/Mect6J0sFiYx2fko6QgvzYhLOWe6pnqR3SVwnzJRJZstFhRLdfOYJcgGnMT8QPC1QxxkcbWj4j2t5lv2pzyW8p0GA0JKxbT0J9FjGfeLLuLXGJBr0fGdd5mFfsNHz2iKGfCki7odjWYPtYcxCAPBo8GA+XyexlCk8tEAHE3WHzBPR58czJ6ZLmPARoYWxJUMPnWPww2G1t2zLx8qZ7qd3AyNj8JCIHjMw8B0RhSoQnsVWoEpQ3Gzyi9tHNHFP92JFdp4WoGFMgxHY9qwy5s7tgS6rkudrr6RmYiTbyEQPGbhLhaL9P50ZU7Gc4AzR1EomSIFJrEUzQgUm9CyOAtxxICL0gBq0ZJJQxfwRnlBBh7b1sdkzhTzI8HKR+cpwBCKHxNVUJEKHeg5VRBnIYw+BC5Tpch1XRoxlM/n6fDKMcOrMvCmwij50fxIENsTfWUKHSzRTgivkJARiCpUQZ6Huz+05bQCEB8FCaKWIa0TDjrjaooyTWVEr0Ysh4BHjdSaptGvyKaeK4Jt5/U8D2wuQfQnqhmpx4pRYCKWld+Zyejo9576TJFgu+7y+TwdWHqvvBwCHpU5FWX6EQZ8nPP6LiGLiF2l1cCnQykJ3nV9+wiKMDN3MQHhr/pwFA3CBOLDcRO1crAeD0dj9/fPcZxut9toNMrlskZ+tVqNmc1CwHNdl8bDMFk2bt5dCpVvWd08Zjuyoc+YlHEyr9XNY0yFREckS6uKb+PxpKi80nYy9UBV1cbvX7Va1TSNLoRkyfosVqtV9POFgCfaOalY4RsOhX1IVoDMGGzZQAjb973dMxM+LUi3JUCITbqcIFn74S7R4PmnC45Dd2N9YhKnVCgUwGEUDh4Lg6ebnkEjTlFsEQPg6ZyVlGEbx/reBWwHSbFJySCELMrMUT5pP0veFweyL3VB/ggHj2Xg0XWdEl+6YototJUARi8NR2Pn9R2yOT5Yz9lkTfXFFZbn3TOz99Rn/IP52r6g8fUgn8+Xy+VGo9Htdi3LgiXwaxVlGipGhyCozBQ+KrbAtzp8uxH3JNugBtJmpVKp1WoJdCBQrZiME7dJcevD60SCowM7GAxM06zVahNz/0SGMAzj4PevVquZpmlZVpDkycLgp0ZR+tygMjOVMVtAKrlaFEHCnjQGmUyhUKhUKqZp4lod1FR6vn3fSzf3XyiW4vyj7Zm9zAIzI4Enii10EKnvOLR7vhWYxxk6SZNfM46haVq1Wo0S5ZGlCOrbizf3A3K/z46c53mMBUYFj4ktTGeYJR4XxEu6jop2Pwaeokw5PhuOHz9/bR82RZaVYhIr35kHJ0WXLGRTXd+7UDePkyXOdl7fQ4aFDYHkkFpb2AaIKBmBfHsuelJEKheRY8YkEHohObCytk+9aIk/f+bbWslJMXC9ftVW1vZBfgZolbX93TMTXEW9pz5kynZe353Xd8j9+mA9Q+rA7cOmaC9ka97UIyFBi12ybTuXy+FQshFM4GcAgZ6JZJwz4Pv+KdCEk9BCtk+AeV6ycRKxLCIQoCyCDSnTIOh9ded8ded8fe8Ccmfj91qU/xhi4mXmHleU6ffyYoAnmlPpyhdX5wPBjIZ+AE+XmxiYrASExfwbbIfAnDZ6MWBYHCbISqyOeIh0Cf5RyLdMExQj/TBR5c9XvPBylAILTGIrX/SNHcBG2Po0GAxovPc/lDb9fz6fNwyDevOhtb5jBBwMu5ONb51td5bsVWcQQh4IYLCXN3eiaRckADange3Fo7zJiKD4rihKLpejOp/neVG+LA3I0Q+ZeJ7H3Mq5XK5UKum6LlpjERWWsRQHhZmmsgGPpbWAOBo0wyKFQVpVZJ7ftuvrexe7Z+aD9cxkE+im67psf7qiKJi4MTZ49LvqiqJomoajib4ruXWKDS7cjmG+mqY1Go1Op0N5Mn0FlGkqZ4QNmI+6eUznbwZsE7ChjOTN/UDRY3XnHFoIK9z2YXMinF/e3EE2f7bk0552u10WJ6EoCt2AEhs8URpk4S3gmgnCD6Lk2CyDyaVpmmVZ7BLtDJTf3A9gSqL1BD5fRwdxumktq697MDcQtBYiWdi/YqfYGcdxcDbT5QNN0lA/CXjD0Zh+DoztXofPGsA4UpqAPW0slBFVOvo9DtYTPLT7L9e3j0F2y5XvpywQDW7MDDwmfGGzYxVs2xb5JOBXLpcZN0oCnpguqVgsMoscsDXQvQBIX18PKAaqqrJmQYeHo/Gb+4Efv/D9RgbMDyB0Xzkt9W2FbEbCIftIZSzAXNd1HKfVaum6TqkCaS6XyzHFDJ6fELzJzVRyUZTpp9wYx3tzP+ADQBBswiQUz/Ns2wYhioUJw4JxeXO3e2aCiwcnARs4mBbwXcSgiQ9pBUQeyx41yyHs+sHuD0fjbrdr2zaeYVi6rmvbdqfTAQs1dXcjYFiA1YQ9YVbwXNdl0+Tg4EBs7pv7Ac4a9nrHcTCiHr9sBHWc13eQWidWBiqwwfiCdACfWQKfdZCoBk/LADxoBnYQJGdVVUulkqZpOvlBVEOpVCoUCtTigVDRgqqqpmkyloZvke1VoJWCyiyQBuhP8jJ8jm3biJyiKL5s03l9v759rF+1wXUOWzeAPYJ4Lfk6IlVgsgGPuvWZHZjiEbFcLBYbjUao5T052wQkmOYPyoPc/dbpdBjJ+nJdRBocrWgDhIJI4lB/MBhUf//w9gzAY3FsicHL5XKapoWqSdi1WcETNQeYXKBcUyocDAadTsdXAoZbKpWKr9iCbQ0tdLtdIGhq+gHwZlnSQu9l+yWYHUpObYVCoVwuHxwcmKYZSmpsBFIALwg/VVV1Xa9UKtVqFaLY5N0ADZTGyLC2Sg4ty6LLfsbgMRWFbpYsFArFYlFV1Xw+XygUNE0DqJrNZqfTsSzLtm06xSV9FC+lAx5800ZkhnK0CoWCr06Ty+UMw2i1WpZlSSYjxDc2m026fMIbRfDmKm0qa/vUpkPTqchXEBGPWGdSA8/zPMuygizLIoqlUgk6xrZQ05pAu+VyuVqt1sjPMAw5KWcJHphqqZWLKlEzLgRyLNMED95kmibbMEjxUBRF13XmB/c14rG7Yh1mDB7T0CkD/x8Dz/M8kE1qtZqu66CG5/N5TdNqtVqn0/HlhIPBQEKCsZCbZEDIEjwxGIBak//3wJMTu/xqq9WqVCq0/6HITXR8wzBs28aYpSzBY75f13UxJtpXf5V3P9bV9NlmrNcHVQZhxDTNg4MDXdeLxSJ6I8FygeJ1t9tFUvYFb962TabkUftDqVTCtgX1dJbzfyl4ybqE4NFoiXl7FVgARLfbxXnGEjEk65Tkrv+DVw/VweUVWKAt3QT0f/AkM49fQhm9Uqmg/WyuYRCiD50qebQZvK1pHC8U5aHKT8MD5woeECX1RtHoVio3pQEWf8ZCgYcDR/3ycwWPefImo4vUn3inOYco+HihwEOWRRebeXzXBFdB8DPj8LquSw0ULLoHq6VVWCjwUFigX/SY/XMNCJVYYLlXXNelhlZmSEoLM3zOQoGH5vzMwGNKHkuvTvPM4oinWFgo8HCfg6Zp1C4V9AUmkZLinpF48sSguhRhg0ctFHjoBWWfvZ3fh5CYJw/5dlBsR7r4LRR4GH+gqipNWTJX8Kgnj9rWWba2dGFbQMqj36am4KWb9YCy1pXvp9STR4M8WEjc/8ELHwF0QVDw5pSTTMx3R50hvmGy4R2IU2Oh2OZkJzFK6lTSi773jFJVaFl0BtFAAhp+GAeRGHUXDTzUkSl488jU9G27znbDsv1Tc41eAYQXDTw0b1KuNeOHboJIkG2opKImy5AYg5riVF008NBCRl16U0FmbT8Ig8TnV3fOqUkaXx3r2whxwOJ1Fw08NLLg9lHoMfhuEuMk3sismsPRGF3BiqJQps2HPL3jRQPPsiwMH6WjlHp2SZYyx3VdlFbmHbqC/Vo08GimLRo/kq62ABs5qXpOs8pmoOEBfosGHv3sLeVddv9FZH2Jz4ibs6kbj74XqWQehQUEDzcuUZklxU+9i6EPg8EA9UtVVSnFzwMzfOYCgue6LthZWI6ttD6HKGazwOmSgfcckZt1cyV90F9VRlWdanuQJmbGVMaQBZvaM2kGGTZd5j0mC0h5sGUJjZx0BGcMwIVvcFE5hW1vo587o++dU3kxwaNhy4z44IPhcXd8qZvHK99P61dtSnOwMQpDbFmSlDkBRh+7mOBRmZP59uBDU5BGSi5tYgYS+GIRNabACLJv0mcmZCJ+CwseVbxEv6jdf4E0ppAkBLIZA1qYZwKCi65vH8WkpbATCldW2FOPY5pZYWHBY0npDcPAGGoc3N5TH7JNQNLL9b0LSAxWv2q373tsbcO7IIcQ2lMgh4L4cFp/TuVFBg/jkUB4CZImIM8SJIthS5o46K7r1mo1XOcURSkUCjTYSbxlfmcWGTwmCsKmy8QatG3bzWaTZb7RNC3xA2cHdcHBm4gnuNUR6K9UKsX1cU+StBqGQfkkPKpcLv+LyC2skk4nNTVVo/JXLBabzaZvtglIDNbtdlutFvXy4L0Q1pcs5Qht2Ozlxac8kAxpaBDCkM/ndV0vl8uQLKby+6frOiNWrA+FarWaQYhDFGj/C/WiRuWQ8SNBAAAAAElFTkSuQmCC;" parent="1" vertex="1">
          <mxGeometry x="24.06" y="310" width="70" height="70" as="geometry" />
        </mxCell>
        <mxCell id="gHBn23wMbkpfhwxa4SyB-8" value="Source" style="text;strokeColor=none;align=center;fillColor=none;html=1;verticalAlign=middle;whiteSpace=wrap;rounded=0;fontSize=28;" parent="1" vertex="1">
          <mxGeometry x="29.059999999999974" y="470" width="60" height="30" as="geometry" />
        </mxCell>
        <mxCell id="gHBn23wMbkpfhwxa4SyB-9" value="API" style="text;strokeColor=none;align=center;fillColor=none;html=1;verticalAlign=middle;whiteSpace=wrap;rounded=0;" parent="1" vertex="1">
          <mxGeometry x="30" y="260" width="60" height="30" as="geometry" />
        </mxCell>
        <mxCell id="gHBn23wMbkpfhwxa4SyB-13" value="" style="rounded=0;whiteSpace=wrap;html=1;" parent="1" vertex="1">
          <mxGeometry x="230" y="260" width="220" height="130" as="geometry" />
        </mxCell>
        <mxCell id="gHBn23wMbkpfhwxa4SyB-11" value="Database" style="text;strokeColor=none;align=center;fillColor=none;html=1;verticalAlign=middle;whiteSpace=wrap;rounded=0;" parent="1" vertex="1">
          <mxGeometry x="29.060000000000002" y="390" width="60" height="30" as="geometry" />
        </mxCell>
        <mxCell id="gHBn23wMbkpfhwxa4SyB-1" value="" style="shape=image;verticalLabelPosition=bottom;labelBackgroundColor=default;verticalAlign=top;aspect=fixed;imageAspect=0;image=data:image/png,iVBORw0KGgoAAAANSUhEUgAAAJQAAACUCAIAAAD6XpeDAAAUXElEQVR4Ae2dX2wUxxnAl3AqKI2ihlc/ICSkijeQ5SCCkIVdOQY3cjFKAEF5CAgEqv1wBmLAUVIrEYEGQSEpD1CKwEKufESUIETdEB6MZSuVYx8BG9cSyBhjfD4fhw6bYM5sM/Ptzs3N/pv9v2uDVtbc3t4dt7/9fd83s7N7giiKz/v7nl67OtFxgyzPujthed7fRy/ZZIJexFf//NgDwz9P3slMiKIoPO/vG1w87/58QXUZXDxvcPG8B0UFQ8WL0FJeNFRe9HBtyfDGyuGNlY+2bU5Edyb21iY/3//42MH0uVOZi80THTee9/dlkwk/vtf0/8wf0xmh/ZbQfutOZkLIJhNDxYseFBU8WLbAeCkqQFtSC9CFvwT/gCDAcn++8GDZguGNlcnP96fPnXp67eqz7s5XaC0fYghYaxzBa41fHkkJoig+6+4cEARefjyM6W2KChizh4oXPVxbAtY+Pnbw6bWrz/v7LH+fmfNCRA47lwcP+Ek+0fvdvTZ2l0AFTR+uLUnsrYXA+yrqMgdlzjng1xpH8ZNs9Ly/D0U5zvjpBlfZ0cHF80DNx8cOPuvuJP/DGdvIc04VHpSdKO35yI8cE1hNkkQfbducudg8M0GqkMM5L888OK7994/woxoQYKH2eXzs4MwJqsM/T+byHEl4WvDAv9HVSwLhH8VPqoSLCu7PR6Xs8MbK9LlT05uiRA7KS5qcDjwpfuIMZNx5UO5fT9aAi0PlRYm9tdOyWNUjpw9PFEXU/ysvQj10T2BY/BS5xnm0bfNEx41pU9FoRkvKP5QLdb5wNpkYXb0k6PzwsQWjBMMbK6eBhQbOyfwM4IXGPzk2QCxN7K0Nby7MZKfUKxSZGXnWGF7o+D1YtmBw8byh4kWZi806QSWYT/0y4ry+u18aAFPQItigwQWP8IOBSovJSZbDo5cXFQwIQiK6M0QKmiIntN9C0ZXzGMwmE8MbK0OR/8jxAYkwFFlQipaqvQINBU3AA/8eri0Jk38wWlRUEPAQmslO8UdLEjzNwQN+j7ZtDpd/D3C/Pn3uFGeM8XgziZyGXgQV01jf3W8aHvAb3lgZMv+WLbg/XwggP2vO/XImdn13P4q0Fg60bDKRiO4MI7/Hxw5a+L4uvcQyOVvwQu3f1LnjLsEw9baZ7FT0zgBnr4CJmQAPzWEx9ZHMxom9taHzb3DxvCDws0NOaL8VvTNgF54oimHMf6Orl/jLzyY5x+CJopj8fH/o/BOrK/ziZ6FXwIbN1rgz5kEgDVn9UlTw9I8rfeF3ejBhOc/lEDoLTxTFx8cOhss/cfc6sbri5d8amETu3kP70VLi1xo/PYimxdoqWJjvGa76RYxWAT9v4qczzkFfHk/adBheuPxDkXP3Oonflx8xB6KzDx1zTob3YzrjPLwQ1S+jq5dI8FyOn0465zY8URTT506FIv9JkZPyz/FTSM6TwxNYMtkpV8yDgBOC+qWoIA+e7J+D/Fwh5wE8URQzF5sD7l8u7YF8mN/Ulx85ws8tchgeGOJktalM8gGPnyrwHOKHyJk8y2Nqey/gBdy/vJqFyAfxs2GHZf9cdA4fEOu7+z2CF2R+mvBs+Icum3PTOUEeXnGxYGFCaDDz31DxolxvgTZPrj9fmvTPbefQYSEPr3gHL+dfEC5BkqeyGcDbvU6MVr1s2ME5hQk5Z2YGkUVB5eEVT+GJovj02lVUfwaGnzE8zE/cvc4w/3lEDpsHwytewwN+aP5SMPhxwePwzztyOJvCrSB8gBco//QKFiYF4lFs1fjpMTmYN+ZdtckUL6IoTnTcCIJ/JuDJ8ZPhh8i5Wlsq3hzmjfkJT8U/cnsQuZogE5/da6h30hnn6IfRKjFaRfIfuSWKl/zgHLrP8MA/mBH7YNmCnlXlPavKb69cQa5gdo+Z9M5wPp1mw9OW46f3zsEhAqdh/YcH/sXfX7flZNfy2MgbV8TlsZEtJ7vO7joOtxJwl59yYJoHnhw/N/yn1UvhpM+i+gn+FCx0CvwhJb7Rgpcr4huw4IfLYyNndx2H67XcQ8ieVeCEh/nd/GKPF706Jue1xod/niQ70N2BafIxqo3BTD42wu+KRHTLya6eVeUunZpA/QSYCcHPjNryZcMOH+RrjdN70jd4yDmalmobW3h213E3SlNzpSaFjYyoeQ+PDEkDQn/gIeeuiMK3HPywhXu/bLk/X3D26iTTpWY+v8THW70Pm3Sp6U/O+yGFsPGSkxPh8tgI1KJOpUBb8KJV7Uf+7HXBkl+t+ADPnHN0LG0Rt5zsctA/OwlPrK746z+bvIbXfouMavoQNgcz5p3L57c8NuLU3WFI6rLQeNmww3ty9MCY1/AGM+KG71+ai5Y0OTl+gn82h7ZtVSs+acdUK96FTevRUoOfrfrT2tgKFCzRKtTDY7pfHjykzsGS3oIX1aYzztEUW8SDn31jp/9nPeFVV3jfQ0DHCr47KsHmUdh00rl8fjCKZqH4tB4zo1W+1CkAjyHneth03rl8fr+Mi1ro/FnsJFRXfP/1X3wImFg7ZcJzHZ4DFQpNi2m3oIHsofIis8WLlZjpV6qDbKro4bkbNjPZqV3ttmtLhpbyYYsIgy+mgqfpvgGQ82BykXbhQ6Y+0MHTrYLFXedoii2iieRnoc6srkAjYdq71YOnVGOmK2HTI+cofstjI/zJz1zMDIBz5PYBtHNuhU3vnCP85JEzw+Bprs6srvCnS8dY3hpXjZnOm+dFniPM6EaLeGFng2HPz0SdWV3xr1NfexASDT6iNa4VMx2Gp0IOzpLr/6UZWG7jyvP2yhV6lWdRAVepgmcZnTr3D4Pdyvjh0kO1gRUSPx0rWHLkWqRzdcK34tzzL+acGC85nI4ceEIvJYfTc06MzzkxPvf8i7nnX+QGPAGzNYRGwy5cMRPPb/dnDEUDPz3vgWBzMuftan+JTou3oJMGc06MRw48EepTQh1e9qWEfalZ9ewi4PVkG0ALOBFLIqspkC1iz6pyrW67calSXYHO0vnaJWB0Z86+Og9vT1xihoABEviLgQn8f2XMwr5U5MCTHEiY0sJDUbtyMZjZjoXb/80lZt/5/FC7VHHGvD1xpJrkmZphSuc416DjoC4l1EsgczrqU2wRW7ftVsqnV6rgqjJQoRIdNNR1eIxw5KGtnIfyHA6PhIcJz3SNnFWPsMFfsHkWTVHHRVy5KMtO9VIlWpX4eGvghJOTH3PenDAjDevwDn/3DJnhqG3kINBqEBfnnn/BTvgkRmL5cvxUR1WiVSIMNAcpw9FRWqeHYBceIhcdo/2A3U10YZ4yu17/5cRFFLFhChouccm03eWxEdRhly8kyytVcE/g5hd7AhcnZeEgZmp1zAk5i/28WDsiBzy0FPFmPVCMHHjCioj77PA7xXk9BDxQGdg4SczTLzIJP9Nhk5BTyqSvi6lnTW+8D+VISUSc9lZs/2R1efnSyvc/2fAHlPBCgg346fTtCDnT5nXenRTq2B6bN5IZfgqpTuecGF+x/ZOypW+vLi+H5bPflyHbgpreiHAQMOnrgGhUyrYJ89DEPbkrZrgrfdxAqE9VFv+WkFtdXl629O28HURnl0C1OboHNEIT8D48kwHtlAGT5D+tp8yuNxU2894c9w7DCg//QhCNR7/NCw+VlzWovAzyAmWU0Ni+vPZ37614F+QrW/r2OzV73hrw+vpjC67zVJg0Ti54gxkRmOUd43InmlhCGvqb8Txr9q1Q/69m7Fd/7478tzbSt2Z22xrg996Kd9+pQdMs3xpISfyCmfl0zx7QwOg2FzwSMAOoHcJWl5Kw3V0Z6dkAy+y2NcKFMqG5WGg7AuTov1AaWJDDlZdYIsdVbfYMvRBqpF6dvjRmddHZXucp8n9A1VN0bM6J8dltn0b61qBFJhfp2YDIXSgTYqXChbLf/K+fJkfagUBoskgxZ17J4bTHY2A8fgvRsciBJ7Mvn4ncXclgi/RskLQDfk2FqvIRhH6mQxvkjM2Djh0afVZkOOUaHl04t9HbrA4JJzS2z25jbSPmSdoBvAtlQlOhlnw0Qu8pco6k0LbRbYOc98FX6UD1yoUaOU5S6Y0wy8t2hBzOfLPbPmU46Tx0JbHldyjfGkjZJGdgHn+2Awv1dOEQl1ZZ+VaoMImOvdb4b0QoP70x8F67WsGah/m9ebNNB5jWU46DhA+yT84AXnCKTMhwr7edRhmOqkpU2yrkMLzIpU1ahDjX2wRJPsURcnrweoZe8PTt9HVRCsS5ht4MnXs6clsnw9EI1bWTK5df37pK9qBTDR2iqh/hFDk9eHD2gKfwc28b1BmowaFSN07S8NS1A3ix0silTZyVi+p+t7/SQXJ68EgPgXZLv03rYrONXo5HKVFngJtcXg+BLlhIm6PbYJ+Q1js4S04THjqB4OtIJoybSL1voyRHzNOLmRQ/a5WLFhL+9XSV70hbvasAsxz0PVM+a9M28oZCHZoxZpZcblSFcFJtNBfbr1z4gcGW0TsD8AMyjjAjb6IOj8RM9/KZ1jtDtxLGl4lSPA3jmElYeh48ye52tqECr/PuJOxZogKnUpyb6bwtOGeBHK92hF9zsTfB0yXn4CBQgedXnQkDzRaiJXipV2cSZqSBB6zNRj8L27sRLYm+KvDIkJiOIqqSqa408SbRMdQN564t6VhqImYSfi4nP/pm0GR3O9tQgUdOAGmlJTfWm+3P0eQiPRu46kyCjTSai19vO23BJ56XcM4As4OThYdOI/CdvVMqZd28utSsI7d5hr4YZuShuZhJ4OETDm4Mu3hATqWfB5PY3XBL5z2F+pTlVMeevaPBcLabi50ddvGGnAo8lPDwBFYLGll4CTpTCOcKOEaciWdMw2LMJGhjpUJToVPFp2fkWHiDGdHjHh5UmAwMsw+tx0zCDxcv9v0zO/3LTsJj4aGEJ2unE+UcfErSzlKFCYyt1JmEGd1oLuY/4a5asHjpHFDPK1hID09ZjPCssRI261JC2xFr3QOH4cFUM+3ZSqrAyEqPnVOBV3txwstJD8K+VMnhdPlPfzIbJ+ntHTMPLLSU/3whx4ZNkvB4PFNuY9Y8YR+6rocmYaFtt1qhIyfhZ6b/Z3j9qs3EpvPyvLDp8WkgMA+dIuc+6aPc0nl4gLCpMHJpk2EJ6pdzbNg0O93Ivnlgqp0enunxaKVnOmuai4VYqc4QjI/OsfBIteJgMWn4VjA/xU7B4kA/QYcfHoIRmgpfbzv95s020pd482bb7LZPL9+7rhPTPHgqFzahWlH6xL/GQs4T9qVi7c86x3+yxs/hakWHYlOhgKfARC5tilzahC6BwGu6Rns9gKT1ETl4aKKfh7d2gO55513pN6m6RnuV+cxwjXfwgGusFF38gE8nIeNxaeqjfxK8THbKzsAY2GnOPOwcfUwh/0xWLm5VKzoKMk/FSoXmYr/4SfAGM2LkwBPDFOXUBkJ0jDhH85P84x5w8R+er/5J8CxMsVXmQl7z6lCeo5nRbVPx0/VqhfFM66FP/knwyNVATrml9T5CzZgOOaCYnEyj+MnhX1Dg+eSfBI/0E5Q+8a8xNk/XOcY/nmGzAMEDft7mPwkeuR2VljH21/M4R/Pj8S9Y8Dz3T4JHLgji90y5pZZ5cGdAw2hJk4N212gv8k87fgaiYGESoYf5T4JHZozZN4x5B0SuZuzwd5oVipIZvSY5iU87aPALIjxg2bjQg/6DBA/tYtxDV/rEv0ZpHsxysOAcJz+vO+mMZPoPmwqPxs/SX8TxtgwP33+RkcbmQ5vO0V9Vy79Aw7tQJjQudJUfgpfJTlme7kd7SZsHzlmOljQ5aCcn09v7G5T5L3A1C6Ojm/4heI5f0AXO1V6cUDKwsyaTnVLWL0GHh89LuOQfgmf/TB74B+Y57hzNO5OdYvwLbs1CK9hUWNd+iP4ijrQRPJglbTPDwctdco7+qkz+C3raIwhdiJ8IHgyv0NnLcluIWu8V0IQM28S/0MDD8dNZ/xA8R4ZXwLkPz2QM97sjG9DxMwRpzx3/EDz7M/48iJaqyMG/MMnnqH8IHoyNWQ+V+HoDz5yjKRL/wiSfc/WnDM/qBAioLT88k3H1ElAamLK9vb8hZPJhfls76m3utBw8C+YBuQ++Stv8Tyh5mF2zvb8BzQgiqSUUDdx/sLPrBDJ7xWxXIQjO0Yzr2g+FkZ8d/3LwTJmHyNWhKw3sHDj0rnekHUp+zcWW+QkWrskLmnM0+KPxszPHvxw8TvPAuSDkOZoZ3Zb4kdmVoch/2L/kZJr+IobtHDyenAfOffBVetCjvrjh/199A8QPX2kQphIGX9piih+CBzM2Dc0jeS7g5IBn12gv4tdcHCZ+Jv0TyIxNffPCRQ74JSfT4Sth8NXxnP4heJzORQ48CYVzTCRFIVS+ZDkcFnLzw/B0byIAzoWUHKtgWKIoHz+BzJVW9W8akCMido32bu2oD00i5OAnwdNKeHAPxTBGS8KMaVy+dx0hbFwYgnLUiF8Onop5+I6z04kcASlZCLkwyLEU/9+06pccPEY+dJfn+tS0JEcQJifTR+Nn0ZWujQvhStcgVjTa/mF4ih/NhvsgTW9yBKEoikARhVN8siZwvUN8FbXyEuocPGIeIleX6hl6QX+9GdLuGu09Gj+LKDYVSjoGZKQGj/Yx/HLwpJyHz8rOTHLMAUpA5u4g4O+QjcK/HDw06xL/nOArcgzF5GS6a7T38r3rde2HpAQJObKpUCpZ6bsMuDoOjusX4p+Qu6zylXMMNO2Hycn05XvXIcBu7ahHRKFwbSpE8RYEdem0RqxUaFwI/DA8/OMlQo36Rf7aX+HVM9IeADXBzqPxs3Xth3K1T+NClDthAbSELmRT+EtuEsIjMT4skpNpaXhsVn1K9fYMr/jY3wOZ7FTXaG/n+E8gK9AFwFs76skCt+eRJMZXaEoGww17CHhoxErRaRO4VmHm9Arsw3D2HTLZqUx2KjmZppeu0V6d5fK96xA2/w8TgegDWfLgLAAAAABJRU5ErkJggg==;" parent="1" vertex="1">
          <mxGeometry x="330" y="275" width="70" height="70" as="geometry" />
        </mxCell>
        <mxCell id="gHBn23wMbkpfhwxa4SyB-14" value="" style="shape=flexArrow;endArrow=classic;html=1;rounded=0;" parent="1" edge="1">
          <mxGeometry width="50" height="50" relative="1" as="geometry">
            <mxPoint x="130" y="310" as="sourcePoint" />
            <mxPoint x="210" y="310" as="targetPoint" />
          </mxGeometry>
        </mxCell>
        <mxCell id="gHBn23wMbkpfhwxa4SyB-5" value="" style="shape=image;verticalLabelPosition=bottom;labelBackgroundColor=default;verticalAlign=top;aspect=fixed;imageAspect=0;image=data:image/png,iVBORw0KGgoAAAANSUhEUgAAAJQAAACUCAIAAAD6XpeDAAAgAElEQVR4Ae29Z3RUZ5rvq2/3rnU+nHXPmZkzc+ZM95kODgRJlZNKCYFIBue2u93OJiiHShICg1M7YBuTQRIo50w2JtmAQkkVVMqInCQUShV33s9d7y4oRGnLtmgkGJrt/yq/uxBIqt9+3viEIJjmi2VZ/u9AeoCkSAa8AB4AjAIgCMA9wAAnBlgKWBzQn7uBdbGsl6K9bhwbcLp7B+yN524ctJyvaen58MhlQ31/Yont7Z3Nr3x9ctmnxxZv+H7Rh0cFKYWitGKptkyVWR21fl/sZ0eWfnV82dcnE/ObMiotXxzq3f3T5YrWm8d67eYBut8FYwB2gDEWCPTjksC6gR4F741BEjAAGoD0umi3g/upwOsmWJaluYv/t5uRd4Nm5LvwfROGZEkMwwia+2goivE6HbjLDgzOeJwelxtnENQxgIsEGAfIj2o6M0rMq3aceuXzA/Mzq+SpJSEJBXPi85WGfLluryRtjzB5jzCpQJRcLEkpk6VVKQyVCkOlTFcu1ZZJNKV+PfXe5rkrt4kSdskTdygTvotM2rQwfdvzGbve+axQn30g5wfbqX77RSfYuacKA8TS4XG73HaOKEWStMvLcIDv/lIMd929n6nWQ4PHAItMjMWBdgPpBBpjgEUPOOHBKPqGiz7ePfRFddurf6sTJec/9UG2fO1JSeaJYM2R2amHnk09Mld/XLyuUfqxUaLLQ9LmS7TFMl25wlCtyqwLy9ynMFTK9RUT4Ykz6uRrGhRZ9fLMGqm2QpxeIteVhmVWhhkqZKn5oSu2znnry/D4zR9s2rfr5OUTV8GFUzSgn3UMXU6aw+kk7+HzsEzw4cBjWdZJ0iyC5ybsVxnPLQAKA7jiZns9UNlyIXlr7XxttlJTpMw6LFn3Y/Can8L0tWpDXWRGXVRmffSaunmZtxW2vjpsfbXqwxrlumrF2hpZZo00o0ZiqJbpyv1SGCpVmdVha2rUWbVzU4pD0soFmkqBpjI4vSpEUy0w1IkzDzyVUBGsqZNnHpQZ6gRJRSGrs4Vx2YrkPRlbSwuOGM/bGQ+HbWh4zGEfA2C8Xi9N0+MZsixLkvdSHf/H09CeaXjsnQv3DSSkk8LtLFCjFPzQPfBVbeP/fv3T2at3qjKrlWvqQ9OqZiVVivSHwz8+q9Tmq3QF4fqCcEOeWpOtSNouWb1JuOLruZqCYE1xqK5UoC8TGiqFhkqBHkmZgXpOn+WJ00tEacU+qfWlan25Sl+u0JbLNBUSTYVYWynV14oz9ssz9yuzDioyG2S6Kml6uVxTptRVLPiwas5bXyre/9vnJScvu9DgByxOj13zkWNZlmEYPxcMw/ztGWg8BHi+EYIGQHMUbrZivuH9vOKnVzYUzdPvif7OJtpw6pm0+tmp1fLMg5HrDin1NYLEwuB1+4LX7Qtdu0+wrkG8fr/s4wNhnx4O/9v3Il2FWF8pMVTJMmsUWXXKtfU++bpN34A3Hl5EemG4pjAsLV+VUiBPyZclF8hSC2WphcEJuaFJe8UpBXJNieo23VJpWtFTCWViXZ04pSDk7c+fS/1qZ+WRa8Oj3M9+mw5BEBRF+W4CbHG6+T00eJTXRTBwE4P9NntS9o/SpNxnV+4WpJX9Ib5aqD8c8fGP0Z+cVGUdlOmqVIaayHX1sg3HRR8eDc48OEvX8Iym4Wntvmd0+2cZDsoMNTJDjVRfLdFVSXRVYl2FT/55ilRbJtOVy/UVyowqVWa1SlOuTC9TpJUq08tU2tJwXXmEviJCXxG7oTZybYVcWyBM2RualCtIzRdrimT60qj1B4WppVJt5fyP90do86UrP//g69Iy4+WxsTHfRJphGIIImMFMN7Xb//7DgYeeUBrHcKbm9LnnMgv/882tAv2+iM9OizIPL97w/bw1+5XaaklapSS9SqyvkWTWS9c0RGvKozTl0dqqKF1VhK4mXFcbpq8P09crDfUKfZ1cVyvTVcl0VXJ9lcJQrTBUj5+tiNNL7krXINLUCNOrRakVkrRyWTqSPLVElJIj0eTJdAVSXZFQUxSqKQ7Rlgn0FeGJuxSJuaLkQqG2QphRK8qoFulLROn5Vqt1dHTU9ykyDOMD+dhZHo5maC4AJxoaKBYbAdoBQI4CbDncHqYvfEbTINhwVrDmB4WmamlWVbimUK0vDV9Tr8raLzLsm5teKzTsV67/IURbp/7oWEhKWeSHB9SZ9ZFrD85ZVRSZdViZUavMqFUYanyS66t9kmnLeCXVFPNKll7Mq7tfnFYk9ymlUJ5SKEjYbig+PQIw4hwGcDDkkJscm9ERD2D6LY/ysAAuBnD0lFIUNgyAUwCFTVdWbjskTS8QZu5XfnpWmvW9TFMdnVkdnFomy9inWHdIknlAknlAse6QPHN/aHqFYt0hWdaBmE+PzU0oUOiqlfq62E+OCZMq+MnpqnjJybRld2HcS5GXnCx9HOl74YUk5ixZk5/7fauTZknSSWBDACTOPmazTYakaNZFo7kJyxA04aQArjqxpZ/tVxlKRWnFqqyGiI+OyDP3S3R1yjUHRB8eE2YdERr2haaWBifsDVm9Sxy3U5G0+9lVuU+vyF7w6VFlBuohhclliz47IUop57E5rv+cbngiTYVg5bblmu+a+25hNGBeJ1rFo0nYzF3Tb3ksSZA0waJJNoG7ACg3QMXZjmc0DcG6OpmhRp1RjRbIukpxRoN07dGoz0/OSsgLWb3j/W3Hdv14pcx4c++Jnu37W/+6+YeYzJI5K7bP27Bfqq1UZdYJkorD1zQE9pY+ctNveRL9PllKqeTdjSnfVNgB3BgNDMnt5z1W8NDDyK1mGcw9QgFcJuCDb8ueMRwTZB1TrTsQZqhQaYsV+gpxRkNI5n7BBxvf+qpm76n+7lFwA+ps0XKCgR4S8ptuRqftFMbvlOvK5310ePbqAnVWw91B7g42qbZSqq2cbsuTauolKWWS1dnStz8vOdVvp4AiSKBndNSbAcu7s4ZlCdJjxwEaByhp/NfBhiOSNUeUWQfVWfXqNTVha+rE+qq5aeVvf7j1aOcNN8fbNTaEOYeB8pCYEwMYpKGs5erizDy1vnRuQoFUXysz1N2entxLbgbghWmrZq/MlSYXKZNyFyRsuuRBDyjjHZs5u5uJCQvasAS0bcl6gXF7AKo7R59e8Z1KV6PQ1coMDbIsNCtRZNXLMiqluiLjheEbHtpDkG77IOB27lSBGnU6KMd1gsLHALYe7QvX5P3m7a0RnxwL0dTK9dW+RQLaFuFsTqqtlGgqptvyItLyhXHZwpTCyKyaP7yy9kDHIJqR0Z7HDR5NUjTuQfDAO+il97Rcn5WUu2RNZYS+QqKrE2YcEq49JMmsD8uqmLeubATATgLF0KjLpL1O16iT5D4S6ho5hiyyZRiUybtCUotjvvjxqYRSXnIzAE++alOUvjg4Ye+c+D2KlF0fl55wIm6P12yTAhKNWhRgwBC0AyjYWdfxW22ZQlMTsW6f0FAuytr3bGLVgg3H5r75xebj5yiKoRnUBVG3RTLoQM2LA6CdQ4YmAJK/Lp2Xni9OKZJrH9ySIK1Iyid5Sj6vxIm7Vam5Ybqi0OQCcVrhIn32TTSf/seAF6avV2XWhmhLFB8dCklvmPfhUcmqbQVWO7DoNBbDMIfDgZMEOnkACidcdpcXfTQsNeAgdxy0zTeUhsTnK3TVD6x75CMnTSviJSdPyffBU2kLQ5LyRakFsdpd17F/GHjhmQcVhuoQbUn4p0eFun3qjEOyxJw9FgfQXqBxYAjuzJo79eMO/pAdsjiw1E0383WdRZFaEJxYGLl2/8OCJ0nKVqbkKDUFIUn5wpT8mLTtl13/MPDUGQdUa+vFhlLVhgMibYNcuz941W5NlRWApAk3S3jQsolmWJxmCc4xgsXdIzcpgnQAvLq+JDguT6ytVuprHhY8WUquIjlbkZ7vgxeVvOW8nUGP3Qxe075UmGzMk2rqIzYcUKxFRzli3T5l5uHZq/ZEfViGAeAMGt5Itxu8GFDc8p4BwuvwOu1uCjrGQBq/IyS1UpV1MDSh4GHBk6fukSftlqflhSYXCFPyIxK/OzdC/aPAC02piVh/ULWuUqIvlxsORHx4QpBW8WzCrtwj5vNu5L3CAngcY0DTwALmwTEKWeA1DyTv+F6QVBSs3Re29pAyrfhhwVOk7ZUl7pKl7kWeTqkFt+EFerdMrxk+NMsTafaHrd0nX1Mm0ZcrMg7KM45KMg/MSimMTN21/cTFm4CmmARFMjTGMrgXc7gBbhKwtaFFHr99TlpNSOZRsbY2ds2D20mZ4oRFkbZXmrBTmrJHmFokSS+KSPyuf5T+R5ltKtccVWTVi/XowFOm3z83qU6ScVCUWSNKLVqyrvzT0h/bLg5yu7w4STsIaqzl/PD63ZXi13WLPt43W3dI+mnTM6sLI9MfWrepTM/zwUMOhpriyKTNjyU8Cm1QonUeEIwdrfPqLb/VFikNt89RfUepcl2tT2FZBRJttkSbHfNJ2Z93H1tVZlxR2vjm3hNyfQWvpJrSSTTuNGf86c8ULUyWnMevlNzxY97tCctj121ODZ40vVyUWhTKLZ7kumKFvkSiyQtNzva7ggU0JiFXOtm5He9K/GfWc/zkkvNkT+Ap9HUBlqfOOByx5vvIrKPhmYcV2nppWo00vUqmuceVbzy/J/CmcVJEwdQsT5RSK9PsUxkOqTIOKvQNch3qXdVr9o8HNr79BN4jBE+srUTSVYi05SJtqSC9MCQ1Pzh1j1Rbxq8nY9700Zuq5UVsqA9bV6NYU6nIKleuLVNklUoMBQLNE3g8iGZgnTe1bhN52GnLBZoykb5MklEhySgT6YsE2gJ/pEhA40m3yUP1Qb01VcsTaesl+n1Sw36poUGsrxHpqkW6SpGuMoCZ//YJPB5SPqf0O5EFt/+PThu9GEOQwLBo/4rlDnC4BncOSU58JSku4I4l0UEBwI0xYnf9T8sSPpGko42JiRIn5fBKlLR7qorILBEnZEuTchWpBfK0osiMGlEC/+Ec5/fOv55TJO9RJO+RJ+X6JEvM8UmelCNP3KVM2RuSmCdMyotK3HxxmAYCu+1CRtMMjdG0m6ExzosAKHDyyufeQwGJA44DifYlGM5vh4dJ4FuTdpvjsY3/Sz5SLABFo291B6L/7DSwgXOnOugnYtBBJQ5wbpSpb73c2DfIq6a+gUl0ralvCtrf5ajucCXvPRNtKBEl5wsS85WaElnCnsnO5yZbz00ZHsOFhXIfAwsMjcQB8v1v4uvtrydp8NLgRcGdDIk+3F9xTQpvsr9LkCxOMAR5J+L1Dkzk48AnjAWSBYrEKa+TJTGW4zeG/hbFLwYDXrFe5Ejx6wUoKOu7fSZ12p7gxIKQpCJlWnFE2vRbHufzxmFDAAnu98UAGIrlFTqIoHCGJmmaZJHZegEcACOTff7j358yvHs/cRJoAggX7bFz1n47JHl8mwtqZtCOLeMF2gU4Qgh3nkeeB5FF1jxRdx4SX2/9y68w1g8Utqn8mHjl5uDkUpGmSpFaFJWSM92WRwPOonMsbkzhPDl8/Fjw8IqmSYZBZyfIArmxiMPtGN/zjW/fDzz/3wfKiXykKDcQDsY7xuBOzjuBBMLFK4ZhKBLnDse9iB/uAK8dKA/yMuYTcmDh00ScP/8O4NeAJbfX/qRI2BGaWi5Mr5Qm5asTdk43PIo7zEIOnLSTC3NH4QwAw5M+bshS0YDCskCzaFhxs+DgIlf8n/n4xtTg+eIHGYbxBe8ypAe4s21fgK8HwMGiOPzJLAPjIvC83ONEcN2Iz7No/A9xT3uy7pRl0OzoV4umSTsNG2uaw1Jzfd2mIrVInbJ3uuHRLEo9gI/aqKHDMFIJ9kqw1zL2BmyEX4zjFLgbAbMAeR7YERbNXBBP34Rx4uv4z+oXuk0fOZqmKYoiuQvRArjgZIzXvUd6xwqN17852re+xvJVjYlX39Y2baxp/qKq6bPyM59VNn1RY/yyuvnzysZtNT/yamvlMV5tKT8+JW09aP3ucPdfvqqXJWaHxOcKEvPDDRVhqYXTDY+lAXdccF0rdPWnYedepftfIfveInpXefqe4xXenUD2JlEXdOz1z2G0BPAWgFHq74TnM1WfwfnIEdxVZ+zfWHnirx/lhK3+POSDr+bE73gmfu/v4/KCUyp4JYvfEpaarUzPEyVmhybmSNLyJWn5woTds5MKeTUnqYBXz8YVTElPvfO1ODk7eMU2cUK2IhWFv4brq0JW5U43PDTR93YRN770nFtAdP2O6fot2xlCtSuhXc0viwwsEsYiITvm4+dWYNd2YKNnMPfViTbne+dey2MZYFg0ZqL/o96Pm27c3hYBBlw4O8iAyQNfnOqL/DhPoK8UGqpEGdXizBrJmlrZ2nr5ugb5ugZxZg2vxh8ayLQ1Pkk1t5fevgX4+NepLrpl2hK/fMdAvrXjVCH5V3IBDf/CLqAhTs4Wx22XJeaI4/OlSfkRq789N0QCSxBAIG/hwVxvnxw650H3K2xvNNkXC52LeUV3zecVjBwCFw0Y0MiT5xINDBoZ3ePZQRBaaNNoPLvzNsMyODAoe43H6/CgoRbKm64tW1MQumJbzEcHUGgoR84HT5pVJ1tbL1tbz0tOnFkzY/D8B3iPBzyy/yP6egE4eoBzQabRusPL7YncAYViFVigaZalfXMBiiE9lHeMJVweZsADlHHQkbT7kDRutzylWp1+ZO57ldIMlCtDllkbIN/7E18VhhreQB5/8HhA4/4sL4CcJH1SZ9nJFuMBBue/DTA4/+3ULW8hdPKI7ZzPK495saM7Br/+Gbi9gAHBsB64RqAsTXevIOTRyqC4R7SAYzDSYycxFCfoADhgO/fmpsrZ8dnPJFUp1/4U8+GZSO0R+Zo6+Zo6Hzk/Komh2t8OaEw7vHHhyL5TcklqoWTqExM/rYCGn1ZAY7rhsRYJZnsa618OAw3gYmkSvEC47+03g5DJoWm+bx1N0BRGcvm3Koy33vi8dvbKbOUnpyK/sTyTXP3sqj2LNtQp19QrMusUmXXyjFp/JgapvtrXnvjKxfajOH+5vkqmq/RJqq3gP5xDYcdT80lRpBcr0otvR4unFfnycsgeQXhdC4BXnfOBX1HQEU12RrjOvUINlgKBtsxcd60OtYJwXziAz/K4zeMBAtoHPPN1deGaOrnhoGzdcdm6H9AIp81XanN95P5+eP5ZRkBjqvD82OTjyEm5HCu8c5aH1m12xQCv+MnNh65lYHudNofbrf/pufwmuHuA9O3c3AUYhGPIqxW4NG40gBPgWM/Q+qIf5JmHgpMqQ5PKVRkNEVn75NpKlaFmwaffqzLrfAkYAtIw+GPDJzRQDjCf/O4LKDfKuFni+PZU4SlSi3ySc0ka5CmFKC9OMkqQw6tHDl7HfOBV5zLoeI61qDHLbG9PNHXzM/B0o1nLuCuIorhtfxLDvG4C4DoFmw+aZO9/LFi3X/3J4ZiP9kXqisNSCsK1NeEZRxWGE+PJjW9PYHY7t4YvE9F0wwsg9xjAo7uX0B1SsCmhfTluixnpjfbc+g7uzW0WNAzgJBxAjzKMZxRg99mh0MRC1Yc/yDNqeTUZpABDvDvDnGI+FP+8MaDhT7Xh9927v4nJZEc8AfORX7wVpOQEr94iiNsWkrBTmJytWv1lzzAGQBHgBRyogWxvrwQ6IqDjBegMp7vmTTKwzQdbDL86noP2hWCOAqucMsk8lmX0xY/B2cAyOEaiLUkMhoPGAFy4E8Dl8oz12OHt746gmcjaw7zk5OPS1QRQfFD5UAKY+W8fNXjC5JyQuK3C+O0hCTsFSbvVcV89WHhsZyxYY8EaA7ZI1qr0WmKx3nj22tdA2XESbV5jMBbkQb0mOq+xY2TOD7bQ1VsVH+4TZx2cKjw/y7s2d1/5UPy0AhqPGjxRSq4wfrs4cacgYaeIg9c7hAFLPijLw7vDqfYYsC2GjljoiCSsYS7rEnfHXwA/R+HgRUmJsCAvRgHLYBhxzQsvZO0JTtojXFMnXttwf/ACyU09H0oAM//towZPkpwrTdgpT9qN4CXsiojb2DeMA008KHjeHiXeEc22L4GOpdAZBR0yzCJxmuTgPMp6XRSCxwYRGAkseGg4ZBuc/faXyg2HBFloD2yq8CZiu798KH5aAY1HDZ4oMVuWuEuZnC2I2yFK2BWV8M2FUeoBwsN75ETnPLp9KbQvgs5w6JKwHULCJGBufQOucyyDJp5BLEO5PcQIBdqcYyFJhfKPToV9dFycXnZ/8CbmZphq/FwAM//towZPGLcLOSAlZwtXbZfE71qQ9N2VMeSn86Asj+4MYzoWsO1LKMs86FBCjxy6wlhLBFrz2Y+DDx4A4yGZ0723lmYVKNZ+P9fwQ/j6Y+Hp5fcBbyK5+0ip4acV0Hjk4K3aIUvYqUrKFqzcJo7buSh5y3UX8lR5UPAYczjYFoFtEWVVk+0StlMFtkVM60v2HiEzVAjcRnUQwx3dbq8/HZtZLF177Kn0I1Ldwfn6qqnC4yX3GMMTrNwuj78NTxq3a3HKVpQk5sHBg5ZIsC6CzkVUu5KwiiibmjY/jze+OWT7N3JgM1AoK34QsPZhgMXrS55OLpdtOC7JrBfrysSGu9n0/NNIX2Pq6zn+vUq/JQU0/Mu4gAbvdsnP+FsG7C/7b39xARfwBYqk3Yqk3fJE1EnKE3fJEnb6pFj5lTxxR3hW9X+8tUWetPudj/eMkSgbxCiMIledq1UuSyTTHwL9r1DW19EeymTrOVs08Ko9CtqjwBoJ1kjWEuEXtC2wt88BrxMjrwexrLNzBJtnyHs2tVK87qg4o06WUSnJqAhg5r+d+nruvzy8ieSk8TtU8d+FvP/N7FU75sbnPP2XjzfVNaOU55jLAW5gXHClwG2OpPtCof95qv1lNF18UPBao8csc8FxCcNvBNFA1bedU6bunqutFa05KNbXqNbWSg2TwvNTDJxeTrqT8l8bHi85afyOsMRtwe99Pev9zWpd4e+Xp53osxMAmHMUR0feN+DSNo85nO4WQO9ixvYcdEY+MHhGtcMcCsMnae+NIAxgY9UpcXK2KOOA0LBfrK2MWFePgvzvJP7lbQSS+7n13OMAz99bSuN3+CRL2C6J2xqenquM2xSz+rPuW2gQYrxjyCPBbYULHxLWcMomYbpjWHRuEP7A4LXK3WYFXN8NnutBowBJW6olafnSrMMiwz6Zrio8q1air+RlNtnJ6s+mSPyvDW8iNkncdkncdmnCTknc1vm6Pc++mLax7Pg1LoU2StnIAj1ykO7/AGzhjDWM6YyErmi0yfmgus02OWmOwS6lgPdGUD8OL3+4V6YtE2celmUcUOmrFfqKX4Q3cW45+XrucYDnNzgfOUncdlFidsj73yg++Fz+Z631mgv58TMk6bgFDHhv7CL7FkFXJFiiGVsE9M4D64ObsJhkrPk5Z+9CcF0JOnODiErdpjDUBGsaFBkHwzPrpGklk5mdz/ImkvvZJcF/eXgTyYlXbwuO3y1YsUn6zsfrcxrsvhRphIdzBqfHLq0n+sTQGwGWJWxHNPTFgGnJg7M8KbS9fKv9aXD2Bx3stctWfyMz1D2bXK3KOBi9pkGUXKjKrJuMHy+5xxgeLznx6m3PrtypSM6Ojv+q+YrXwZ2RUm5ukUBgo+fT8d6n4VwkWJYhZufmg4lr8PecU1wqtEqg5dUbpv8BYz1BRUanfOWW6DV1Ev2+EC2KapRpKtXasqmv5/jzngQs4/y3Cm2pXFMi15Sg9PdpRZLUQnFKgSg5X6HPketyZdocafpeiSZPkl4g0RZLdSXK5Hx+Je1R8sm/sPuVDUlCkTg+XxiXK1i9UxC3TZy0VZ6+TandEbo6L3T1HlF8jjwhW7p6q+j9jdIVG8MTNj31xueyN7YUNliRBzl9g3IBxcAQycA1A5xfiXe+hNtiuAEvBmyxYI7lX8zZotFijle+xZ//j7gFH1r2mSNJ82xP12L22q6g3aeHZSu3RWXWSvT1Qh2CJ9dWhekQPL/x3TO3nHRJMDV4PnJ+eD5+ktRCWcJONDtPykGnpkl5iqQ85NaQVCRNQr6tExWwpvbfihOypyRlYo4qKTcsOScsebcqebs84TtJ3EbRqi8Vq7aK398sfHeTaMUW4artIau2CeN3SpJzBa9+lX385AAMeQkUeMNSToK+iTatzq+kut/wti/2tkfSHRHIb8UWC5aFfxc8PzlrJLRFEqZZro4F9OXNQX87eEm6emd4Zo3M0CDJPCA1NCh0VSrN3aXCPeR+bklw//D85ihLL45MK4xMK4xKL4pKL4lMKw1PKVYlFCnjC31eYjyvqQUKPslS86ek0He+QFa18ltF3GZVwlaflPFbYpK2K1d8LX1voyxumyo1V5KcO2vl9t+/s2lneeNF7KITrrpYoLnQIK+rCegf8c6XMNsStznSa1XRHeEcvEVgXjRleH6bu3efBVqjCNMsT3s0de6zoPSyDlH87rDMaqm+Vpl1EL3qq+WaMp/ZBZJ7cPD8wPwm6GtIEvdIk/ZKEvNkCZzi9sqQ8kXJ/JIk7uGVMCFnSorQ5ao1ucrU3bLEXZL4HZL4XdKEbFliTuh7m8NT98QaCpVxm//wcuacP2e9/lnp3/bbWMBdhGcU7C5woXhtDMDV7rz6Pm6L8bYjcmR7GNsZgTze2xcy5qlbng/eHZu7uz3WGk2aZ+M2NdWtD3prV7MoOV+VUSXRV6rX7RdpKlSZtTJt2URs93c+54f08w0/wpD0guC0/JDUfEHqXlFqnkxTqNSXhBvKFOmF/ErNU/BJmbJ3SpoTvwMpbtfc+JzghNyQxLzQpHxBUpEgpeSZ97f/4fVPg19fszTpb59kVzb2XEI53Lms5Tjyt/PYnRRyqRw+6LJF0x0RnMI5cmhXjLUsoE3zp2x5d7D59zYZczg6amhbwFqDmQ4ldCQELfv6pERTqjCgdAsR6+qFqUWqzGrpHXgT55aTrzTBtbQAACAASURBVOem1m0G7Dv7byVZZaLMEqE+X5S+V5iaI0zZJUraKUnahVLs8Sp+m5RXq7dKpyJB/C5RYrYkGXWM4qSc0Lidc1Zsffa974QJaEkQm759Q/7hM91X3ch/CwdmDB9GWyk0uFD5NZqEW+X2lteg8y1kanc1H9rnsdYYxjLvvuH5bM5HDsEzLoL2EOiUQ/vbQfM+OyrLqJYaKkRpxeHrakKS8sPW1Ih1yPImkvvZJcF9wvPNM31TTRT5n5QtScmRp+5BudOTd6sTtoet3qxcuUmRuI1XyoTveBW2etOUFL56i2rFJum7Xwj++tHcP6+Z/Zp+1p80s/6kWf23vVtrT5uveZy+AHPSQ3hHgHGwLOCkxz52i4sMOINdfH3k9Bzo+BO0L0AzFNsi5PtljUXkbPPQao/36OBnZpvjDhP85BhzON3MwesQgenVIPVHKPxAaqgQpOaHZ1XPTcz1weMl98Dh+VcIwqQ8QeJeQeJedWLuAm3hy+ur3/3qUOLWE9qdP+p2nNTvOBmffYpfu47F8ylh+w9Tknbzfu3m/fqtDR/lfb/zUOt+23XLGFzmEjmgEg80g9MMwdA4Q1AogpzCYWTMV/uJOXvevNhpU8KNZdA0G60KLAvBspi1LGLMC1hrDCLXNWV4/kGOtUT44dEmNdkYy1qDoT0UjMuDZNoyhb5CaaiU68rRUKcrV+grFPopVwQJOPj23yrTKqPX7VcayufE7xCm5qoyKuSaCkFCUbT2oCChKDgtX5RRMSc+b9abX7/2UfbWgydbuuieSzA4CrgvLzhKEz4G9BBPjgFfUPrEnAT3986dOg7IOWS84BYXC8yFjTPAMBTFOCl2BEWPey7BzV3Q9w60z2ctasaqpm3q+7Aw36FdwCtrCveLaVMzbWq6NQzJFMqYxaxZxbZF3oWn0FfIdeU+eD6QvMObn8qvbIgSCoPj9qgyKqI/qpNoiwUphUp9tUJTpdTsEyflzf3gy+j0rZ+UtVoHUV5pLnFCBwX9DNwkwYHRuAcHjEAF93DWySsCZS/mEQ43eEXCAK8oGOSVl3URDE2jKEYOKgqgBBYDevA4eS2bOp9Idy5lrdFgiYb2+bTt/se2Xw1PyJikjEmJ4PnsTGmo9OlnbM7H8lcy839ZuK48eNVuqaZUmVXzTPzeucmFEVkNCm3lnFU58oTvUraXn+m5gTJfEMA6nUCMAsPlZwGUVMYDTgeMOdCra7wxjG/fn5lN/FuTJUSgSC5xNPctGWwQd7U5R+tHb+XZe9919jzv7VBzIctRYF3E2haR6MR8kh5y/LptfHvcrHI8P7/ZsabweyyvTcKY5EwbZ3nqNTVKQ6VCX6HKqFJlVMl15b5QD16z+5nKj35aAY1IXbFaXy5MLXkmvmBuSikK8UrNF6zc/tKHBbknbTcJrsaXi0S1LQkGKA/hZSiCvV09ihtyKEBpeICy8wujYEryksArF4N+hgliPdfA0886m+jRavzWF45r7w5fnDfQH0r0RBDdcsomgnYVWBeC5TmmPZbomPZuk21V0K1KpjWCbYsOil6/T5WBKvKoMqrCMlF1F0l6yWTk7gOecNX26KwqYWrp3OTy6I+PSJP2hrz1t5c/zD9zbnDU56xN4+QY7nOHQj2nr44CiwN1BSW4cJ6C0YMwVEeNrOcVO7iRV+T1z3mFXfmUV/ilz3mF3XzTe+0N7PKf8f5XiN7nqa5FTGc0WsP1LELTkPZwMMeAeRlYn2NsUXSXZLotjzUqWWMY0xrFmGKCFn52BG2vaEp9xifVlErSS36m8wwwrF+8laVkqwylsxOKQlMrwzPrQt/64lXD1u9tN1kADHdh7iEuIhe8BAx4RgeoAZbBCeyS237YOfiN58Zq8voyuKaGa2K8/zleUeejeEX2R/IK61XzCu8O4xXRuQi3xeLWBaQ5hjHFgGU+WgO0x4LtNbAuY83zmbb5jGkpY13KdkSy3eLphse0KFhjONuGjpmClm08EZ5VK04rluvKlYZKSXqJJL3EZ4u89veLtAK+ICqrRJRaEJxcGpJYJvhgx8uG3dUnzTgA4ya4jE3k0NCQc8zBzeh6gP6BHovDbr3puPyco3+epy+K7o2FnuXQ9RLT8yqvoHsRv3oWA68m+3reyMeuGLC+y1rfYCwv0ZYlaGLSrgKbFGwSsL4C1oWUVU1Z1Ux7LPJLty0AW9h0w2Nb5AheayyYlwe98O2P4Vm1otQin/GJ04ol6SXqNVOu0RPAzH8rSt09a9UuVH1E1yBbufPbqhZUepslgALSQxEkzSUP8bKjrd7+zURPKpx7BfqWoTOw8zFweRFcWA59r9Adr7EXY3kFvS/xiu5Yxiumczmv2M5YXuGdIURXKNUjpXuUdHck3TWf6lhCti8F21KmM4LqEVM9UuiOBttSsC5mTQumGx7TLGON4dC2ECwvB22otvzxza+Qx1/WPrmuVJmeJ9cWhaaV+D/9gMZkW5QBX+a/XZCxfU78nuD0wyHv5Gk+rxy6harjusFOoCqi3ESOBGLsEHYzkb0cC5ci4MLzSOeXI/Uv+xVaDueW3Vbfc3BHbPdSXjHdC3g15fi5qc4qJzmfm2xWCUYlv5rCoXXZWNv/hAvbgr4+3Dfn3W+kGTWSzHqppliRtlepLxFpy/2ffkBjqvDUqTtFqUXBSZURyXnVp/owjAA0wOEESnVHMvgV0rkPG8zCr7xGX1gM/c9NGZ6f3Llld8n18pNju5fykmO6F8wovHHLgynDa1GBaZm97Z/gUk5Q7umrolWbJYZqgaFOlFYsT8tTGUrl+ooAZv7bqcITx+crdVUhK3eu+LZ2CE0vKQ/yj2MYCkjvOdy+CRt4nbo6n7m4iLnwItn/6v3D42yO7V16W91LWD49NHgT1na3N8Am2UnhNztkjhIwLR5p+xe4UhpU0XpTGbdJpC0P0dUINWWK9HyVAR0y+GkFNCaFN0mZF1FyjUpTLl/xed7JNg/KjIWN2W+hhEsUUM5D2M23qYsiuKCCiy/Bpde9F1+6T3gB5JDlPZLw7tjc3a3LqcJrDYXWhbda/w9cPxR0uONWRPw34vSSYF2dSFcp1xap9cVy3aTlXCaDNz6lxvi2UHtElrDnRc3XFxweL+AU6yFwF0t5wdtED31HXnwZeqLRjOP8B3DpdffFmCnD8w9yd2yO6VnC9Cxhexbx6qFZ3h1sAedzU+42m2eDcdFA2x9goCnIeMW9KG2zRFOK4BlqFbpilbZQri0KMDj/7WTw/NlrAhpz9QcF73+7fkc5ATDiHCZYDKU/owfZ4fX01QSq9y/Q9Rp0vwPn3mXPv+jtj7o/eL6u0oftEYcXcD43ZXhnZ4Nx+aBVBCO9QVc98Kd1uQp9WbCuTqivkWqKlZoCpabATyugMRk8fzKNgMbvNZXiFV/sP2UFFnCc9FIYqqXt7oDLS5jzL9N9b9Dn/sxceJ69uIg99xzbM+Vu8+4g17vUh43uXkx3L2Z7Ynn1EC3P31X6j3gY892jg4A9zEnHvNMhYHptuCsaXMNBToD3Pi9Wr6kK1tWF6msl6UUPFt5/pObJ4r7ovjzCuhlgYAyVuR8aufEDnBfD+SXMxb8QV5djN+TkVRGaavasnqrl+eH5ze7RhOcnF3A+N2XLOy0Ey5uOvqXg9QQBeDcU/hCsqftf75YsWntwQcpuacJuYeb+ySzM768Q0Jgsfm7Oyi/e/7j+5hAwyGmA22l2tcDg27dXcr713PjXydZ2d8Y26HtufCc52cSE1+zYnthpXxKMG9t+zSnBZBbGtijG/xHbomCa5XSTDH5c4DE+i93IBxKCWNZd1nTxd+9lP51UF2WomZ+SHa4pDNXVPyh44pRtyd98b0dZPr0+ePTwYfzKC0/g+Q5XxxMa354cntJjEuCDZQgehdt7XPC7NzaKdQ3y1JLotLx5a6rmplU+KHjytLyMXSc5bl4WGIpyeQf2ei/GPIF3n/BOz8E6YqjRI0BBEEOMjQHEaHaLUoskyfkR2qKoNdXBycUPCp4kqXjd3uNc+XBUTgGYa9itjfTVqCfw7g+e9+xTRP/74G4FGsWkezwAG0pOClZ9J07LVxrKZemlohQUQsCrgKHOfzvZmBeyuuyjkuMEUCg5EDqu7vYOrIUr0U/g3R88R6uEvb4FyKsMi+B5XTh1tOumOukbqa5ApKsQppYo0kp5yfmCQvzAxjcmgxe8suqLmuMEuGkMzTYZyui8nAgXFzyBd3/wxmwvwfBZYHGcdQcB4yEo/LwDf+2zPTJDwazUUrG2MkzzwODNer96477vCbS2YwGlCDo7dn4lnFv6BN79wXP2asDpAQY87NUgVB8GyAGSTstpEOvzf59cqMpqiOAir3iNb7y1jW9PZnlPvV2xcf9BAkYIB+dlhHPw+l96Au/+4LkvfIH87Ghwsn0oQTgwJE6DZRj+3wV6+ScnBemlEcnbfMEDPn7++Dnx5Ol/feFYE1+ffr/w85ozOLhQinmMAtw5di0SOv46+UHd1M7nJl3PdceCT/7Mzr6EwPwRjjEP6hAVrFFIlsjbMkeAT60q8OnOQR3bokDrgRblJIqgTLKx1kisNRSM/w4/LoTTf3J1/SvDUH4FeUmU152miGsYLF5XMiu5JDi1RJ66Z7xVjW9PZmETsfnemTK8KZ7PPYrwJpBjTeG3ybWq/Iu5X4BnjMDOLPaYRNARCmcWwgklbY5kLmzwk2MYKsiFXIEZlvDgAEWnzwvidgSnlkgy6315ZCWphePJ/Uwx+AcPL+CUZ5IjnkcOHh+5+4HXssh7OoJunQPtkXB6ufvHua7et8Fx6x54KLaMO2UDlrrqoFd+Uy1IzhNkHfQz81P8+bTADxheALnJz+ceUXh3ekv/1uVULY9qXUy2/hYaZXBmMWv8w5glyn31MNDAsqiEiU9Bt8vQ0DiwaCW933g+LGXnHxOKAkY7X2yjMClv2rvNO3uYATvOvIdz3Jv8pwe3B7zu2LvVDGZmzJuAzefvPFV4mGUWmOfA6Qji1Bxn+2/dV9bRbieKwL1DjmVplG/zdv0nVLiOHMOY1V+VhK7ePt7y/PFXMwZv/Nbzz5/PPXKWx8HzG5yPHNOmnio83Pb/QdPzcDbMZfz30b7VuMuIyiJy00uuUhcqEoqWCsj/ldvuBwoDljpmPp+wpUGYlOezNnFKgTilwNdnzsCY5zc49tedzz2C8CaSo1vDpgqPMM6FM/OgVUSce8V76zSB3H9wrsTl3dquQUA6aK48pptFSeuA8RIA1U3ng+NyuJqBe0XJ+ShJQ3qxXFOC8m9MUmziQY15fni/8nzuUYPHS+4+4FGn3qaa/wdYRXCliqWcyP2HBBQWiAr03dbdypX+aoe+Intbjje++lHu3Dc2i1ftC9OcCl1VHBq3af66zSJtuVBTIuJ8c6VcBRhxQq5o1e7JoIpX5nxTfpwFO3pqSAe4rw5fDYNLyX5IgY2pzir9y7iARs886AmHnjDongddz0HXMro7iuiRsB0xvBoXizw+LhkFtfKKsczjFW2N4RWgJd294hZ8LrMKMyvpNgW0SOGsFM4qoSkSWmKutT3t6EuDIQuKn0LbGzjK1HN7hnK7qsmk8AYANtWdiVy5SfROTpT+QKShXpiyKyT+69Ck3OD43XNW7wyN2y1JzFGl5kWkF0ZqilSpe3klXJ2/seJHGpwoYpHFgRwYvapiO98LZHbHfWjKh6sBzO7cMrYoxqqkrRLWKof2COiYBx1qVCOkPZxXrFXJK+Tfzie6TcErqlnKK7opnGpUU41q8mwYcUZFnFHhp5X4aSV5VgxNSmieB80x0BTONgmJlqe8xv+grmXB0H7weNCeIoLnplFC93HFaFCm2ztXgOU5acYBsK/10vOarf/5YqY0NTdyfc2shJywjBKVtlCWuleWvEeWvEeRvEeekCOLz5YmoCP4iRIklW6sNeKoChWgMZUeHrumpM1/nm54KLbf+irKG2VaAtalYHserC+AeTl65ZVpKfDKsgxloZqotkXAq5aFwCurEiwKJJMM2qRsq4QxiukWEZx9Cc5EwJnf42f+h6vpf3vbIujuBDi/EfDzQKAimCyXTpqCMQZcvxYeYKibdQGc6LucuL0s+O0Nv3/7a1VmnVxbJNcWyTSFvuRFspRiYXxe8MocUeJeXj27Yu+XtS0YMAwBXo8LiAHnjTDofGva4Z1bCp1LaOsCsj2CtilYmwJtUxljbm9W3ZnQ+29RoDCfGJOSV2yrhFfQKuVX83zgxDbFMI3zmMZ59Nlo+mw0tC2AVjnRNsdpEjo7/4Rd3AEj/Wj30hfOSaGoRRIIGpVZ9v5qeDRJOIe9mB0D5ioNu0+0v/pJmTwe1YAIWb0jeNX20Ljd4qQ8aVqJXFMm11T4lxYBjf/7p68/KTmBA4V2AjAMvDed11TQN+3dJt37H0T3XHeX3NEtd/SGuHrneDrF3vZwT6eYV+4OAa+c7SH8ss5y8qrtaSefPMZ/9hj/2dv6L97Wf8Ha/hdu+lefHL0y/PwbcGUr3DTCyBh4EC0PoPUbwQDGMDiKHXXRvrKHv3LMozwooRYA6fY6cC4AyzYM2Qetb35R/vKH+QtStyhXfCV770v5B9+o4raGJ+5SrPiaVxFxOzZXHaPBC6jKIgvEoP2yHLrfnm7LI7vn0+fi2Es72Bsl1GAueWsLDObCQCVzM4dX5LWdvKKu7+IVeWnLlAS9BdBXCOeKoL8YzpfAxTK4VA6XygnHPnC1gWcUZSggkb25gRyDURIIEjwUjNHgoFHtILRWYAJKsN0Z8tAn669nzyDg4MYpkkRlgoFmPC4vCi0GGKXhspO2XLKftF4+1Hy+obG/vvFCfePF+rO9vNp5pP90+3m0GEFPDQPMyMhlGdjemHZ4ffFwtQzsDvCi4R6NH1z6G67te+feV4xb7U58xVHSHB55AHVuEzU+YH58m6BR50fQQDLjRVO3q/jSzAhJ3yRZO8WVoOTSmfnqM3uBqyzKoPPQe65JJywO7ndBS3pkfgAkAbgdvDeB9aJJI0tylUoBFXtmUUXFyQLyhwDVugG4xThJFiULGB29IoeON6cb3li/mhn8ErDrQKMf38HY3egRRmGBvKIB59VkEe/sJLlFuErXvnrX97y6AGW4Gi8nV2rSiepaUGgmiYY0HCVT4lZxNMFBRQl00QqPJtHDz33ZXX534d1974G2aGBQegD03wh6FLDrnksvQOcLZN8Suhfp9u4Xt7yD7iUPatE92BOJ3/wWsFuo0DgLo5TTyXgIZCo4r7yA88oDhF9uwH1yAeZAndsNkkFPNgO3KBig0WT64gP98H7hH3ts4Xl634Dre8A1iPpJGhjKDozb9/Tyv47v4sa3J2b98L0DJMteQ90SKnl4A2i0kL13GfYLH/3f/8ePLTys41X23Aa4XgtDP8LwIWaoEgb3wcCPMHCCXzdPAK/GfT178zh78zhz4xhz4xgMH6UHc+HGQbh+ghooAofJ95T8/Uh+/b/w2MIj2mVEx0Ky6y947xvevhfd3Uu8tpdw8189fQJeefsEPy9Pb6hP7p4Qd08IZvmLyyLHzEu85lftXQu9178Czy2guePRX//x/31f+djCgw4FdChpm4KyiaiOYNo2l2oLoVskbOtyXkHrcl6xxmU+MS3P+UQ3L6Wbl5KNUrL5n9jm3xNNc8csfySuZQA2gOYaM3g9vvCsL4PlObDEoswp1hgugeJisCyCdhm/rDLglUUKFimYJbdlEoNPjUugdQ466GmMcrfKmCvfoTUJ8imZuevxhWd6AcxLwRQLpkVgWg6Wl6B9OXQuGh8bN77tP8oJaIBRjdQS5hPbrPIJGp+HNiG0xcDZha6WcOryVvCiKf9MXo8vvE4VdEqhQwQWOWOKZCzzaJuC6RHQ7eG8YtvDeQVmtU+sKcwnpk3FtKm8Z6Ws+bdgEUGTzGGaQ9z4EJhbqArUDF4zAQ9lfkAr5SHfOs998XmwPjfpeu7Omc5d3xPfOw/K33J8VobxbYscjGrauIQxvYabXnEYo13tEvKcEGxvUKYXaGMkmEKg7Xdky++gTQ6dL4JRRbWEsi3RTIuAMs2C81vADciTeQavJ/Du1KSwxkCrmm5TsFY5a5XSJhGY5dAZTlplWGso2SQAowqM86ApClrCwaJ6Ao/H8SvQ4PyG+KAsb5LIVbAuYU1hlDmYtj1L22ZTrVLm7Hw4+yJuneMx/hZr+h00R0LTm9D4NjRHM21/fALvUYLXrGSN4ZQ1lux9jbyYQF5YQ/R+RnR+Bd0rCFsM3jqbbpFB06vQ+FdoiYLW/3wC7yHAGx/YP75Nnw5h2l5g+z5hBw6xnh6Wvk6xF3GmE642wcVtZPcrXrOYNMrAGAVtajCFPoH3CMFD+TMvfQbDZxkvg7Po6NOJzrEcMAZgvwwDOd6+V5zm2UTbU5wfQ8wTeI8SvBsl4GkGsFOAjo6cFHgI0uMZcpOcpx12g7y+3dE5z9X2f2mjALnDPpltTlwwTPeEZfzCfHzbPdQPzBgFXgydDXmAdgHlAMx+HYZQ8RkSYNjo7HlnrO1prCkUfnrhHwIeS3Pn98gP6hI6S3EOeK4sgPa/TBpL0DEfVRXn0TzkvufPcjl+icbbnmRWiTKctoZDazSgfPoKj1Hhan+BvpyCuwdRBTx07IxE0yTJMhiN2vgoOjAF1k0NbLQbJdiZP4BRzppepJuV0BTBGgUeczDVn815mXCZE2ZqqTft6zwWfRgMi7wzbqFFuuOG99JSsD7/0OB1hNNtEQheuw+ezG1dzlyKp2knOo5DJZd9huZmgeRyzw97vSyJ9r3sMLjFY4qmmkLAGE4bl9DNcmiJgFah1xKC4DlRrpmZAoe+z7TDo5CbB0KHKNIAjsvkpdeQw91kkas8NuczxAdkeR1htEnNWd48sKjwVrnXupQ99wFykGCR5wFNkyy4WLCzgFMoifJFN+2rK3oLbmwj2hZDkwyaw8iWGOR12RYBJoHLEkz07wQni7yHZvCaAXgu5L7jO30mAZwX4HI6Y1Y9LHhsuwrVwmqNAUsMWFRUm4K0LITuvwKqfoH8cVDBINbJgItlaYoADAZdPsOjrtPnvvGejmUaRdAsIo3I5qBNzbSE2tvmes/vRgMlclKZuWsG4HlRZ8Iw6KCZBMDOw40couNOwPjE+LlptjxoV6A41bb5YI4GcxhtljPm+dD+Ej12CY1syD8RvCTlJQnk10UCznm8or7U2UmY13pOhjNNwUzbbPSPmARgVGNngoeNwfilPM4p/HGzPGBZL/KbItDDDXAJRo3u/rcfluWBVYo67bYFYJoHljCwKMEUBW2LiWuV4LICjfxLcQq8JEP7YnF8zxw1CDcq8MY3qR8l0BZCWeagfAFtImhSe08LRs0y5mY1UIA/ZmMejUqqegEGgAAPhbFwFbzesWvrHxo8sxgd8bQtQHUlEDwFmNTQPG+s8136+g5wdwFJ0WjWSdHgZsCBpqCuc9RgqbdrpfcnKTTOBYvUbRRBWzhrFMLZKO8ZuadzAYwdBRJVsZy5TnMGJiwsAwyBA1wFChyMi4CrQMLo4LaHDo8rT3IHXlPUQMscV89KemAf7R6kUQ5sLwE3vcw5oC7jw3XD55KHmsXuE/8GxqfBEnbrJznToqabhXB2HtEUQfU/D97TQMEw9Xh1m/4nMcAje7B3gaf3Zeh6E2yvgDWSsolcfTL7pQhoj4GOBdAZC+0xXF7RMFQmpEvNX0z8TiXj8Zkt77T586H4jlJ5Xjt+h5mechnlZPvrcGEDXC+Aq/vh/BFojoWWKNaoJNvEhElImhSUKYI2xcBPL0NLsMf4zyOmSO+lEqAJDKhBuOr/fWegMe0TFv/vEAAPRuupq1pvp5w0zwI0ZXiD7HzJ3sFB6pgHXfPBNt+XS5uLrou8H3h8WTV4sHEn42BVQKuIbBKQRgljVTId4ZhZOWaU3M5wY1QyLQqmRcWF2UWi6J4zAvrsHz0mgfdCCjP6E0tSnEdvgEO6/7eflsbDg0cwMFrnOPeiw/Is1aYAyytg+StlfpFDFQWd0dDJZSWycHUFrfOnDI+PHJfHGTkxTBScfQVOPw+nY+GMGhol0DSXafoDdfY3tDGUNYpR5pvmcGiKhrNRcFoNPymh8X96Gud4uleD8wDAAEHSJOfdOy2UJvlHHx48FERxjR2qJ84nu9oVHtNs1N11/gVBsnFFVrui0X4Yqui5gEVeX3eOvAMak2yDBWSP8rsVTcTme4dtVoMxAozR0BLDBdIthOYl0LIUbwmmmoXQrIBmNTSr0Aq9KQSaZ1GtvyFtbzI39gM9RqFYcYyhWLQcmsHrocFzeRn025KjMHrUe17n7IjGbXOgZzZ0LGJtC7gw8EjojGI7Ypj2hfR9wLsTPjkOG6q8Ohk8vOv/UN2/ZTr/yLTPZtrmoslIoxyaVKRRxh3DyqBJBE0CaJlDtz1LmJ4mbW/A9WLwOEkK3KiwlR3FwREz6j720OBRKPsmy8BNIC7CSAd1pcDd98JIz3+HjpfAtgzF5LeHMx3hqCidbQGDStZN0fImyYcyGTxXa5S7LQozRWJtKswoxVoEhDGUNoZCqxpVPWsMoRvn4s0CtynC2bFsrPd18mo1eC6jtR0FTlTCeQRgBAWfzOD10ODRKNqM9DJDJI2h3sYxSN4sdFz4ALreAturpGUBblFRHSqmS812zWM6FtwHvAk2hwoeTwaPOP1n4sxrxNmXqMblqBa5MQYdmrequdEulGl8lmwOwcxLsHN6/EYRZj9J43afczuLNo4ICjAGhZ7MaKjJQ4PHwijB0B4KvBSKNQTKiSJ6hq5B90qw/Zkwx2JmJdEuY7pUbFck2zVvqvB4yf0MPLDNButsaHsWjLPAOBdagunGucRPs6ExhD37NH32j2SblO5ZAbcqgRxjuUA5jKFI1s4lsSEpElWVRpWLZ/CaOXgTfqnbmWB8ybT8yeyAwYEYgJEzxOVsb1eq17yUMAmRQa9h6gAAAihJREFU80HbYmiNBeN85H/XEgkt86BlPrQsgE4V2BTII90qRR555khojWGbY5HjnkkBbUquyKoS+aW3KdE7zSJUCMsohRYRNArgbAgayZqEcPw1OPEinIyFU+FwSk6ckmI/yj2nFPaeJMfFL7wjBwnsEhqlWUDJsnF0/PPQr0cOHs0SDOMA+jJgbWDfz97cRV/4hOw1eM/9q7f33z2dv/FYf+9tneVpEnhOK7CfwtCxQJuUaBWRbULaLGUtYWg90BoFFjlrVqBEDm0qVN64TeXzd0b9YVssmBdCK8q5wTYvguYlrHGpq/W/u9r+yW3+jdcWgnXH4L1vkOeSmf41MHQIxs6w2HmGcXFR9TRLudH57CNwPXLwXFyyFgr1QDjazqaHWc812n6BPN9JXmgiL9QSF74lLsTjF5bgFwT4hT8S7S9hlue85hjCEkm2q9Ecp13NWNVgCWPNKh88bpxTs22RYIqyN/0/Y8b/5jD906jp34ZNv7llfuqWdc5QR+jQhTeGL61wXM/wDG4h7fXgNINnADDv7cMQ5A6AYjQZFHnsmuGJyWTPySMHD+OC932vJBdCj7a20Vji4hIlOMA9AiPXYeA8XO2CS+1w5RO4lAX9SUzvW9DzCio12hnLoNWhmjGH0SYlbVLRJjVjikYFXc2LoOtv0Ps1XNiN0g3cPATDp8FhBncPPeakHR7WTSNaNEpdQ1NIvlsumJ0huewaXIj4jLq1Twbv/wfNoEnscW2EZwAAAABJRU5ErkJggg==;" parent="1" vertex="1">
          <mxGeometry x="240" y="275" width="70" height="70" as="geometry" />
        </mxCell>
        <mxCell id="gHBn23wMbkpfhwxa4SyB-15" value="Daily extract data" style="text;html=1;align=center;verticalAlign=middle;whiteSpace=wrap;rounded=0;fontSize=27;" parent="1" vertex="1">
          <mxGeometry x="230" y="470" width="220" height="30" as="geometry" />
        </mxCell>
        <mxCell id="gHBn23wMbkpfhwxa4SyB-16" value="" style="shape=flexArrow;endArrow=classic;html=1;rounded=0;" parent="1" edge="1">
          <mxGeometry width="50" height="50" relative="1" as="geometry">
            <mxPoint x="460" y="310" as="sourcePoint" />
            <mxPoint x="540" y="310" as="targetPoint" />
            <Array as="points">
              <mxPoint x="480" y="310" />
            </Array>
          </mxGeometry>
        </mxCell>
        <mxCell id="gHBn23wMbkpfhwxa4SyB-21" value="" style="rounded=0;whiteSpace=wrap;html=1;" parent="1" vertex="1">
          <mxGeometry x="872.56" y="200" width="200" height="234" as="geometry" />
        </mxCell>
        <mxCell id="gHBn23wMbkpfhwxa4SyB-22" value="" style="shape=image;verticalLabelPosition=bottom;labelBackgroundColor=default;verticalAlign=top;aspect=fixed;imageAspect=0;image=data:image/png,iVBORw0KGgoAAAANSUhEUgAAAJQAAACUCAIAAAD6XpeDAAAUXElEQVR4Ae2dX2wUxxnAl3AqKI2ihlc/ICSkijeQ5SCCkIVdOQY3cjFKAEF5CAgEqv1wBmLAUVIrEYEGQSEpD1CKwEKufESUIETdEB6MZSuVYx8BG9cSyBhjfD4fhw6bYM5sM/Ptzs3N/pv9v2uDVtbc3t4dt7/9fd83s7N7giiKz/v7nl67OtFxgyzPujthed7fRy/ZZIJexFf//NgDwz9P3slMiKIoPO/vG1w87/58QXUZXDxvcPG8B0UFQ8WL0FJeNFRe9HBtyfDGyuGNlY+2bU5Edyb21iY/3//42MH0uVOZi80THTee9/dlkwk/vtf0/8wf0xmh/ZbQfutOZkLIJhNDxYseFBU8WLbAeCkqQFtSC9CFvwT/gCDAcn++8GDZguGNlcnP96fPnXp67eqz7s5XaC0fYghYaxzBa41fHkkJoig+6+4cEARefjyM6W2KChizh4oXPVxbAtY+Pnbw6bWrz/v7LH+fmfNCRA47lwcP+Ek+0fvdvTZ2l0AFTR+uLUnsrYXA+yrqMgdlzjng1xpH8ZNs9Ly/D0U5zvjpBlfZ0cHF80DNx8cOPuvuJP/DGdvIc04VHpSdKO35yI8cE1hNkkQfbducudg8M0GqkMM5L888OK7994/woxoQYKH2eXzs4MwJqsM/T+byHEl4WvDAv9HVSwLhH8VPqoSLCu7PR6Xs8MbK9LlT05uiRA7KS5qcDjwpfuIMZNx5UO5fT9aAi0PlRYm9tdOyWNUjpw9PFEXU/ysvQj10T2BY/BS5xnm0bfNEx41pU9FoRkvKP5QLdb5wNpkYXb0k6PzwsQWjBMMbK6eBhQbOyfwM4IXGPzk2QCxN7K0Nby7MZKfUKxSZGXnWGF7o+D1YtmBw8byh4kWZi806QSWYT/0y4ry+u18aAFPQItigwQWP8IOBSovJSZbDo5cXFQwIQiK6M0QKmiIntN9C0ZXzGMwmE8MbK0OR/8jxAYkwFFlQipaqvQINBU3AA/8eri0Jk38wWlRUEPAQmslO8UdLEjzNwQN+j7ZtDpd/D3C/Pn3uFGeM8XgziZyGXgQV01jf3W8aHvAb3lgZMv+WLbg/XwggP2vO/XImdn13P4q0Fg60bDKRiO4MI7/Hxw5a+L4uvcQyOVvwQu3f1LnjLsEw9baZ7FT0zgBnr4CJmQAPzWEx9ZHMxom9taHzb3DxvCDws0NOaL8VvTNgF54oimHMf6Orl/jLzyY5x+CJopj8fH/o/BOrK/ziZ6FXwIbN1rgz5kEgDVn9UlTw9I8rfeF3ejBhOc/lEDoLTxTFx8cOhss/cfc6sbri5d8amETu3kP70VLi1xo/PYimxdoqWJjvGa76RYxWAT9v4qczzkFfHk/adBheuPxDkXP3Oonflx8xB6KzDx1zTob3YzrjPLwQ1S+jq5dI8FyOn0465zY8URTT506FIv9JkZPyz/FTSM6TwxNYMtkpV8yDgBOC+qWoIA+e7J+D/Fwh5wE8URQzF5sD7l8u7YF8mN/Ulx85ws8tchgeGOJktalM8gGPnyrwHOKHyJk8y2Nqey/gBdy/vJqFyAfxs2GHZf9cdA4fEOu7+z2CF2R+mvBs+Icum3PTOUEeXnGxYGFCaDDz31DxolxvgTZPrj9fmvTPbefQYSEPr3gHL+dfEC5BkqeyGcDbvU6MVr1s2ME5hQk5Z2YGkUVB5eEVT+GJovj02lVUfwaGnzE8zE/cvc4w/3lEDpsHwytewwN+aP5SMPhxwePwzztyOJvCrSB8gBco//QKFiYF4lFs1fjpMTmYN+ZdtckUL6IoTnTcCIJ/JuDJ8ZPhh8i5Wlsq3hzmjfkJT8U/cnsQuZogE5/da6h30hnn6IfRKjFaRfIfuSWKl/zgHLrP8MA/mBH7YNmCnlXlPavKb69cQa5gdo+Z9M5wPp1mw9OW46f3zsEhAqdh/YcH/sXfX7flZNfy2MgbV8TlsZEtJ7vO7joOtxJwl59yYJoHnhw/N/yn1UvhpM+i+gn+FCx0CvwhJb7Rgpcr4huw4IfLYyNndx2H67XcQ8ieVeCEh/nd/GKPF706Jue1xod/niQ70N2BafIxqo3BTD42wu+KRHTLya6eVeUunZpA/QSYCcHPjNryZcMOH+RrjdN70jd4yDmalmobW3h213E3SlNzpSaFjYyoeQ+PDEkDQn/gIeeuiMK3HPywhXu/bLk/X3D26iTTpWY+v8THW70Pm3Sp6U/O+yGFsPGSkxPh8tgI1KJOpUBb8KJV7Uf+7HXBkl+t+ADPnHN0LG0Rt5zsctA/OwlPrK746z+bvIbXfouMavoQNgcz5p3L57c8NuLU3WFI6rLQeNmww3ty9MCY1/AGM+KG71+ai5Y0OTl+gn82h7ZtVSs+acdUK96FTevRUoOfrfrT2tgKFCzRKtTDY7pfHjykzsGS3oIX1aYzztEUW8SDn31jp/9nPeFVV3jfQ0DHCr47KsHmUdh00rl8fjCKZqH4tB4zo1W+1CkAjyHneth03rl8fr+Mi1ro/FnsJFRXfP/1X3wImFg7ZcJzHZ4DFQpNi2m3oIHsofIis8WLlZjpV6qDbKro4bkbNjPZqV3ttmtLhpbyYYsIgy+mgqfpvgGQ82BykXbhQ6Y+0MHTrYLFXedoii2iieRnoc6srkAjYdq71YOnVGOmK2HTI+cofstjI/zJz1zMDIBz5PYBtHNuhU3vnCP85JEzw+Bprs6srvCnS8dY3hpXjZnOm+dFniPM6EaLeGFng2HPz0SdWV3xr1NfexASDT6iNa4VMx2Gp0IOzpLr/6UZWG7jyvP2yhV6lWdRAVepgmcZnTr3D4Pdyvjh0kO1gRUSPx0rWHLkWqRzdcK34tzzL+acGC85nI4ceEIvJYfTc06MzzkxPvf8i7nnX+QGPAGzNYRGwy5cMRPPb/dnDEUDPz3vgWBzMuftan+JTou3oJMGc06MRw48EepTQh1e9qWEfalZ9ewi4PVkG0ALOBFLIqspkC1iz6pyrW67calSXYHO0vnaJWB0Z86+Og9vT1xihoABEviLgQn8f2XMwr5U5MCTHEiY0sJDUbtyMZjZjoXb/80lZt/5/FC7VHHGvD1xpJrkmZphSuc416DjoC4l1EsgczrqU2wRW7ftVsqnV6rgqjJQoRIdNNR1eIxw5KGtnIfyHA6PhIcJz3SNnFWPsMFfsHkWTVHHRVy5KMtO9VIlWpX4eGvghJOTH3PenDAjDevwDn/3DJnhqG3kINBqEBfnnn/BTvgkRmL5cvxUR1WiVSIMNAcpw9FRWqeHYBceIhcdo/2A3U10YZ4yu17/5cRFFLFhChouccm03eWxEdRhly8kyytVcE/g5hd7AhcnZeEgZmp1zAk5i/28WDsiBzy0FPFmPVCMHHjCioj77PA7xXk9BDxQGdg4SczTLzIJP9Nhk5BTyqSvi6lnTW+8D+VISUSc9lZs/2R1efnSyvc/2fAHlPBCgg346fTtCDnT5nXenRTq2B6bN5IZfgqpTuecGF+x/ZOypW+vLi+H5bPflyHbgpreiHAQMOnrgGhUyrYJ89DEPbkrZrgrfdxAqE9VFv+WkFtdXl629O28HURnl0C1OboHNEIT8D48kwHtlAGT5D+tp8yuNxU2894c9w7DCg//QhCNR7/NCw+VlzWovAzyAmWU0Ni+vPZ37614F+QrW/r2OzV73hrw+vpjC67zVJg0Ti54gxkRmOUd43InmlhCGvqb8Txr9q1Q/69m7Fd/7478tzbSt2Z22xrg996Kd9+pQdMs3xpISfyCmfl0zx7QwOg2FzwSMAOoHcJWl5Kw3V0Z6dkAy+y2NcKFMqG5WGg7AuTov1AaWJDDlZdYIsdVbfYMvRBqpF6dvjRmddHZXucp8n9A1VN0bM6J8dltn0b61qBFJhfp2YDIXSgTYqXChbLf/K+fJkfagUBoskgxZ17J4bTHY2A8fgvRsciBJ7Mvn4ncXclgi/RskLQDfk2FqvIRhH6mQxvkjM2Djh0afVZkOOUaHl04t9HbrA4JJzS2z25jbSPmSdoBvAtlQlOhlnw0Qu8pco6k0LbRbYOc98FX6UD1yoUaOU5S6Y0wy8t2hBzOfLPbPmU46Tx0JbHldyjfGkjZJGdgHn+2Awv1dOEQl1ZZ+VaoMImOvdb4b0QoP70x8F67WsGah/m9ebNNB5jWU46DhA+yT84AXnCKTMhwr7edRhmOqkpU2yrkMLzIpU1ahDjX2wRJPsURcnrweoZe8PTt9HVRCsS5ht4MnXs6clsnw9EI1bWTK5df37pK9qBTDR2iqh/hFDk9eHD2gKfwc28b1BmowaFSN07S8NS1A3ix0silTZyVi+p+t7/SQXJ68EgPgXZLv03rYrONXo5HKVFngJtcXg+BLlhIm6PbYJ+Q1js4S04THjqB4OtIJoybSL1voyRHzNOLmRQ/a5WLFhL+9XSV70hbvasAsxz0PVM+a9M28oZCHZoxZpZcblSFcFJtNBfbr1z4gcGW0TsD8AMyjjAjb6IOj8RM9/KZ1jtDtxLGl4lSPA3jmElYeh48ye52tqECr/PuJOxZogKnUpyb6bwtOGeBHK92hF9zsTfB0yXn4CBQgedXnQkDzRaiJXipV2cSZqSBB6zNRj8L27sRLYm+KvDIkJiOIqqSqa408SbRMdQN564t6VhqImYSfi4nP/pm0GR3O9tQgUdOAGmlJTfWm+3P0eQiPRu46kyCjTSai19vO23BJ56XcM4As4OThYdOI/CdvVMqZd28utSsI7d5hr4YZuShuZhJ4OETDm4Mu3hATqWfB5PY3XBL5z2F+pTlVMeevaPBcLabi50ddvGGnAo8lPDwBFYLGll4CTpTCOcKOEaciWdMw2LMJGhjpUJToVPFp2fkWHiDGdHjHh5UmAwMsw+tx0zCDxcv9v0zO/3LTsJj4aGEJ2unE+UcfErSzlKFCYyt1JmEGd1oLuY/4a5asHjpHFDPK1hID09ZjPCssRI261JC2xFr3QOH4cFUM+3ZSqrAyEqPnVOBV3txwstJD8K+VMnhdPlPfzIbJ+ntHTMPLLSU/3whx4ZNkvB4PFNuY9Y8YR+6rocmYaFtt1qhIyfhZ6b/Z3j9qs3EpvPyvLDp8WkgMA+dIuc+6aPc0nl4gLCpMHJpk2EJ6pdzbNg0O93Ivnlgqp0enunxaKVnOmuai4VYqc4QjI/OsfBIteJgMWn4VjA/xU7B4kA/QYcfHoIRmgpfbzv95s020pd482bb7LZPL9+7rhPTPHgqFzahWlH6xL/GQs4T9qVi7c86x3+yxs/hakWHYlOhgKfARC5tilzahC6BwGu6Rns9gKT1ETl4aKKfh7d2gO55513pN6m6RnuV+cxwjXfwgGusFF38gE8nIeNxaeqjfxK8THbKzsAY2GnOPOwcfUwh/0xWLm5VKzoKMk/FSoXmYr/4SfAGM2LkwBPDFOXUBkJ0jDhH85P84x5w8R+er/5J8CxMsVXmQl7z6lCeo5nRbVPx0/VqhfFM66FP/knwyNVATrml9T5CzZgOOaCYnEyj+MnhX1Dg+eSfBI/0E5Q+8a8xNk/XOcY/nmGzAMEDft7mPwkeuR2VljH21/M4R/Pj8S9Y8Dz3T4JHLgji90y5pZZ5cGdAw2hJk4N212gv8k87fgaiYGESoYf5T4JHZozZN4x5B0SuZuzwd5oVipIZvSY5iU87aPALIjxg2bjQg/6DBA/tYtxDV/rEv0ZpHsxysOAcJz+vO+mMZPoPmwqPxs/SX8TxtgwP33+RkcbmQ5vO0V9Vy79Aw7tQJjQudJUfgpfJTlme7kd7SZsHzlmOljQ5aCcn09v7G5T5L3A1C6Ojm/4heI5f0AXO1V6cUDKwsyaTnVLWL0GHh89LuOQfgmf/TB74B+Y57hzNO5OdYvwLbs1CK9hUWNd+iP4ijrQRPJglbTPDwctdco7+qkz+C3raIwhdiJ8IHgyv0NnLcluIWu8V0IQM28S/0MDD8dNZ/xA8R4ZXwLkPz2QM97sjG9DxMwRpzx3/EDz7M/48iJaqyMG/MMnnqH8IHoyNWQ+V+HoDz5yjKRL/wiSfc/WnDM/qBAioLT88k3H1ElAamLK9vb8hZPJhfls76m3utBw8C+YBuQ++Stv8Tyh5mF2zvb8BzQgiqSUUDdx/sLPrBDJ7xWxXIQjO0Yzr2g+FkZ8d/3LwTJmHyNWhKw3sHDj0rnekHUp+zcWW+QkWrskLmnM0+KPxszPHvxw8TvPAuSDkOZoZ3Zb4kdmVoch/2L/kZJr+IobtHDyenAfOffBVetCjvrjh/199A8QPX2kQphIGX9piih+CBzM2Dc0jeS7g5IBn12gv4tdcHCZ+Jv0TyIxNffPCRQ74JSfT4Sth8NXxnP4heJzORQ48CYVzTCRFIVS+ZDkcFnLzw/B0byIAzoWUHKtgWKIoHz+BzJVW9W8akCMido32bu2oD00i5OAnwdNKeHAPxTBGS8KMaVy+dx0hbFwYgnLUiF8Onop5+I6z04kcASlZCLkwyLEU/9+06pccPEY+dJfn+tS0JEcQJifTR+Nn0ZWujQvhStcgVjTa/mF4ih/NhvsgTW9yBKEoikARhVN8siZwvUN8FbXyEuocPGIeIleX6hl6QX+9GdLuGu09Gj+LKDYVSjoGZKQGj/Yx/HLwpJyHz8rOTHLMAUpA5u4g4O+QjcK/HDw06xL/nOArcgzF5GS6a7T38r3rde2HpAQJObKpUCpZ6bsMuDoOjusX4p+Qu6zylXMMNO2Hycn05XvXIcBu7ahHRKFwbSpE8RYEdem0RqxUaFwI/DA8/OMlQo36Rf7aX+HVM9IeADXBzqPxs3Xth3K1T+NClDthAbSELmRT+EtuEsIjMT4skpNpaXhsVn1K9fYMr/jY3wOZ7FTXaG/n+E8gK9AFwFs76skCt+eRJMZXaEoGww17CHhoxErRaRO4VmHm9Arsw3D2HTLZqUx2KjmZppeu0V6d5fK96xA2/w8TgegDWfLgLAAAAABJRU5ErkJggg==;" parent="1" vertex="1">
          <mxGeometry x="987.56" y="329" width="70" height="70" as="geometry" />
        </mxCell>
        <mxCell id="gHBn23wMbkpfhwxa4SyB-23" value="" style="shape=image;verticalLabelPosition=bottom;labelBackgroundColor=default;verticalAlign=top;aspect=fixed;imageAspect=0;image=data:image/png,iVBORw0KGgoAAAANSUhEUgAAAJQAAACUCAIAAAD6XpeDAAAgAElEQVR4Ae29Z3RUZ5rvq2/3rnU+nHXPmZkzc+ZM95kODgRJlZNKCYFIBue2u93OJiiHShICg1M7YBuTQRIo50w2JtmAQkkVVMqInCQUShV33s9d7y4oRGnLtmgkGJrt/yq/uxBIqt9+3viEIJjmi2VZ/u9AeoCkSAa8AB4AjAIgCMA9wAAnBlgKWBzQn7uBdbGsl6K9bhwbcLp7B+yN524ctJyvaen58MhlQ31/Yont7Z3Nr3x9ctmnxxZv+H7Rh0cFKYWitGKptkyVWR21fl/sZ0eWfnV82dcnE/ObMiotXxzq3f3T5YrWm8d67eYBut8FYwB2gDEWCPTjksC6gR4F741BEjAAGoD0umi3g/upwOsmWJaluYv/t5uRd4Nm5LvwfROGZEkMwwia+2goivE6HbjLDgzOeJwelxtnENQxgIsEGAfIj2o6M0rMq3aceuXzA/Mzq+SpJSEJBXPi85WGfLluryRtjzB5jzCpQJRcLEkpk6VVKQyVCkOlTFcu1ZZJNKV+PfXe5rkrt4kSdskTdygTvotM2rQwfdvzGbve+axQn30g5wfbqX77RSfYuacKA8TS4XG73HaOKEWStMvLcIDv/lIMd929n6nWQ4PHAItMjMWBdgPpBBpjgEUPOOHBKPqGiz7ePfRFddurf6sTJec/9UG2fO1JSeaJYM2R2amHnk09Mld/XLyuUfqxUaLLQ9LmS7TFMl25wlCtyqwLy9ynMFTK9RUT4Ykz6uRrGhRZ9fLMGqm2QpxeIteVhmVWhhkqZKn5oSu2znnry/D4zR9s2rfr5OUTV8GFUzSgn3UMXU6aw+kk7+HzsEzw4cBjWdZJ0iyC5ybsVxnPLQAKA7jiZns9UNlyIXlr7XxttlJTpMw6LFn3Y/Can8L0tWpDXWRGXVRmffSaunmZtxW2vjpsfbXqwxrlumrF2hpZZo00o0ZiqJbpyv1SGCpVmdVha2rUWbVzU4pD0soFmkqBpjI4vSpEUy0w1IkzDzyVUBGsqZNnHpQZ6gRJRSGrs4Vx2YrkPRlbSwuOGM/bGQ+HbWh4zGEfA2C8Xi9N0+MZsixLkvdSHf/H09CeaXjsnQv3DSSkk8LtLFCjFPzQPfBVbeP/fv3T2at3qjKrlWvqQ9OqZiVVivSHwz8+q9Tmq3QF4fqCcEOeWpOtSNouWb1JuOLruZqCYE1xqK5UoC8TGiqFhkqBHkmZgXpOn+WJ00tEacU+qfWlan25Sl+u0JbLNBUSTYVYWynV14oz9ssz9yuzDioyG2S6Kml6uVxTptRVLPiwas5bXyre/9vnJScvu9DgByxOj13zkWNZlmEYPxcMw/ztGWg8BHi+EYIGQHMUbrZivuH9vOKnVzYUzdPvif7OJtpw6pm0+tmp1fLMg5HrDin1NYLEwuB1+4LX7Qtdu0+wrkG8fr/s4wNhnx4O/9v3Il2FWF8pMVTJMmsUWXXKtfU++bpN34A3Hl5EemG4pjAsLV+VUiBPyZclF8hSC2WphcEJuaFJe8UpBXJNieo23VJpWtFTCWViXZ04pSDk7c+fS/1qZ+WRa8Oj3M9+mw5BEBRF+W4CbHG6+T00eJTXRTBwE4P9NntS9o/SpNxnV+4WpJX9Ib5aqD8c8fGP0Z+cVGUdlOmqVIaayHX1sg3HRR8eDc48OEvX8Iym4Wntvmd0+2cZDsoMNTJDjVRfLdFVSXRVYl2FT/55ilRbJtOVy/UVyowqVWa1SlOuTC9TpJUq08tU2tJwXXmEviJCXxG7oTZybYVcWyBM2RualCtIzRdrimT60qj1B4WppVJt5fyP90do86UrP//g69Iy4+WxsTHfRJphGIIImMFMN7Xb//7DgYeeUBrHcKbm9LnnMgv/882tAv2+iM9OizIPL97w/bw1+5XaaklapSS9SqyvkWTWS9c0RGvKozTl0dqqKF1VhK4mXFcbpq8P09crDfUKfZ1cVyvTVcl0VXJ9lcJQrTBUj5+tiNNL7krXINLUCNOrRakVkrRyWTqSPLVElJIj0eTJdAVSXZFQUxSqKQ7Rlgn0FeGJuxSJuaLkQqG2QphRK8qoFulLROn5Vqt1dHTU9ykyDOMD+dhZHo5maC4AJxoaKBYbAdoBQI4CbDncHqYvfEbTINhwVrDmB4WmamlWVbimUK0vDV9Tr8raLzLsm5teKzTsV67/IURbp/7oWEhKWeSHB9SZ9ZFrD85ZVRSZdViZUavMqFUYanyS66t9kmnLeCXVFPNKll7Mq7tfnFYk9ymlUJ5SKEjYbig+PQIw4hwGcDDkkJscm9ERD2D6LY/ysAAuBnD0lFIUNgyAUwCFTVdWbjskTS8QZu5XfnpWmvW9TFMdnVkdnFomy9inWHdIknlAknlAse6QPHN/aHqFYt0hWdaBmE+PzU0oUOiqlfq62E+OCZMq+MnpqnjJybRld2HcS5GXnCx9HOl74YUk5ixZk5/7fauTZknSSWBDACTOPmazTYakaNZFo7kJyxA04aQArjqxpZ/tVxlKRWnFqqyGiI+OyDP3S3R1yjUHRB8eE2YdERr2haaWBifsDVm9Sxy3U5G0+9lVuU+vyF7w6VFlBuohhclliz47IUop57E5rv+cbngiTYVg5bblmu+a+25hNGBeJ1rFo0nYzF3Tb3ksSZA0waJJNoG7ACg3QMXZjmc0DcG6OpmhRp1RjRbIukpxRoN07dGoz0/OSsgLWb3j/W3Hdv14pcx4c++Jnu37W/+6+YeYzJI5K7bP27Bfqq1UZdYJkorD1zQE9pY+ctNveRL9PllKqeTdjSnfVNgB3BgNDMnt5z1W8NDDyK1mGcw9QgFcJuCDb8ueMRwTZB1TrTsQZqhQaYsV+gpxRkNI5n7BBxvf+qpm76n+7lFwA+ps0XKCgR4S8ptuRqftFMbvlOvK5310ePbqAnVWw91B7g42qbZSqq2cbsuTauolKWWS1dnStz8vOdVvp4AiSKBndNSbAcu7s4ZlCdJjxwEaByhp/NfBhiOSNUeUWQfVWfXqNTVha+rE+qq5aeVvf7j1aOcNN8fbNTaEOYeB8pCYEwMYpKGs5erizDy1vnRuQoFUXysz1N2entxLbgbghWmrZq/MlSYXKZNyFyRsuuRBDyjjHZs5u5uJCQvasAS0bcl6gXF7AKo7R59e8Z1KV6PQ1coMDbIsNCtRZNXLMiqluiLjheEbHtpDkG77IOB27lSBGnU6KMd1gsLHALYe7QvX5P3m7a0RnxwL0dTK9dW+RQLaFuFsTqqtlGgqptvyItLyhXHZwpTCyKyaP7yy9kDHIJqR0Z7HDR5NUjTuQfDAO+il97Rcn5WUu2RNZYS+QqKrE2YcEq49JMmsD8uqmLeubATATgLF0KjLpL1O16iT5D4S6ho5hiyyZRiUybtCUotjvvjxqYRSXnIzAE++alOUvjg4Ye+c+D2KlF0fl55wIm6P12yTAhKNWhRgwBC0AyjYWdfxW22ZQlMTsW6f0FAuytr3bGLVgg3H5r75xebj5yiKoRnUBVG3RTLoQM2LA6CdQ4YmAJK/Lp2Xni9OKZJrH9ySIK1Iyid5Sj6vxIm7Vam5Ybqi0OQCcVrhIn32TTSf/seAF6avV2XWhmhLFB8dCklvmPfhUcmqbQVWO7DoNBbDMIfDgZMEOnkACidcdpcXfTQsNeAgdxy0zTeUhsTnK3TVD6x75CMnTSviJSdPyffBU2kLQ5LyRakFsdpd17F/GHjhmQcVhuoQbUn4p0eFun3qjEOyxJw9FgfQXqBxYAjuzJo79eMO/pAdsjiw1E0383WdRZFaEJxYGLl2/8OCJ0nKVqbkKDUFIUn5wpT8mLTtl13/MPDUGQdUa+vFhlLVhgMibYNcuz941W5NlRWApAk3S3jQsolmWJxmCc4xgsXdIzcpgnQAvLq+JDguT6ytVuprHhY8WUquIjlbkZ7vgxeVvOW8nUGP3Qxe075UmGzMk2rqIzYcUKxFRzli3T5l5uHZq/ZEfViGAeAMGt5Itxu8GFDc8p4BwuvwOu1uCjrGQBq/IyS1UpV1MDSh4GHBk6fukSftlqflhSYXCFPyIxK/OzdC/aPAC02piVh/ULWuUqIvlxsORHx4QpBW8WzCrtwj5vNu5L3CAngcY0DTwALmwTEKWeA1DyTv+F6QVBSs3Re29pAyrfhhwVOk7ZUl7pKl7kWeTqkFt+EFerdMrxk+NMsTafaHrd0nX1Mm0ZcrMg7KM45KMg/MSimMTN21/cTFm4CmmARFMjTGMrgXc7gBbhKwtaFFHr99TlpNSOZRsbY2ds2D20mZ4oRFkbZXmrBTmrJHmFokSS+KSPyuf5T+R5ltKtccVWTVi/XowFOm3z83qU6ScVCUWSNKLVqyrvzT0h/bLg5yu7w4STsIaqzl/PD63ZXi13WLPt43W3dI+mnTM6sLI9MfWrepTM/zwUMOhpriyKTNjyU8Cm1QonUeEIwdrfPqLb/VFikNt89RfUepcl2tT2FZBRJttkSbHfNJ2Z93H1tVZlxR2vjm3hNyfQWvpJrSSTTuNGf86c8ULUyWnMevlNzxY97tCctj121ODZ40vVyUWhTKLZ7kumKFvkSiyQtNzva7ggU0JiFXOtm5He9K/GfWc/zkkvNkT+Ap9HUBlqfOOByx5vvIrKPhmYcV2nppWo00vUqmuceVbzy/J/CmcVJEwdQsT5RSK9PsUxkOqTIOKvQNch3qXdVr9o8HNr79BN4jBE+srUTSVYi05SJtqSC9MCQ1Pzh1j1Rbxq8nY9700Zuq5UVsqA9bV6NYU6nIKleuLVNklUoMBQLNE3g8iGZgnTe1bhN52GnLBZoykb5MklEhySgT6YsE2gJ/pEhA40m3yUP1Qb01VcsTaesl+n1Sw36poUGsrxHpqkW6SpGuMoCZ//YJPB5SPqf0O5EFt/+PThu9GEOQwLBo/4rlDnC4BncOSU58JSku4I4l0UEBwI0xYnf9T8sSPpGko42JiRIn5fBKlLR7qorILBEnZEuTchWpBfK0osiMGlEC/+Ec5/fOv55TJO9RJO+RJ+X6JEvM8UmelCNP3KVM2RuSmCdMyotK3HxxmAYCu+1CRtMMjdG0m6ExzosAKHDyyufeQwGJA44DifYlGM5vh4dJ4FuTdpvjsY3/Sz5SLABFo291B6L/7DSwgXOnOugnYtBBJQ5wbpSpb73c2DfIq6a+gUl0ralvCtrf5ajucCXvPRNtKBEl5wsS85WaElnCnsnO5yZbz00ZHsOFhXIfAwsMjcQB8v1v4uvtrydp8NLgRcGdDIk+3F9xTQpvsr9LkCxOMAR5J+L1Dkzk48AnjAWSBYrEKa+TJTGW4zeG/hbFLwYDXrFe5Ejx6wUoKOu7fSZ12p7gxIKQpCJlWnFE2vRbHufzxmFDAAnu98UAGIrlFTqIoHCGJmmaZJHZegEcACOTff7j358yvHs/cRJoAggX7bFz1n47JHl8mwtqZtCOLeMF2gU4Qgh3nkeeB5FF1jxRdx4SX2/9y68w1g8Utqn8mHjl5uDkUpGmSpFaFJWSM92WRwPOonMsbkzhPDl8/Fjw8IqmSYZBZyfIArmxiMPtGN/zjW/fDzz/3wfKiXykKDcQDsY7xuBOzjuBBMLFK4ZhKBLnDse9iB/uAK8dKA/yMuYTcmDh00ScP/8O4NeAJbfX/qRI2BGaWi5Mr5Qm5asTdk43PIo7zEIOnLSTC3NH4QwAw5M+bshS0YDCskCzaFhxs+DgIlf8n/n4xtTg+eIHGYbxBe8ypAe4s21fgK8HwMGiOPzJLAPjIvC83ONEcN2Iz7No/A9xT3uy7pRl0OzoV4umSTsNG2uaw1Jzfd2mIrVInbJ3uuHRLEo9gI/aqKHDMFIJ9kqw1zL2BmyEX4zjFLgbAbMAeR7YERbNXBBP34Rx4uv4z+oXuk0fOZqmKYoiuQvRArjgZIzXvUd6xwqN17852re+xvJVjYlX39Y2baxp/qKq6bPyM59VNn1RY/yyuvnzysZtNT/yamvlMV5tKT8+JW09aP3ucPdfvqqXJWaHxOcKEvPDDRVhqYXTDY+lAXdccF0rdPWnYedepftfIfveInpXefqe4xXenUD2JlEXdOz1z2G0BPAWgFHq74TnM1WfwfnIEdxVZ+zfWHnirx/lhK3+POSDr+bE73gmfu/v4/KCUyp4JYvfEpaarUzPEyVmhybmSNLyJWn5woTds5MKeTUnqYBXz8YVTElPvfO1ODk7eMU2cUK2IhWFv4brq0JW5U43PDTR93YRN770nFtAdP2O6fot2xlCtSuhXc0viwwsEsYiITvm4+dWYNd2YKNnMPfViTbne+dey2MZYFg0ZqL/o96Pm27c3hYBBlw4O8iAyQNfnOqL/DhPoK8UGqpEGdXizBrJmlrZ2nr5ugb5ugZxZg2vxh8ayLQ1Pkk1t5fevgX4+NepLrpl2hK/fMdAvrXjVCH5V3IBDf/CLqAhTs4Wx22XJeaI4/OlSfkRq789N0QCSxBAIG/hwVxvnxw650H3K2xvNNkXC52LeUV3zecVjBwCFw0Y0MiT5xINDBoZ3ePZQRBaaNNoPLvzNsMyODAoe43H6/CgoRbKm64tW1MQumJbzEcHUGgoR84HT5pVJ1tbL1tbz0tOnFkzY/D8B3iPBzyy/yP6egE4eoBzQabRusPL7YncAYViFVigaZalfXMBiiE9lHeMJVweZsADlHHQkbT7kDRutzylWp1+ZO57ldIMlCtDllkbIN/7E18VhhreQB5/8HhA4/4sL4CcJH1SZ9nJFuMBBue/DTA4/+3ULW8hdPKI7ZzPK495saM7Br/+Gbi9gAHBsB64RqAsTXevIOTRyqC4R7SAYzDSYycxFCfoADhgO/fmpsrZ8dnPJFUp1/4U8+GZSO0R+Zo6+Zo6Hzk/Komh2t8OaEw7vHHhyL5TcklqoWTqExM/rYCGn1ZAY7rhsRYJZnsa618OAw3gYmkSvEC47+03g5DJoWm+bx1N0BRGcvm3Koy33vi8dvbKbOUnpyK/sTyTXP3sqj2LNtQp19QrMusUmXXyjFp/JgapvtrXnvjKxfajOH+5vkqmq/RJqq3gP5xDYcdT80lRpBcr0otvR4unFfnycsgeQXhdC4BXnfOBX1HQEU12RrjOvUINlgKBtsxcd60OtYJwXziAz/K4zeMBAtoHPPN1deGaOrnhoGzdcdm6H9AIp81XanN95P5+eP5ZRkBjqvD82OTjyEm5HCu8c5aH1m12xQCv+MnNh65lYHudNofbrf/pufwmuHuA9O3c3AUYhGPIqxW4NG40gBPgWM/Q+qIf5JmHgpMqQ5PKVRkNEVn75NpKlaFmwaffqzLrfAkYAtIw+GPDJzRQDjCf/O4LKDfKuFni+PZU4SlSi3ySc0ka5CmFKC9OMkqQw6tHDl7HfOBV5zLoeI61qDHLbG9PNHXzM/B0o1nLuCuIorhtfxLDvG4C4DoFmw+aZO9/LFi3X/3J4ZiP9kXqisNSCsK1NeEZRxWGE+PJjW9PYHY7t4YvE9F0wwsg9xjAo7uX0B1SsCmhfTluixnpjfbc+g7uzW0WNAzgJBxAjzKMZxRg99mh0MRC1Yc/yDNqeTUZpABDvDvDnGI+FP+8MaDhT7Xh9927v4nJZEc8AfORX7wVpOQEr94iiNsWkrBTmJytWv1lzzAGQBHgBRyogWxvrwQ6IqDjBegMp7vmTTKwzQdbDL86noP2hWCOAqucMsk8lmX0xY/B2cAyOEaiLUkMhoPGAFy4E8Dl8oz12OHt746gmcjaw7zk5OPS1QRQfFD5UAKY+W8fNXjC5JyQuK3C+O0hCTsFSbvVcV89WHhsZyxYY8EaA7ZI1qr0WmKx3nj22tdA2XESbV5jMBbkQb0mOq+xY2TOD7bQ1VsVH+4TZx2cKjw/y7s2d1/5UPy0AhqPGjxRSq4wfrs4cacgYaeIg9c7hAFLPijLw7vDqfYYsC2GjljoiCSsYS7rEnfHXwA/R+HgRUmJsCAvRgHLYBhxzQsvZO0JTtojXFMnXttwf/ACyU09H0oAM//towZPkpwrTdgpT9qN4CXsiojb2DeMA008KHjeHiXeEc22L4GOpdAZBR0yzCJxmuTgPMp6XRSCxwYRGAkseGg4ZBuc/faXyg2HBFloD2yq8CZiu798KH5aAY1HDZ4oMVuWuEuZnC2I2yFK2BWV8M2FUeoBwsN75ETnPLp9KbQvgs5w6JKwHULCJGBufQOucyyDJp5BLEO5PcQIBdqcYyFJhfKPToV9dFycXnZ/8CbmZphq/FwAM//towZPGLcLOSAlZwtXbZfE71qQ9N2VMeSn86Asj+4MYzoWsO1LKMs86FBCjxy6wlhLBFrz2Y+DDx4A4yGZ0723lmYVKNZ+P9fwQ/j6Y+Hp5fcBbyK5+0ip4acV0Hjk4K3aIUvYqUrKFqzcJo7buSh5y3UX8lR5UPAYczjYFoFtEWVVk+0StlMFtkVM60v2HiEzVAjcRnUQwx3dbq8/HZtZLF177Kn0I1Ldwfn6qqnC4yX3GMMTrNwuj78NTxq3a3HKVpQk5sHBg5ZIsC6CzkVUu5KwiiibmjY/jze+OWT7N3JgM1AoK34QsPZhgMXrS55OLpdtOC7JrBfrysSGu9n0/NNIX2Pq6zn+vUq/JQU0/Mu4gAbvdsnP+FsG7C/7b39xARfwBYqk3Yqk3fJE1EnKE3fJEnb6pFj5lTxxR3hW9X+8tUWetPudj/eMkSgbxCiMIledq1UuSyTTHwL9r1DW19EeymTrOVs08Ko9CtqjwBoJ1kjWEuEXtC2wt88BrxMjrwexrLNzBJtnyHs2tVK87qg4o06WUSnJqAhg5r+d+nruvzy8ieSk8TtU8d+FvP/N7FU75sbnPP2XjzfVNaOU55jLAW5gXHClwG2OpPtCof95qv1lNF18UPBao8csc8FxCcNvBNFA1bedU6bunqutFa05KNbXqNbWSg2TwvNTDJxeTrqT8l8bHi85afyOsMRtwe99Pev9zWpd4e+Xp53osxMAmHMUR0feN+DSNo85nO4WQO9ixvYcdEY+MHhGtcMcCsMnae+NIAxgY9UpcXK2KOOA0LBfrK2MWFePgvzvJP7lbQSS+7n13OMAz99bSuN3+CRL2C6J2xqenquM2xSz+rPuW2gQYrxjyCPBbYULHxLWcMomYbpjWHRuEP7A4LXK3WYFXN8NnutBowBJW6olafnSrMMiwz6Zrio8q1air+RlNtnJ6s+mSPyvDW8iNkncdkncdmnCTknc1vm6Pc++mLax7Pg1LoU2StnIAj1ykO7/AGzhjDWM6YyErmi0yfmgus02OWmOwS6lgPdGUD8OL3+4V6YtE2celmUcUOmrFfqKX4Q3cW45+XrucYDnNzgfOUncdlFidsj73yg++Fz+Z631mgv58TMk6bgFDHhv7CL7FkFXJFiiGVsE9M4D64ObsJhkrPk5Z+9CcF0JOnODiErdpjDUBGsaFBkHwzPrpGklk5mdz/ImkvvZJcF/eXgTyYlXbwuO3y1YsUn6zsfrcxrsvhRphIdzBqfHLq0n+sTQGwGWJWxHNPTFgGnJg7M8KbS9fKv9aXD2Bx3stctWfyMz1D2bXK3KOBi9pkGUXKjKrJuMHy+5xxgeLznx6m3PrtypSM6Ojv+q+YrXwZ2RUm5ukUBgo+fT8d6n4VwkWJYhZufmg4lr8PecU1wqtEqg5dUbpv8BYz1BRUanfOWW6DV1Ev2+EC2KapRpKtXasqmv5/jzngQs4/y3Cm2pXFMi15Sg9PdpRZLUQnFKgSg5X6HPketyZdocafpeiSZPkl4g0RZLdSXK5Hx+Je1R8sm/sPuVDUlCkTg+XxiXK1i9UxC3TZy0VZ6+TandEbo6L3T1HlF8jjwhW7p6q+j9jdIVG8MTNj31xueyN7YUNliRBzl9g3IBxcAQycA1A5xfiXe+hNtiuAEvBmyxYI7lX8zZotFijle+xZ//j7gFH1r2mSNJ82xP12L22q6g3aeHZSu3RWXWSvT1Qh2CJ9dWhekQPL/x3TO3nHRJMDV4PnJ+eD5+ktRCWcJONDtPykGnpkl5iqQ85NaQVCRNQr6tExWwpvbfihOypyRlYo4qKTcsOScsebcqebs84TtJ3EbRqi8Vq7aK398sfHeTaMUW4artIau2CeN3SpJzBa9+lX385AAMeQkUeMNSToK+iTatzq+kut/wti/2tkfSHRHIb8UWC5aFfxc8PzlrJLRFEqZZro4F9OXNQX87eEm6emd4Zo3M0CDJPCA1NCh0VSrN3aXCPeR+bklw//D85ihLL45MK4xMK4xKL4pKL4lMKw1PKVYlFCnjC31eYjyvqQUKPslS86ek0He+QFa18ltF3GZVwlaflPFbYpK2K1d8LX1voyxumyo1V5KcO2vl9t+/s2lneeNF7KITrrpYoLnQIK+rCegf8c6XMNsStznSa1XRHeEcvEVgXjRleH6bu3efBVqjCNMsT3s0de6zoPSyDlH87rDMaqm+Vpl1EL3qq+WaMp/ZBZJ7cPD8wPwm6GtIEvdIk/ZKEvNkCZzi9sqQ8kXJ/JIk7uGVMCFnSorQ5ao1ucrU3bLEXZL4HZL4XdKEbFliTuh7m8NT98QaCpVxm//wcuacP2e9/lnp3/bbWMBdhGcU7C5woXhtDMDV7rz6Pm6L8bYjcmR7GNsZgTze2xcy5qlbng/eHZu7uz3WGk2aZ+M2NdWtD3prV7MoOV+VUSXRV6rX7RdpKlSZtTJt2URs93c+54f08w0/wpD0guC0/JDUfEHqXlFqnkxTqNSXhBvKFOmF/ErNU/BJmbJ3SpoTvwMpbtfc+JzghNyQxLzQpHxBUpEgpeSZ97f/4fVPg19fszTpb59kVzb2XEI53Lms5Tjyt/PYnRRyqRw+6LJF0x0RnMI5cmhXjLUsoE3zp2x5d7D59zYZczg6amhbwFqDmQ4ldCQELfv6pERTqjCgdAsR6+qFqUWqzGrpHXgT55aTrzTBtbQAACAASURBVOem1m0G7Dv7byVZZaLMEqE+X5S+V5iaI0zZJUraKUnahVLs8Sp+m5RXq7dKpyJB/C5RYrYkGXWM4qSc0Lidc1Zsffa974QJaEkQm759Q/7hM91X3ch/CwdmDB9GWyk0uFD5NZqEW+X2lteg8y1kanc1H9rnsdYYxjLvvuH5bM5HDsEzLoL2EOiUQ/vbQfM+OyrLqJYaKkRpxeHrakKS8sPW1Ih1yPImkvvZJcF9wvPNM31TTRT5n5QtScmRp+5BudOTd6sTtoet3qxcuUmRuI1XyoTveBW2etOUFL56i2rFJum7Xwj++tHcP6+Z/Zp+1p80s/6kWf23vVtrT5uveZy+AHPSQ3hHgHGwLOCkxz52i4sMOINdfH3k9Bzo+BO0L0AzFNsi5PtljUXkbPPQao/36OBnZpvjDhP85BhzON3MwesQgenVIPVHKPxAaqgQpOaHZ1XPTcz1weMl98Dh+VcIwqQ8QeJeQeJedWLuAm3hy+ur3/3qUOLWE9qdP+p2nNTvOBmffYpfu47F8ylh+w9Tknbzfu3m/fqtDR/lfb/zUOt+23XLGFzmEjmgEg80g9MMwdA4Q1AogpzCYWTMV/uJOXvevNhpU8KNZdA0G60KLAvBspi1LGLMC1hrDCLXNWV4/kGOtUT44dEmNdkYy1qDoT0UjMuDZNoyhb5CaaiU68rRUKcrV+grFPopVwQJOPj23yrTKqPX7VcayufE7xCm5qoyKuSaCkFCUbT2oCChKDgtX5RRMSc+b9abX7/2UfbWgydbuuieSzA4CrgvLzhKEz4G9BBPjgFfUPrEnAT3986dOg7IOWS84BYXC8yFjTPAMBTFOCl2BEWPey7BzV3Q9w60z2ctasaqpm3q+7Aw36FdwCtrCveLaVMzbWq6NQzJFMqYxaxZxbZF3oWn0FfIdeU+eD6QvMObn8qvbIgSCoPj9qgyKqI/qpNoiwUphUp9tUJTpdTsEyflzf3gy+j0rZ+UtVoHUV5pLnFCBwX9DNwkwYHRuAcHjEAF93DWySsCZS/mEQ43eEXCAK8oGOSVl3URDE2jKEYOKgqgBBYDevA4eS2bOp9Idy5lrdFgiYb2+bTt/se2Xw1PyJikjEmJ4PnsTGmo9OlnbM7H8lcy839ZuK48eNVuqaZUmVXzTPzeucmFEVkNCm3lnFU58oTvUraXn+m5gTJfEMA6nUCMAsPlZwGUVMYDTgeMOdCra7wxjG/fn5lN/FuTJUSgSC5xNPctGWwQd7U5R+tHb+XZe9919jzv7VBzIctRYF3E2haR6MR8kh5y/LptfHvcrHI8P7/ZsabweyyvTcKY5EwbZ3nqNTVKQ6VCX6HKqFJlVMl15b5QD16z+5nKj35aAY1IXbFaXy5MLXkmvmBuSikK8UrNF6zc/tKHBbknbTcJrsaXi0S1LQkGKA/hZSiCvV09ihtyKEBpeICy8wujYEryksArF4N+hgliPdfA0886m+jRavzWF45r7w5fnDfQH0r0RBDdcsomgnYVWBeC5TmmPZbomPZuk21V0K1KpjWCbYsOil6/T5WBKvKoMqrCMlF1F0l6yWTk7gOecNX26KwqYWrp3OTy6I+PSJP2hrz1t5c/zD9zbnDU56xN4+QY7nOHQj2nr44CiwN1BSW4cJ6C0YMwVEeNrOcVO7iRV+T1z3mFXfmUV/ilz3mF3XzTe+0N7PKf8f5XiN7nqa5FTGc0WsP1LELTkPZwMMeAeRlYn2NsUXSXZLotjzUqWWMY0xrFmGKCFn52BG2vaEp9xifVlErSS36m8wwwrF+8laVkqwylsxOKQlMrwzPrQt/64lXD1u9tN1kADHdh7iEuIhe8BAx4RgeoAZbBCeyS237YOfiN58Zq8voyuKaGa2K8/zleUeejeEX2R/IK61XzCu8O4xXRuQi3xeLWBaQ5hjHFgGU+WgO0x4LtNbAuY83zmbb5jGkpY13KdkSy3eLphse0KFhjONuGjpmClm08EZ5VK04rluvKlYZKSXqJJL3EZ4u89veLtAK+ICqrRJRaEJxcGpJYJvhgx8uG3dUnzTgA4ya4jE3k0NCQc8zBzeh6gP6BHovDbr3puPyco3+epy+K7o2FnuXQ9RLT8yqvoHsRv3oWA68m+3reyMeuGLC+y1rfYCwv0ZYlaGLSrgKbFGwSsL4C1oWUVU1Z1Ux7LPJLty0AW9h0w2Nb5AheayyYlwe98O2P4Vm1otQin/GJ04ol6SXqNVOu0RPAzH8rSt09a9UuVH1E1yBbufPbqhZUepslgALSQxEkzSUP8bKjrd7+zURPKpx7BfqWoTOw8zFweRFcWA59r9Adr7EXY3kFvS/xiu5Yxiumczmv2M5YXuGdIURXKNUjpXuUdHck3TWf6lhCti8F21KmM4LqEVM9UuiOBttSsC5mTQumGx7TLGON4dC2ECwvB22otvzxza+Qx1/WPrmuVJmeJ9cWhaaV+D/9gMZkW5QBX+a/XZCxfU78nuD0wyHv5Gk+rxy6harjusFOoCqi3ESOBGLsEHYzkb0cC5ci4MLzSOeXI/Uv+xVaDueW3Vbfc3BHbPdSXjHdC3g15fi5qc4qJzmfm2xWCUYlv5rCoXXZWNv/hAvbgr4+3Dfn3W+kGTWSzHqppliRtlepLxFpy/2ffkBjqvDUqTtFqUXBSZURyXnVp/owjAA0wOEESnVHMvgV0rkPG8zCr7xGX1gM/c9NGZ6f3Llld8n18pNju5fykmO6F8wovHHLgynDa1GBaZm97Z/gUk5Q7umrolWbJYZqgaFOlFYsT8tTGUrl+ooAZv7bqcITx+crdVUhK3eu+LZ2CE0vKQ/yj2MYCkjvOdy+CRt4nbo6n7m4iLnwItn/6v3D42yO7V16W91LWD49NHgT1na3N8Am2UnhNztkjhIwLR5p+xe4UhpU0XpTGbdJpC0P0dUINWWK9HyVAR0y+GkFNCaFN0mZF1FyjUpTLl/xed7JNg/KjIWN2W+hhEsUUM5D2M23qYsiuKCCiy/Bpde9F1+6T3gB5JDlPZLw7tjc3a3LqcJrDYXWhbda/w9cPxR0uONWRPw34vSSYF2dSFcp1xap9cVy3aTlXCaDNz6lxvi2UHtElrDnRc3XFxweL+AU6yFwF0t5wdtED31HXnwZeqLRjOP8B3DpdffFmCnD8w9yd2yO6VnC9Cxhexbx6qFZ3h1sAedzU+42m2eDcdFA2x9goCnIeMW9KG2zRFOK4BlqFbpilbZQri0KMDj/7WTw/NlrAhpz9QcF73+7fkc5ATDiHCZYDKU/owfZ4fX01QSq9y/Q9Rp0vwPn3mXPv+jtj7o/eL6u0oftEYcXcD43ZXhnZ4Nx+aBVBCO9QVc98Kd1uQp9WbCuTqivkWqKlZoCpabATyugMRk8fzKNgMbvNZXiFV/sP2UFFnCc9FIYqqXt7oDLS5jzL9N9b9Dn/sxceJ69uIg99xzbM+Vu8+4g17vUh43uXkx3L2Z7Ynn1EC3P31X6j3gY892jg4A9zEnHvNMhYHptuCsaXMNBToD3Pi9Wr6kK1tWF6msl6UUPFt5/pObJ4r7ovjzCuhlgYAyVuR8aufEDnBfD+SXMxb8QV5djN+TkVRGaavasnqrl+eH5ze7RhOcnF3A+N2XLOy0Ey5uOvqXg9QQBeDcU/hCsqftf75YsWntwQcpuacJuYeb+ySzM768Q0Jgsfm7Oyi/e/7j+5hAwyGmA22l2tcDg27dXcr713PjXydZ2d8Y26HtufCc52cSE1+zYnthpXxKMG9t+zSnBZBbGtijG/xHbomCa5XSTDH5c4DE+i93IBxKCWNZd1nTxd+9lP51UF2WomZ+SHa4pDNXVPyh44pRtyd98b0dZPr0+ePTwYfzKC0/g+Q5XxxMa354cntJjEuCDZQgehdt7XPC7NzaKdQ3y1JLotLx5a6rmplU+KHjytLyMXSc5bl4WGIpyeQf2ei/GPIF3n/BOz8E6YqjRI0BBEEOMjQHEaHaLUoskyfkR2qKoNdXBycUPCp4kqXjd3uNc+XBUTgGYa9itjfTVqCfw7g+e9+xTRP/74G4FGsWkezwAG0pOClZ9J07LVxrKZemlohQUQsCrgKHOfzvZmBeyuuyjkuMEUCg5EDqu7vYOrIUr0U/g3R88R6uEvb4FyKsMi+B5XTh1tOumOukbqa5ApKsQppYo0kp5yfmCQvzAxjcmgxe8suqLmuMEuGkMzTYZyui8nAgXFzyBd3/wxmwvwfBZYHGcdQcB4yEo/LwDf+2zPTJDwazUUrG2MkzzwODNer96477vCbS2YwGlCDo7dn4lnFv6BN79wXP2asDpAQY87NUgVB8GyAGSTstpEOvzf59cqMpqiOAir3iNb7y1jW9PZnlPvV2xcf9BAkYIB+dlhHPw+l96Au/+4LkvfIH87Ghwsn0oQTgwJE6DZRj+3wV6+ScnBemlEcnbfMEDPn7++Dnx5Ol/feFYE1+ffr/w85ozOLhQinmMAtw5di0SOv46+UHd1M7nJl3PdceCT/7Mzr6EwPwRjjEP6hAVrFFIlsjbMkeAT60q8OnOQR3bokDrgRblJIqgTLKx1kisNRSM/w4/LoTTf3J1/SvDUH4FeUmU152miGsYLF5XMiu5JDi1RJ66Z7xVjW9PZmETsfnemTK8KZ7PPYrwJpBjTeG3ybWq/Iu5X4BnjMDOLPaYRNARCmcWwgklbY5kLmzwk2MYKsiFXIEZlvDgAEWnzwvidgSnlkgy6315ZCWphePJ/Uwx+AcPL+CUZ5IjnkcOHh+5+4HXssh7OoJunQPtkXB6ufvHua7et8Fx6x54KLaMO2UDlrrqoFd+Uy1IzhNkHfQz81P8+bTADxheALnJz+ceUXh3ekv/1uVULY9qXUy2/hYaZXBmMWv8w5glyn31MNDAsqiEiU9Bt8vQ0DiwaCW933g+LGXnHxOKAkY7X2yjMClv2rvNO3uYATvOvIdz3Jv8pwe3B7zu2LvVDGZmzJuAzefvPFV4mGUWmOfA6Qji1Bxn+2/dV9bRbieKwL1DjmVplG/zdv0nVLiOHMOY1V+VhK7ePt7y/PFXMwZv/Nbzz5/PPXKWx8HzG5yPHNOmnio83Pb/QdPzcDbMZfz30b7VuMuIyiJy00uuUhcqEoqWCsj/ldvuBwoDljpmPp+wpUGYlOezNnFKgTilwNdnzsCY5zc49tedzz2C8CaSo1vDpgqPMM6FM/OgVUSce8V76zSB3H9wrsTl3dquQUA6aK48pptFSeuA8RIA1U3ng+NyuJqBe0XJ+ShJQ3qxXFOC8m9MUmziQY15fni/8nzuUYPHS+4+4FGn3qaa/wdYRXCliqWcyP2HBBQWiAr03dbdypX+aoe+Intbjje++lHu3Dc2i1ftC9OcCl1VHBq3af66zSJtuVBTIuJ8c6VcBRhxQq5o1e7JoIpX5nxTfpwFO3pqSAe4rw5fDYNLyX5IgY2pzir9y7iARs886AmHnjDongddz0HXMro7iuiRsB0xvBoXizw+LhkFtfKKsczjFW2N4RWgJd294hZ8LrMKMyvpNgW0SOGsFM4qoSkSWmKutT3t6EuDIQuKn0LbGzjK1HN7hnK7qsmk8AYANtWdiVy5SfROTpT+QKShXpiyKyT+69Ck3OD43XNW7wyN2y1JzFGl5kWkF0ZqilSpe3klXJ2/seJHGpwoYpHFgRwYvapiO98LZHbHfWjKh6sBzO7cMrYoxqqkrRLWKof2COiYBx1qVCOkPZxXrFXJK+Tfzie6TcErqlnKK7opnGpUU41q8mwYcUZFnFHhp5X4aSV5VgxNSmieB80x0BTONgmJlqe8xv+grmXB0H7weNCeIoLnplFC93HFaFCm2ztXgOU5acYBsK/10vOarf/5YqY0NTdyfc2shJywjBKVtlCWuleWvEeWvEeRvEeekCOLz5YmoCP4iRIklW6sNeKoChWgMZUeHrumpM1/nm54KLbf+irKG2VaAtalYHserC+AeTl65ZVpKfDKsgxloZqotkXAq5aFwCurEiwKJJMM2qRsq4QxiukWEZx9Cc5EwJnf42f+h6vpf3vbIujuBDi/EfDzQKAimCyXTpqCMQZcvxYeYKibdQGc6LucuL0s+O0Nv3/7a1VmnVxbJNcWyTSFvuRFspRiYXxe8MocUeJeXj27Yu+XtS0YMAwBXo8LiAHnjTDofGva4Z1bCp1LaOsCsj2CtilYmwJtUxljbm9W3ZnQ+29RoDCfGJOSV2yrhFfQKuVX83zgxDbFMI3zmMZ59Nlo+mw0tC2AVjnRNsdpEjo7/4Rd3AEj/Wj30hfOSaGoRRIIGpVZ9v5qeDRJOIe9mB0D5ioNu0+0v/pJmTwe1YAIWb0jeNX20Ljd4qQ8aVqJXFMm11T4lxYBjf/7p68/KTmBA4V2AjAMvDed11TQN+3dJt37H0T3XHeX3NEtd/SGuHrneDrF3vZwT6eYV+4OAa+c7SH8ss5y8qrtaSefPMZ/9hj/2dv6L97Wf8Ha/hdu+lefHL0y/PwbcGUr3DTCyBh4EC0PoPUbwQDGMDiKHXXRvrKHv3LMozwooRYA6fY6cC4AyzYM2Qetb35R/vKH+QtStyhXfCV770v5B9+o4raGJ+5SrPiaVxFxOzZXHaPBC6jKIgvEoP2yHLrfnm7LI7vn0+fi2Es72Bsl1GAueWsLDObCQCVzM4dX5LWdvKKu7+IVeWnLlAS9BdBXCOeKoL8YzpfAxTK4VA6XygnHPnC1gWcUZSggkb25gRyDURIIEjwUjNHgoFHtILRWYAJKsN0Z8tAn669nzyDg4MYpkkRlgoFmPC4vCi0GGKXhspO2XLKftF4+1Hy+obG/vvFCfePF+rO9vNp5pP90+3m0GEFPDQPMyMhlGdjemHZ4ffFwtQzsDvCi4R6NH1z6G67te+feV4xb7U58xVHSHB55AHVuEzU+YH58m6BR50fQQDLjRVO3q/jSzAhJ3yRZO8WVoOTSmfnqM3uBqyzKoPPQe65JJywO7ndBS3pkfgAkAbgdvDeB9aJJI0tylUoBFXtmUUXFyQLyhwDVugG4xThJFiULGB29IoeON6cb3li/mhn8ErDrQKMf38HY3egRRmGBvKIB59VkEe/sJLlFuErXvnrX97y6AGW4Gi8nV2rSiepaUGgmiYY0HCVT4lZxNMFBRQl00QqPJtHDz33ZXX534d1974G2aGBQegD03wh6FLDrnksvQOcLZN8Suhfp9u4Xt7yD7iUPatE92BOJ3/wWsFuo0DgLo5TTyXgIZCo4r7yA88oDhF9uwH1yAeZAndsNkkFPNgO3KBig0WT64gP98H7hH3ts4Xl634Dre8A1iPpJGhjKDozb9/Tyv47v4sa3J2b98L0DJMteQ90SKnl4A2i0kL13GfYLH/3f/8ePLTys41X23Aa4XgtDP8LwIWaoEgb3wcCPMHCCXzdPAK/GfT178zh78zhz4xhz4xgMH6UHc+HGQbh+ghooAofJ95T8/Uh+/b/w2MIj2mVEx0Ky6y947xvevhfd3Uu8tpdw8189fQJeefsEPy9Pb6hP7p4Qd08IZvmLyyLHzEu85lftXQu9178Czy2guePRX//x/31f+djCgw4FdChpm4KyiaiOYNo2l2oLoVskbOtyXkHrcl6xxmU+MS3P+UQ3L6Wbl5KNUrL5n9jm3xNNc8csfySuZQA2gOYaM3g9vvCsL4PlObDEoswp1hgugeJisCyCdhm/rDLglUUKFimYJbdlEoNPjUugdQ466GmMcrfKmCvfoTUJ8imZuevxhWd6AcxLwRQLpkVgWg6Wl6B9OXQuGh8bN77tP8oJaIBRjdQS5hPbrPIJGp+HNiG0xcDZha6WcOryVvCiKf9MXo8vvE4VdEqhQwQWOWOKZCzzaJuC6RHQ7eG8YtvDeQVmtU+sKcwnpk3FtKm8Z6Ws+bdgEUGTzGGaQ9z4EJhbqArUDF4zAQ9lfkAr5SHfOs998XmwPjfpeu7Omc5d3xPfOw/K33J8VobxbYscjGrauIQxvYabXnEYo13tEvKcEGxvUKYXaGMkmEKg7Xdky++gTQ6dL4JRRbWEsi3RTIuAMs2C81vADciTeQavJ/Du1KSwxkCrmm5TsFY5a5XSJhGY5dAZTlplWGso2SQAowqM86ApClrCwaJ6Ao/H8SvQ4PyG+KAsb5LIVbAuYU1hlDmYtj1L22ZTrVLm7Hw4+yJuneMx/hZr+h00R0LTm9D4NjRHM21/fALvUYLXrGSN4ZQ1lux9jbyYQF5YQ/R+RnR+Bd0rCFsM3jqbbpFB06vQ+FdoiYLW/3wC7yHAGx/YP75Nnw5h2l5g+z5hBw6xnh6Wvk6xF3GmE642wcVtZPcrXrOYNMrAGAVtajCFPoH3CMFD+TMvfQbDZxkvg7Po6NOJzrEcMAZgvwwDOd6+V5zm2UTbU5wfQ8wTeI8SvBsl4GkGsFOAjo6cFHgI0uMZcpOcpx12g7y+3dE5z9X2f2mjALnDPpltTlwwTPeEZfzCfHzbPdQPzBgFXgydDXmAdgHlAMx+HYZQ8RkSYNjo7HlnrO1prCkUfnrhHwIeS3Pn98gP6hI6S3EOeK4sgPa/TBpL0DEfVRXn0TzkvufPcjl+icbbnmRWiTKctoZDazSgfPoKj1Hhan+BvpyCuwdRBTx07IxE0yTJMhiN2vgoOjAF1k0NbLQbJdiZP4BRzppepJuV0BTBGgUeczDVn815mXCZE2ZqqTft6zwWfRgMi7wzbqFFuuOG99JSsD7/0OB1hNNtEQheuw+ezG1dzlyKp2knOo5DJZd9huZmgeRyzw97vSyJ9r3sMLjFY4qmmkLAGE4bl9DNcmiJgFah1xKC4DlRrpmZAoe+z7TDo5CbB0KHKNIAjsvkpdeQw91kkas8NuczxAdkeR1htEnNWd48sKjwVrnXupQ99wFykGCR5wFNkyy4WLCzgFMoifJFN+2rK3oLbmwj2hZDkwyaw8iWGOR12RYBJoHLEkz07wQni7yHZvCaAXgu5L7jO30mAZwX4HI6Y1Y9LHhsuwrVwmqNAUsMWFRUm4K0LITuvwKqfoH8cVDBINbJgItlaYoADAZdPsOjrtPnvvGejmUaRdAsIo3I5qBNzbSE2tvmes/vRgMlclKZuWsG4HlRZ8Iw6KCZBMDOw40couNOwPjE+LlptjxoV6A41bb5YI4GcxhtljPm+dD+Ej12CY1syD8RvCTlJQnk10UCznm8or7U2UmY13pOhjNNwUzbbPSPmARgVGNngoeNwfilPM4p/HGzPGBZL/KbItDDDXAJRo3u/rcfluWBVYo67bYFYJoHljCwKMEUBW2LiWuV4LICjfxLcQq8JEP7YnF8zxw1CDcq8MY3qR8l0BZCWeagfAFtImhSe08LRs0y5mY1UIA/ZmMejUqqegEGgAAPhbFwFbzesWvrHxo8sxgd8bQtQHUlEDwFmNTQPG+s8136+g5wdwFJ0WjWSdHgZsCBpqCuc9RgqbdrpfcnKTTOBYvUbRRBWzhrFMLZKO8ZuadzAYwdBRJVsZy5TnMGJiwsAwyBA1wFChyMi4CrQMLo4LaHDo8rT3IHXlPUQMscV89KemAf7R6kUQ5sLwE3vcw5oC7jw3XD55KHmsXuE/8GxqfBEnbrJznToqabhXB2HtEUQfU/D97TQMEw9Xh1m/4nMcAje7B3gaf3Zeh6E2yvgDWSsolcfTL7pQhoj4GOBdAZC+0xXF7RMFQmpEvNX0z8TiXj8Zkt77T586H4jlJ5Xjt+h5mechnlZPvrcGEDXC+Aq/vh/BFojoWWKNaoJNvEhElImhSUKYI2xcBPL0NLsMf4zyOmSO+lEqAJDKhBuOr/fWegMe0TFv/vEAAPRuupq1pvp5w0zwI0ZXiD7HzJ3sFB6pgHXfPBNt+XS5uLrou8H3h8WTV4sHEn42BVQKuIbBKQRgljVTId4ZhZOWaU3M5wY1QyLQqmRcWF2UWi6J4zAvrsHz0mgfdCCjP6E0tSnEdvgEO6/7eflsbDg0cwMFrnOPeiw/Is1aYAyytg+StlfpFDFQWd0dDJZSWycHUFrfOnDI+PHJfHGTkxTBScfQVOPw+nY+GMGhol0DSXafoDdfY3tDGUNYpR5pvmcGiKhrNRcFoNPymh8X96Gud4uleD8wDAAEHSJOfdOy2UJvlHHx48FERxjR2qJ84nu9oVHtNs1N11/gVBsnFFVrui0X4Yqui5gEVeX3eOvAMak2yDBWSP8rsVTcTme4dtVoMxAozR0BLDBdIthOYl0LIUbwmmmoXQrIBmNTSr0Aq9KQSaZ1GtvyFtbzI39gM9RqFYcYyhWLQcmsHrocFzeRn025KjMHrUe17n7IjGbXOgZzZ0LGJtC7gw8EjojGI7Ypj2hfR9wLsTPjkOG6q8Ohk8vOv/UN2/ZTr/yLTPZtrmoslIoxyaVKRRxh3DyqBJBE0CaJlDtz1LmJ4mbW/A9WLwOEkK3KiwlR3FwREz6j720OBRKPsmy8BNIC7CSAd1pcDd98JIz3+HjpfAtgzF5LeHMx3hqCidbQGDStZN0fImyYcyGTxXa5S7LQozRWJtKswoxVoEhDGUNoZCqxpVPWsMoRvn4s0CtynC2bFsrPd18mo1eC6jtR0FTlTCeQRgBAWfzOD10ODRKNqM9DJDJI2h3sYxSN4sdFz4ALreAturpGUBblFRHSqmS812zWM6FtwHvAk2hwoeTwaPOP1n4sxrxNmXqMblqBa5MQYdmrequdEulGl8lmwOwcxLsHN6/EYRZj9J43afczuLNo4ICjAGhZ7MaKjJQ4PHwijB0B4KvBSKNQTKiSJ6hq5B90qw/Zkwx2JmJdEuY7pUbFck2zVvqvB4yf0MPLDNButsaHsWjLPAOBdagunGucRPs6ExhD37NH32j2SblO5ZAbcqgRxjuUA5jKFI1s4lsSEpElWVRpWLZ/CaOXgTfqnbmWB8ybT8yeyAwYEYgJEzxOVsb1eq17yUMAmRQa9h6gAAAihJREFU80HbYmiNBeN85H/XEgkt86BlPrQsgE4V2BTII90qRR555khojWGbY5HjnkkBbUquyKoS+aW3KdE7zSJUCMsohRYRNArgbAgayZqEcPw1OPEinIyFU+FwSk6ckmI/yj2nFPaeJMfFL7wjBwnsEhqlWUDJsnF0/PPQr0cOHs0SDOMA+jJgbWDfz97cRV/4hOw1eM/9q7f33z2dv/FYf+9tneVpEnhOK7CfwtCxQJuUaBWRbULaLGUtYWg90BoFFjlrVqBEDm0qVN64TeXzd0b9YVssmBdCK8q5wTYvguYlrHGpq/W/u9r+yW3+jdcWgnXH4L1vkOeSmf41MHQIxs6w2HmGcXFR9TRLudH57CNwPXLwXFyyFgr1QDjazqaHWc812n6BPN9JXmgiL9QSF74lLsTjF5bgFwT4hT8S7S9hlue85hjCEkm2q9Ecp13NWNVgCWPNKh88bpxTs22RYIqyN/0/Y8b/5jD906jp34ZNv7llfuqWdc5QR+jQhTeGL61wXM/wDG4h7fXgNINnADDv7cMQ5A6AYjQZFHnsmuGJyWTPySMHD+OC932vJBdCj7a20Vji4hIlOMA9AiPXYeA8XO2CS+1w5RO4lAX9SUzvW9DzCio12hnLoNWhmjGH0SYlbVLRJjVjikYFXc2LoOtv0Ps1XNiN0g3cPATDp8FhBncPPeakHR7WTSNaNEpdQ1NIvlsumJ0huewaXIj4jLq1Twbv/wfNoEnscW2EZwAAAABJRU5ErkJggg==;" parent="1" vertex="1">
          <mxGeometry x="880" y="329" width="70" height="70" as="geometry" />
        </mxCell>
        <mxCell id="gHBn23wMbkpfhwxa4SyB-24" value="Transform data" style="text;html=1;align=center;verticalAlign=middle;whiteSpace=wrap;rounded=0;fontSize=27;" parent="1" vertex="1">
          <mxGeometry x="870" y="470" width="220" height="30" as="geometry" />
        </mxCell>
        <mxCell id="gHBn23wMbkpfhwxa4SyB-25" value="" style="shape=image;verticalLabelPosition=bottom;labelBackgroundColor=default;verticalAlign=top;aspect=fixed;imageAspect=0;image=data:image/png,iVBORw0KGgoAAAANSUhEUgAAAJUAAACUCAIAAAAVnPy9AAAgAElEQVR4Ae3dB3wT9/3wcXnLkmyzSUiTNE3apmn/TdpsQpqQBYEAYdtg9jbTezFMGGaTCSGEYTCEDd7bYMA23hq2tbdkeWiPG1q/53U64zhwplYe2wKKXp8qrqqSRG9/b0h3JxJ4TG9WxGYHiMlhdgIAbABAKGK36ZwAWAEwScy8/eo7H2quD9MVBegKgrV5I9T5w/q1tiJ/ww2auWyQpnCwLGdUS+k7EHsxUG8DzpsAAjYEQECMAmC1AaddB+zWXrKQevm8R+5pNpvNDqwWu8XucPmh2F/MTkgrvdTatFNROVVe/KKqgKrOp3TkD27Nfbpf8dT5w9ryntIWPmUoHqEtGtaSO0Kc+0dx0auysjFaSSpQmwAKUCBH7AD7pwUQcPzP+9mdNicAiBW2OewAJwQQBLOFFaNFN/4hKnpakR/UXkRVFw9pLXpKWfhsR97Qfq0l6yVV1vPtOU9r8odpi4Z1FI9QFAwX5wznlr4L8y8CWO50tEEI7mcFdqiXA/PYzp8VIMAJbKjTCWAbAA7sP2q98oyyxE9R6KvK9+8ooGmLhrSXjmwpGSkpGtaveNgfnv+CKntUS+bg1qwgbWGIsXSoqfQpY8nT7Az/9jvzQEchsJtsVmCzu+Cc6P+6HwJMwA4A9jqYLMCKWgEw8xW1Edo8X00OWZ0V3JE1rD1npCJvqCifKijw628/3fWhmpLBbQVBquxAVSatLXOwNmukIfvZtnyStOBFiH8I2K1OB4DtAGBr7P/55ScMDBgeAgDQ6AGEvS46urjwHV3WMG3WSHXWMx3Zf1Blj1LkDZUXUmRFvu25Q/q1jgJfTTFZez1EXTq0NW+YKnNE27WntdeehUpoguwADWsLsGK/bxa7GfNz2p7Mn8sPBgC0dwAT4gTAUC/Neqo9e4Q6Z5Q675mOgj+05z/dXjCivXBQe2Fwv+Jhf3gGpSM3uKN4RPv1Ue3XR3UUP6UpGKnNH2nJf56f7aVp2gSswApQM2jF/KxP/IAOwACYAQAtrUAHOwGw1Ldk0WQZNEVOiCp/SFvhkNaCoarcoW1ZQ9oy+nf42nOHmPNe0OQ+15IzSpo3XJw/RFYYpMwPUOZ5ay7/WZDnaxBsAygw2NUQkGN+lv/59R9wmlEAUBuELUWdRgu2HJW2ZJNUWYM9UmvmYMKEJcOM5/0s9Vuw3zQnADYjCoDdie1G9Ob22G5/PvHrDf9D/Jwn8/cQ4/TiH+2JXy9epIf4KT34tWQO8kiqjEGEPVn/9fA79MSvhxfmEXm4Bz9lRohHarkWQtiT+evh9+mJXw8vzCPysNWGYh8cqQEEnCiwAMipZcsuByqvDH+o4ub+QXfG31Qfh32GhL3zgmD7f673/XrzQj+++39P/Hrj//A+5xHx4+Q8o033M9bFPpm/3/4u9eCnuDzsoYqdPUpz2tdYF2t0fWD5ZPl5V/ER8WvOelp9ysdQG2MA8JP131087BNQ4u0X+aWhD1VNmU91pHnra6K7+zlcnzt3+5fp8cf/ue2XhwpPfmloY8bI9pNeuuooPbah3Ln9+cTvkZm/J349LFtsduxwStABIGw30AIgh6ZZdN5PfmGoR5KdH0JY0+WRHce9tdUxWoAdMAesqA0Ap+PJ57c9+BG+iAPwoPTcYMKe+Lk3fwNARfi3IMSTnhv8xM89v55eR089/sTPPT/JL4Meqp74uecnPhvikXr6pXni556f6EywR+rpl+aJ3xO/Hl4Bzzxsxg56dzqdduwgZMiOHYELASd2/CbxDTvanCAbMGEfopmxc//ETq0RAKCXcc+ROOlDemgoJ50g/ukhwjPD2CeHMI8GcdKGKi4+pzw3inesxyEWng0mTJoeTBj97DDVYZK6IlqLv2dmRbAzWByP7vlHTgQ4EJvDijidiOvMPYcDOx3Oie3eEkbIB1DQ6rQaAPauvkniFGDH0RsZzedJ0nRqDxG/vqJTwaIzgwTpg3mnBvNPDxGdHS4+M1yYFtLTQpgQT3iW+A+Xpgc/dn5A7QQm2GGDHAB1YufDOe3YB9JWO9xDqNVOEIqNHuI0AjtwaIHK7gSgg0lP95Mf76FjAXKixKeo4lNUSXqw/JfBkvRg7kkqN40mOjtUmB5EmOBMEGGS00GEPW5+NmCyuU7fsDsBdhS5A182YqfvEUe08ARO7Fwe7P8BY/Z2AGEnZMmFzDP/FqUN6aGhojSChOkh3GMB/OMBsjM02Rka70QA+yRZdG6I4HSwW4nTggl73Pxg7OV23Zw2J6K2WfhOlAWcDcBsI86CYmd73BdqlgJrs9PSAmxqp7UO6HlAUSEp/oJ14Z9uJbr8UuOJoawjgcKTFGk6VZAWyEkL5J8J4acRJ0wLIUx0MoSwx83PigBsoenoABAdVedYWtKgtqOo5qhRvYE4zXojUWbVEdSYqm/7xtj2s6l1C6rYDToOGwXTQEsycapEQJSy7HN+5huNp57hnhgkSqMK06i8NArnVPATP+LNSWCDnZDUritCW3+0KrYi0mREshkRf2WXfk2cbL+dKESQaFcv0khXG0RbIMlyq3gN6NgDqZajyu3EtaSgRJkEcbqGxfKCD3npz3GO0vjHKNyT1ObjVN7JQYQJTwxyq8dt/gBocxjLzcrvTeL1NulyIF8HpElAuB1I4oiTRgPCGneC1rWQJNkhPQyUKUCUAhTHdaKvYHlPpcBygpy674Fqm7Furuji31k/0thHyNxj1MafqdwTIYQJjoe41WPnZ7xlVe0F8lig2INIdpla4lBVPMpLtcpS+ib5Jqs7OSTbnardNmWKuWlh5eHBjMNkzrGhjcdHcX8K4h0NxuP/HIInODbI3Vhng1q/J6lvJmB7qMABbHrsfEUn9lFgb24P3fETTn0ZotztlMUA2S5YnGpqiUFV8Vb+LlS6qW+SbUTdyS7ealem2pQpEHtJ1ZGhjMPk5qODWcee5v4UREjYZdnLH1hng1TfPUZ+VnWJWbrNJo4Ekh2QaLtRGY2oYq2CnX2DJ93kFh4q22gVbbLKd9iUKShvee3RpxiHKI1Hgug/DcP9ugh7qXX/05hnaC3fkjrK4g3YuHXOX28mD3/OQzd/cFu+QZSCCNc4RFvNgq8MikhEFYvyd2AbMh5JkIhIt1oVW+2CtQ3Hn2UcojAPUxuODOEcod1DyDsafD/Pf32EkU5VfvMY+Vlas/XCzbBglV2YYham6BXrEFU0yt8GS5I8Ez8eEm+xKrY6RZGME3+i/0ClHwqoPxLEOULDu2dB2rVS7OUP9NMUxdek9htxemyV9+jP369+os0mwWa9Yh3cEoXyt0Li+D4qERK7ESyINYuSEelWIIpmnvxzw/eU+u/96o9Qu/wIB7GXeLyjwQ2nAuUHSW3XY3UO5+PgB7fnGMSbEOFKu2izWbhFr1gDt2xAeCkWUVwflWARuREijDEJk2BJilMYwzjxl/rvqHXf+TQcpbB/pLJ//FWxa1nq7g/1aWT5QVJracxj4od05Bolm1HRKod402/9YiyiPskNPIsoARVFm4QJkHirUxjHOPGXum8pdd/50H/G8LoTusvW9fz6NLLswGPkB2vTDMLtCD/aLok2iGJ1kmRIvhEWRELCuH6tp+FGhevN4jizbCMqjqw58VLNN9T6rwPphwY1fj+o6YfBzYcGcX4cwj0ymPtTCPenEM6RYO7hILdqSAtSHCS1X09ybX92Xv+l17t/4KHb/oQ0J3/rl2iRJXvQzypYZxbHWWQbUeGG2uOdfg0/hHT5sQ8P5vw4iHMkGM8tPO7hoMfP77hBsBXmRdnEkUZhlFacAMsSIcE6WBDdr5mF0YRhfsJYszQZFW6oOfZizUFK3UFyw3fBrO9wwpAuP/aPQewf3Rs+7uGg+pM0+QFSW2li9/l7lPf/1Mf0/BSEu94u2mDkR+pEcZA0AeKthfhR/ZpZEEWYlbfWzI+xiJOs/PW1R/9UfSCwbn9Aw3fBzG9xwuDmQ4PYh0NwvObDNM4h96o7QZXtx/xc+w+dy89H2a/9qIG3CWGvsQvWGvjrdIJoSBwLc1dDvPX9moW3njCUu8bEizaLEq3cdTU/vVCzn1y/15/+bRDjmyDmt8GN3wc3/RDSfCi4+TCt+TCt6RDVXb/a4xTpPlJrSYIOv+SZ1dDbUx9cyA/f+q/9RwMnGW5ebeNHGLirtfwoSBQFcVZauOv6NTN3HWEoe7WZG2UWJKCctbU/vVC7j1y3x4/+NY3+NY3xTRDruyAXYVDTIWrTIWrjDxT2D1S3qjkWKNlLUhXHPyZ+cOthzK9plZ0foedE6PkbLMJIqHkFzFnTr1m4awizNkWYOJEmfjzKXlP74x9r9gbU7/FrOEjF/Zjf0lyEtMYfKHhu4bF/oFb/TBbvIbUUxWnxww4e9fmDWw/r2Ulw0yobb5WRE6Hjrcf9IPbqfs3MWU2YtSnCzI40u/xqDj9fvce/brdvw0EqTniPH+v7QHf9qo4GPFZ+iPyCQTgHaZpnY6bom5fp+PMhfhTctMLMW92vwdzVhDmalhoZyy289Q7uijs/jKja7UffT63dN5i+n8o4QGN9HdT4Da3p26Cm76iuApu/p7lV1U80yV5Sa3GyAf/Iz25yff7X2y2Yh27915OfiRvRr0GcCMIcTUsN9GW4X+X3w4n8grv8Gr+l3IXEOf/7/Z0jVPGex8tPLwiDG8Px+dPy5nXOHyfC3J8R4kGciC4/O2c57tewj1KzdxB9XxDjAI15MKjxm2B8BBu/pWB+3wa5Fe6nKkrqPn+9nT7w8L3/AsvO435WxhZd01Itb56FFwk1LjexV/VrFvYqwuyNSwz0ZWbuOtzvzi5f3K9hL42+L4h5MIj1dTBO2PgN7XdU+SNFtJukKkrS4/sPruXno+2n44dCrLm4n4YbjvuZm1d6JHvjEn3DUtyv4rthuF/1npCGvcH0fSGM/cGsr7EavwlmfR3E+prqug/q/X35IbIgldRSmPiY+EHSc7gfSt+sbVyi4YabuRssrGXmxhX9mqlpBWE21mJ9w1ITZ62NvQz3q98biPs17A1m7B/EPBCCE+JmzIM0t7r9Q4AglaQsSNDh+w+P+vz15GdiLe/XjI3LCbOxFuvql+B+5d8OrUz1qd8bWLU7uB4bwUH0fSHMA4NZBwfhhMyDNMYB97r9QwB/J0mRH//4+Gl5sy3MOffMX7/imVjEeMbG5b3xw0eQeRBbHbrrd+t7f94OzE+Lf2XHoz5/Ftkvbc3T9fXT4YYkPXOhunGWkbnaXL/AyFxCHH2xsT+DGUs1deGW5kXOpgU1B56u3hbUsDukaje1fldww+4g+p5g5n4s1oEg5n4acz8V/6/337MOhBBW80MIZxNJlRfvOuPPBlANCoCjt1//8PBtf1pkv7Q3T9XVTUPqMb+OxhlGxkrIc34QfQnu52icX73/qaqvaPW7grv7MfYFubRoT/ywzWborh9cF69jzsP9LHXzDYyFxNEXGPoziL5EXTvX3LTQzppXtW8k7ndnF6V+V3D9Lhp9T3Av/e6fSPyRx27+pOkdTZP1tVPR2ng9I1zNmmZiLIdqw/sV6QF/uKVhcUfNnC6/O1updalBlamBdalB9btoDbuDuvwY+6iMfRTGPuyR3ve4+UHSUx1Nkw01k5HaWH3DXA1zqrlhGVQzx1gfTpi+IbxfM9cvaq8OMzUusDHD7+wdUZlCqd1Jw/3qUqnYKnAvzaVFfeKHLT8RyakO1kRDzWS0JlpPD9Mwp5gblkI1cwx1cwnrVzx9Q7ipbmF7dZiRNd/KmFu5Z3jFlsCaHdSKneTanbS6VCq2CO3mR98bSN+LPdL7Hrf5g8UnNKwJhuqJSHWUsSFMQ59srl+E1IQaasMI09XP6deMtQvaqkINzHkofU7F7mHlm8nV2ynlOwK6/Br2UF1aFPpeygP8GvZQCXts/dDqDYb6WRrGF+b6RXD1bEI8Q21Yv+Lp6uc8wK92JwVbBT5ifnbsKG/gwE5R67x0gNN1iQjsaiuE9f7NWOyZMGOzuSFGV7tUXROqrp2pqQ3T1CxQVy3BfiBKXT9LXTVdd2eqsWq6pX62nh6mqg+V1MzS1fZN5pqwjjvTDIxQW/3sitThlcnU6q3B5duo1duxXFOIbcjU76bg0XdTCWvYRSHs1j5qczJJdGUDjH3Jsh04XJ//9eP+H3ZyuosOY7RiV9ZxaIG9DcBGwhyo3q2Qpm0WVqKBsUbHWKRjLNAzF+sZK/T0tQbWMuKalxkYiw118/Q12AJWWxfWUR+qqg/tQ7/2yqn3+1VtozySfrDN6sAGz4FdFsmqcljoVlMJas6G1L8QZtYddyun7KBNkoqINsHiWEQSg0rjUUkyKt5slW4kDJIkWQTxZvZ6Y8MKfc1CbfUcbV2Ynh6mr5nVJ5lrwtorp+rps611s8p3DqtMplalBN3+ioL71ezAdiewDZndlLpdgXW7AgmHrGEXpT41kLCBnj8IW1i68FCFVXvbpEw3tOw3qbaalEmEGVUxbgVavweqg3Zlqr1lm7N1G2jfAVp3gdY9TtVuwqCWVKtyl1W6HeYmGuirdNUL9DWh5rpZuuqZfZKpOrS7X0USpcuvahulZge+CKXieHW7AutTqW410H7Y5T2wr7putesrIEW6UZRqlMZDyki79FvCUNkh91IegOV7IPkOSL4dUe60qnahLbsQ5W5I1kOqfWjrAUfb13Z5KsxNdE1hmOHONEP1zD7JVB3aVvGlrmEWWjvz9o6hFUmUO1tot7YG3vkq0DWC2O5gXSrmV5tKrk0l1+2gudVA+7m+XdfghBg29UVEtg+RbLQrN4H2rXb5bsJssq/dClHuhhW7XH47EGWqCy8VVuy0yIgzy1MR1X57x3eOtq+t0u2m5nX62nBNxRTDnRl9krFqdne/8sTAe/xcI0jB8bD77VTCekIdaD/sEnJou11fbG391qbYaJdvdCp3A9UPqDKGMFgZ61Y21U5rSyqq3GlV7rKr9thVe6zKXYhiB6rcSRgk2wIrdiCq/da2g1blLosgXtewENvi6Du/1vIpXfOH+91MIVduJd/5KrB6O74I7fSr2RlQs41KWO12GmED7eewARskR7XXbKrtDnmUXZpkFR9ARGmo/ABhiDLVrbArBchTEOk2VLbDpki1KVIR6TZIvBWVY4/fHyLbCMm2WBS7INU+WLXLIk7Usha3Vk/rWz9t/UykZsat7UPKEwMrN1O7/Kq2YW/H1O58dPyw62k61TZ9plG6wyrfZJNvhSUpqHK7Tb7NQ+1G5SkO1VZIsgkodgPJVx0VM/RV43UVXxKmr5zqVro709vLJkGV020V065vH1ScHHB7U+DtZHLFZnLllsA7KZTqr2jVX9FqtgXhP7h7X7aH2phIEl6KxPb/7FbgMCD9+vmf0wqAowPzk21z+W3B/ayyrzwSNqCyLZ1+yl1AmtK3ftrKad39ipL87/Gr2kp116z782/sptzj17+f3971u/arn3QzotjaNxdHcv8iS7ifvSUFmz/lLiDZ0lExQ3fnU23FJMJ0lZPdSlv5ZXvZRKhyKj5/RYnk25uot5MpFZuxEbyTQrnHr3Yrza084tdu1V01SLeisiSrfBMk2eRBP6t8ByLbZFdttoiTnIodQLK5vXzaA/wIUR/0YOXktrLxloovreVTS7eFFCWSbyXTbiVRyzcF4IvQLr+qrdSqrdSaFPe6viuQlfCb5Wf/Hj+PfTOPQ2XVXXb5Jbj8khHllj67PpKb18myynfA0mS7aqNFnIj5iZPby7/U3vlYUz6xb6r8oq1snKVyirXiy9KvBhUmkG8lB91KpJVvCijfFICvAnE5/L52C9WtcD/BRdf7n671X/+e/+fA1n8qVHdBL9mMSONRWZJFnAgr3L4ulbvXser5+V/B0mRbS7JZlOBUbAPi5LbbUx7gp749wa00lRNab3xirpiMlk8p2RpSmEC+mRR8MyHo9kZ/fATxRSiOdyeFUrPZvUpTycx40sD5Yd/qZVd0+sliUVkC7ueZi1tJk1HZV5A0wdaSaBbHORQpQJLYVj5Je2es+vZ4wjpujXMrdcW41rKPzBVf4H4F8YE3EwfdTAjp8sNH8E4KBa9uE8WtPOcn3Yg8DH7ylN/4iRPayidpKj8kxFPfHu8WXsetcQ/wu73Rv2sv4nf7lewMYMQN5PxhH/q12zSXzMJNDmkckCQi4gRUkYhKPBMiT7CKE4A0BRIkoy1bEFl0W9kUc8l4zY2PCdNd/9itNBXjVKUfmm6NQ29OLN0aXBIfcCuRdiuOcisp4FZSQHlSQEUy+U5yYNVGSk0ypXYj1d2KU8iMaBL/UowZAJvDDpwm7Dhe7Fpavbq5ff4fdiF+Z7tVfbG7HyJP8JxfHCqKB5Itd/2i2m5O6kM/dflnLSUfGG9+1t3vZmzgzUT/+/1+B6En/eySWCBJhEXxmJ803iPBsthOP2EiotyIyKJay77oQ7+O25/ifkjZhJKUoOI4/5sJVNzvZqI/Pn+VSdgI1iRjI+huRVsC6FEk3sXoAZw/R5tVfdEk2NjdD5HEeSRYHo2KYoF0s0WQgCg3wrL1rWUTTMWfqq9/RJi29CO36rj9qbL4P4ayT+EbnxdvoRXF+pXFU8piyDcT/W8m+t92EeJ+1UkYYXVSoFsVbvZviCRxL0QNkJ8NO/ilDe24YBJstIljgDgBEsbBsnhEEuORYHk0IowCkmSLIB5WJsKytaob40wlHxPiqa+7h6ct/aj91ieKovf1Nz6Bro8v2kwtivW7ERd4IzqgLMGvLMGvy68yiYyzVSWS3apgk1/9BhLnfKQZAKvd1rn+6+3qz/3zH7r8jPzk7n6wONojQbJI3M/Mj4GV8ZB0De7XUTqWME3JWLdqu/mxvHCM7vrHltJxhZsohTG+12PJ16P8u/xuJ/pXJAZUJmFs1UmBdxIC3Cp/o2/d+gH2s7ci7eeN/GSrKNopiscuCyiNg8WRHgmSrYeF64E44a5fRMuNT43FHxLidZS6h6cpGdta9pGs4D1t6Ufmks8KN1EKon2ux5JLI/1uxPuWJfjdco1gl19VIrky3t+t8pJ9ateR2Oc2DND8WbFvk/qNn0UQ+5D4QYoYSNqPfgUbAwuifUpjAnC/G/G+XX4ViQH4YtMtvMp4/9wk7y4/1Gbt9+WnHSAAAWj7VaMsDBWtdQi2mIWrLNINsMQzoeJIi3A9Io/Ti9ahikibaKWi5JO2orHa4g+0xR9oiv6Dpy58//fVcuNdSf4bHaXvm0o+LtgYmBvlVxodVLqBeiva91a07+0Yv/JY/4q4gIq4gMp4cmW8eyu/qkRyURKpbpmv9FKc2fVFWwAx2YAZO5C2dzf39//u+hmkoahorZ2/0bN+VtFv/OzClcqSj9u6yWmK/tMl11Ewxt1wP3XxGFPJx/nJ5Pv9ughxP7dWfncSAgbeD8Lmr+OKy2/1Xb91qHiDZxKuNwvWIYoYg3CNVb7eJlzW6Vc8RlM8Rl30Hl5H4ejfl/L6O7K8N9TFY4zFHxUkkfMjXfO3nnIz0u9WlP+tKP/b0QHlMeSK2MCK2MDKOMqj4Ye0XzZIZyHCCDs/ySRcbpasRUSeySZcDwnWIrIog3ANKltnFyxTFn/YXtgp12XWXvDu76ul9B1p7uua4jGmIpffBt/rkbRSlx9OiPv9Sujm9svAzx+2dEbaL+qlMxDhShs/wSRcZpauRkWeySpYA/EjUFmUQbDKJlvj4C1WFX2ILSQL3+0ofLe94B28tvy3f1+qkrdlua+ri96zFH5UmBCQv8H3RiTtxjrKzUh/vFtRAbejyeUxgeUxgRWxlIo4P7caeD8TgAHcdk4vnQELl9v4CUbBUpNkJSKM8Eg2fgTEj0Ck6438FTZphIO/sKXwfdeo/UauNe+t35eq5G159r81he+ZC8YWJQTkr/PB/NYElm3wK9vgdzPSH/frIiyP9XWrgfazASPup5NMhYXLrbxYo2CxSbLSKvRMNt4qhLfSKun0c/IWqgrf68h/py3/za5a895ozXtDlfv676i1GPPT5o+2FIwtjPfPX+dTtp7q8gso2xBwM5J8M5J8KyrwdjSlPIZaHkO9HePjVp71W/ow+MHcFVbpWgNvuUMS4eDOv8fv/wcP8y56q7tf4drf+OGEuB9O6Bbe7RifgfbDvgsYAXDbJb14upW/3MGLQ4WLrdIIVLDCM4lXopylgL8KYi+xSiMQwQJl/nvaa2+35L7WJ7Xlvq3MeEWX95o5b3RhdGBuBK1kLa14tff1dX54N9b7dx/E8mg/t8rdEFy1mCQ6l2TCz/mzua7jg1/Lpxe7gL9j/w/3u9DdD5WsQgXLPZN4eZcfKl1x1+/NPsFryX2tLfdtxbW/6fJeM+W+292vdK3v/X43I8lu4ZVH+w28H7b9Cbdd0IunovwlDl4MIliESJYj/GWeSbQMYS9x8ldYmhe5/Oa75u9NZc6rfdI9fjmrqMVrqMWrvUvX+uKEN9b7dx/B21H+buUJP9S1/enys3OjYf58WLwM4S/xTKIlCGfRXb9lMH+eIu8dzbXXW7Jf7ZNac95SXPubNvdVU+67BVHke/y6CMs2dG7O3Ir0c6uB9zMBl59OPBnhLbRxNkC8cEi0GOZ5KOFihLPAwVtqbp6PSJbCgrmKvLc0115vzXq1b8p5S371ZW3uq8acdwqiyNkrKUWrKUURXiVrfErW+HT54SOIrQjX+7mVh/zaz+rEXyC8+VbOWgt3rkW4AOYv9EyihTB7voO32NwcjkgWQ/xQee6b6quvqTL/2Tdlvym/+rIm55/GnHfyIwPu97uXcJ1vmTsNvJ8B2ADcnq4TfwFz56HsNWZuqFkwH+It8EzC+TA7HPeDJQsxv7w31Nf+2ZrZN6my35Rd+asm55+G7Le7/ApXkYpXe98/gtgUrnOvh8dvHsTzRC4/O3eRqWnuAPhlrQgsWk3B/XBCfP6ur/PDN2RurPVzq4H2c2LTB5C2c3rxRIQ7x+6oDUIAAAzXSURBVMZeZeHMsgjmQZxwj2Tkz4XZ4YC/yMQKhUULUP7slpw3NOdfabv2d8Lar/3drVqzXpVdflGT/Tdj5hv5G3xzlvmXrAosXu5VvMqnJML3+hr/G2sDytaRu7q+xp+wW2vJhGWvC6lZROWmbYSBzQGMwIr9BQB9L/b9sKe4vf/3Gz9eqI29wsyZbuZ7Bg/ihGN+nLlO3kITKxQSznf5/Vtz/pXWq8S1XX3FrXA/ddbLxsw38tb75CzzL15J7vIrXe13Y20AToj/QIh3fY3/zTUBhGWtDR5wPwQgbWd1ovHIr35zIO5cj2TghULsOU7eQiNzNiQMR/mzldn/0lx4ufXa3whru/o3t1Jl/lN66U/qrJcNGa/nrffJXupXvJJctIxUtNK7eJVP6Wo/fAS78EpX+xFGiHdzTUDmmqDqhRTOyeQBmz8r9v516xmdaDzMnWltXmrmTDXz51g4nsnAmwWxQ528BUbWLEgYjvBmKHNeVZ//q+rqy4S1XnnZrVoy/k9y8YWOzL/qr/07d5139lK/ohUBhUtJhSu8ilZ6l0T44oRdY1cS4UtY2Wp/wjJW06oWBOJ+dqdhAJafiMvvtFb4Ke5nYn9p4s+2cEI9kp4708Ke6eCFG5jTLcIwhD/d5feXlit/Jkx1+c9upbz2D/GFP7Zn/EV39V85a72ylvgWLvcvWEIqWI4R4mvB7gNHiFcS4Xsjwo+waxHUO/PJ7BNJMLB18+v8Ns7/uhb8Hes/BEAAak3TCj+FONPQ5sUm9hQTf6aZ7Zn0vOnd/GbDvGmK7H90nHtRefklwlouveRWiqt/F1/4Y9u1P2uvvJa9hpS52KdgmV/+YsyvYHnnUrS7WfEqH8Kur/Il7OoqSuW8gObjiQPmB3X6iT7G/YzNk428GZ7y03GnWdjT7dwwA2uqWTAL5n2pyPl7x7kXFZdeIEx56QW3kl95RXT++darL2mvvJa1mpSxyDt/qW/+YlL+sl9HEJ9CnK1opTdhpSt9CLuyMrAi3L/pWAIMbDaH/u7ysx/nDwIwNn8a4UcQdyravNDI/sKjfl+am6fZuWF65pdmwYxOv/PEeAo38ZSXXpBfeUV47rnWqy9pLr/a5Ze3CPPLX9a5Fuw+cIR4RSu9CfFKV/oMtB/q2v+DlacN3I+trC9tzPnmxokm7lQTe5pH0rGnWBqnOtihBvoUiDcdZU9pyXyl45c/Ki8931dJzo5ou/yM7tIrWatI1xb45C0l5y4m5S0h5S/1KljmXbjcp2iFb1c9OfX0+JVV3hXh5OZjKTB2YTktsDts2NUdXd8G8V/Xfr9j/w8Fru3PljQ95yOUOeVh8ePMMtAnQbzpCPsLZcbf+tsvZxEJJ3wk/ZwQgJQn9ZwPUdZkK2OuqXG8ifulsXmKR9JxJlsapzg6/aa5/P7afvZZxcXn+iTlpefFZ4Z3n7/cJQFdfvlLvbrPX+Fyn5IV3m418POHOGEAKU908/vMyJlkaprikbTsSebGSXb2dH3DBAt3KsKeoMxw+Z1/VtEnXXxOfGZ466VR2ot/y1xJujrf+x4/fAQLl/vgFS/3cauB9kOAxQE5LYrjOs77CHMiygg1sj41ciZZmiZ7JC17Yqcf/XMLbwrc/Lki46W2s6OU5/7QJykuPidKH9bdL2exf/ZCUtcIdvcrWOZdtNTHrTzi57AoftZxxiDMz11+nxg4E8yN2BwMfJrm8ebGibbmqXr652buFzB7vCLjT21nn1b88kyfJL/wLO6nufByxgrSlXle9/jhWzEFy7zxCpd4u9XA+5kckMOi/EnLfg9mjEfos4wszM/CmuiRNM3jTawJNvYUXcNnZu4XUPOn8msvtJ19Wnn2mT5JfuFZ4emhqotPd/fLWkDCR7BrK7Sbn2/hEjfyhB9sMyuOYH7MzxD6LANrrIEz3iN4FtZEzK9x/G/9nsfm78yoPul+v+xFfj35YbO42MetBtrPBrAjQFHlcV3TOzD9EztrNtQ8zsSZBLM+90hm9iSIOcHRNNVCnwjxvzQ3fiq5/Jwq/amWPkpx5in5mSGtvwzvOPNizkrSlXne18K9sxd0lrPQJ2+hT/4Cn4KFvoULsIoX+ROG/6/33xctHpQ3lyw5tR7YETMAwAoBhwnuxZ4f/hS33/8k8vvUo34Tu/lNNjd+Kr70rCp9pPJ03yRPH4n7taf/KWcl6XK419W5Xl1+2Qu87/G7X+jBjxQtHpQ7J0Cctg7Y4IHxs+Lzp218E6KPtTFnWJo+MbInQMzxHsnUPMHC+NzeONlMH2/hTTKxPhJferbl9Ahlet8kTx8pSx+sOjusPf1P2Ss6/bLm/0qYu8A7fwE2grhT/jxvwnpUXBSSE+Z/j1+vT791//N3G8D8EMVRbdPrEH2slTHV3DjW0DwOYn7mkYzN48z0z2ysSaaGcWbuBCNzrOjiKOWpoYrTw/sk2ekR0tODWs4MbTv9QtZy0qW5pCtzSJnzSFnzvXDF3AXeefMxwoL5v6uFwTlh/qKTa4EV6pq/fvVDseNflEe0Ta9bGv5jZUw1sT7UN31mYX7ikQxNn5kaPrayJhjrPzFxPjcw/iO8+JQibYj8VN8kPTVccipEmT6k9dQfM5eRLs4hXQ771S9rvhfulzffG/frac560s1fEJQ121d4Ys2A+cHY+ZvKI5rGf1kaxqCMyUbW+7omz+BZmJ/oGz8x1n+EMscZ6sYaOeP0jPcEF0YqTg2SpQ3ukyRpw8Rpwcr0Iaq05zOWki6EkS6FkjLCMUJ8CnPme+XNd42ga8nZkx/hQjV/nnfefFrmLB/B8dVO1DIw8wcDxIkof9Q0/stc/x5Cn2RgjtY2fmxmjPVIOtZYY8NYhPGZy+9TPeM9/vlh8rQg6cngPkl8cqg4LVhxenDLyecylpLOh5IuziZdm9vplzmPlDPfK3ceRtiT0IMfz51HzZzlwz8Wgfs5UQtwmPp1+Wm56/equeFdhP6FgTlaw/rQI3hmxlgda6yh/kOE8Zm+9kMD+xMdfTT//DDZSVqf4ElPBotPDhWdDML9ri3p0S93nhfulBfuRVhPijnhlIyZ3vxjEQ7EbAag3/1cnx4BSH5Iw/w/S+1b9rrPLfS3jaz3LfSxHknPHAMzPoRrP7CyxunpHyDMD3inBrceGyQ7SeuTxCcokhMBijSa6vizGYtJF2d7XZrlkznHJ3MOKXMOKWsOKXuuV84crPw53g8ody6JsKIw0tnZQ5hpWwGstwNgtNvsAGBf8Na7m9v7fz36MT6weKIe/IL7BE92kiY+QREf97/fLyOs0y9rDgn3ywt7ECEhXu5cUmHob/xMDvv/mB9rNMz4D1z7Acr6RE9/3zV/Iaqfg6QnqH1Sl1/LsT9cW0S6MIt0caZ3Rph3RhgpIwybP2wEwzDCvLAHlYMxE1Qwm3Rm1mDGyRR8/sxOh6f83rcwPJCO+S5Efx+qHYP7wcwx3LRg1c9UyXFKnyQ6Hig+7i8/SSX0y3QRZodhhP/Nr3Mxiw9r133+LFL6zEH0E1s87Gemj/FIOuY7EOM9qHY0whyro4+Gme9x02gtRyniY4F9kuh4oOiYn/wkVfnzM1cXks7PJF2Y4XUt1OtaKOlaKCkzDCsrFPPLDX1QuPH99w+P32gz3QNpGW9a6O9aat5FmB/o6KMhxmjuKUrLz4Gin8l9kvAYWXTMT3aCQuiX4SLMCsUI/4tfqFc2UQ/L8tPU8K5Huuv3NsL8QNvwNsR4h5MW2PJzQJ/giX4mC4+RhT/74n5XFpDOzcDm7+ps0tXZ2PxluML9cmY/iJAQLzvU62HZfjHR3/FIXX4wc0yXn/Kov/BoQN90109xdBTud346hoeH+2XOxuYvZ/aDyprtTdhA7z+YgM3hMABtlZW9SX/ndW3NSFPzi4jgPWPdWx5J2/CWufYtU+VrUMNb+rp/IfTXuccC5If9BUd8CRP+5OdWkp98RUdI0p98lT+OyJpHujzN68pU32vTfTKne2VO98qa4Y2XPdOns1mkbKIKZpKuTiedn+GTMdurOIx0cw6pdI5v3hza1dGk0o0T+E3XjcD11YpGOwoZsFMUendze//PAmCAvQEqtCuOa5mz22pe1dT9n6HhHY/gGeveelT8bsz1yQ8PzF4QnDsvMH8WKWMS6cznpGMT/C9Ne45/MRWCVXon0OutAHECYLNglL26ue1nRbEL3QNgdljq9fLvNc1L9XUTTVUfP/F78PxlTSZdnkq6NNPv6izvy1NJF6Z6XQj/w6W1o5vPHgRtfBtwmJ3AoNYDmw0Ah8a1E9gbQLf9AGIE2Dm42GHYCMK0qk/b+VHW2hmPih/hQvUBD/bV8jN/Bil7pldGqH/WHP+8cOr19a+wj6zU3TwNbKgdYMs019fmWIEde+9ag+3D9+r2/wAF3F/2Whm+0AAAAABJRU5ErkJggg==;" parent="1" vertex="1">
          <mxGeometry x="875" y="210.54000000000002" width="80" height="79.46" as="geometry" />
        </mxCell>
        <mxCell id="gHBn23wMbkpfhwxa4SyB-32" value="" style="rounded=0;whiteSpace=wrap;html=1;" parent="1" vertex="1">
          <mxGeometry x="550" y="172" width="220" height="270" as="geometry" />
        </mxCell>
        <mxCell id="gHBn23wMbkpfhwxa4SyB-26" value="" style="shape=flexArrow;endArrow=classic;html=1;rounded=0;" parent="1" edge="1">
          <mxGeometry width="50" height="50" relative="1" as="geometry">
            <mxPoint x="780" y="309.40999999999997" as="sourcePoint" />
            <mxPoint x="860" y="309.40999999999997" as="targetPoint" />
            <Array as="points">
              <mxPoint x="800" y="309.40999999999997" />
            </Array>
          </mxGeometry>
        </mxCell>
        <mxCell id="gHBn23wMbkpfhwxa4SyB-29" value="" style="shape=image;verticalLabelPosition=bottom;labelBackgroundColor=default;verticalAlign=top;aspect=fixed;imageAspect=0;image=data:image/png,iVBORw0KGgoAAAANSUhEUgAAATcAAACiCAIAAACrnB0hAAARuUlEQVR4Ae2dP2jcSBfA1dvtccXhwnBwgcCxHC4MMaQLhlTBxQVMDheB4CaFudIu48pwheHgMIf5CldfYTfnImC4C64CZ65cDB/BcDa4COuVtX+0u9r5eCOvIlsarVY7MxrNe2JJ5JFWq337fnpv3rx54zDaKiOBgA1bLLjmrwvWO2adXdbeZt4681bZ7Qpzl+6/lqHdW2ftLTjTP2SD+t3bh03G/Mp8b/Q36qCXgNkCCC5Z/4z1Tlh3n7U2mLvMGo6EV7PGvDXW2QHU+x9ZcMlYYLYgUN8dUWrezz9sAZadXTCD7pIEJseC7S6B1e3sgL0FYmkzSwJEqRm/B7iylwCJt8qaNR1kitBt1sBit7fZ4BwcbNoMkABRWu6PEEBfsbuvyWaKyBS1N2tgYPtnDPqxtJUmAaK0JNEH19xyrrMbGf1MEWay2m9XWHcPHii0lSEBolSz1AMWXEAcqFy3tjC93ioEnCjUpFdriFJt8vZZ/1RakLYwZlLe6C7xONO1Ntkh/yCiVIsC9I5hPFMKIeZcBHqtuxQT1qBARKliIVvJZ/xJ0axBl5XCSyr1iChVJt3+mSX+bZxJ0X6zBmO8xKoabSJKFch1cA5JeSKFtrjdXYZMJtpkS4AolSvRAAY/LeYwz1drb0G2MG3yJECUypPloG5hiCgPlqnn9D/QgI0s3SJKpUiSm9BK5CekEqWosbVBRlWKehGlU4txUIf5JYoUveqXbdYYGFXappIAUTqV+CCwWXWQNNx/Z5e832n0jCgtLL0AMtE1qLgdH+GtkfdbWNWI0kKiCy5h8qcd/Gj7Fu4SjdMU0jZGlE4ut+DC0Ilm2nib5oN6J5NLHPs7iNIJNaB/SiZ0Wgl09yYUOvbTidJJNKB3PK2CTmOFbHpve3sSuWM/lyjNrQGEqNzHBIGaW/WI0nyiIkTlIhpejUDNp31EaQ45EaIqECVQc6heeApROk5UhKg6RAnUcdpHlOaQECGqGlECNYcaki0VC6n/gSK6+iQAWYS0pUuAKE2XC9SM1mNG6FMiCUB1QtpSJECUpggFKm7pWfohUlDaCSXQP037PbC3EaVJDQhoJlppfkSzRkn5SY0kShMyaW+XpqNkURsOrJRDqzbe10qi9L48aL6oCU8Kyna4r5VEaUweg/OqLgxhAlpy78E/jP0w2HeJ0kgDfPC15KoaXa2wBKCDSiup3iknUTqitLNLiJolAW+dOqihdhKlXA40OlrY6Cl9I/m9XD2JUgYPbHfZLDOiVPWrdXHyexlVVGGMqtEb/YQCvxf7ht6WBhcU1zWa0oYDa6Xi3tBTSgWvzXeA3SXkq7nhprR/ZroZMR8hPXeIu6AZZkp9WnypMg+pGwdzfi9iSmmGtx4zKOtT2ltoO6dYKR02afSlMoY04jy4wAkqVkr9w+rpaKSsaHewZuGjpHTYMrdH6jms5bCOw/z7ry5v9BzmOqifL4NzhOYUJaWmrSLhOqx7x+RV3fn7T+f9oXN04Pz3P19eRwfOX384//vH+fzviF4PJa6dHaIUhwRMmPty4zDv7nVVd37fdd6+cZ4/cx4/cr7+ykndZmec+TlnccF5+cJ5twkwg9UNL4LHwKIM9uKzpaUb0hvuuzbAMP66A1gW3r7+ynn9CnAFA9vhxGLosuJLRcJHaXurzH6dD27q+0OgS+K2uAC+8VWde843tnvCzRq2GW3IKC0xa5e7pu8PwV9VtD1+5Pz2C0e05TC7We1/wNE3u/uWyCgtJZPBhQ7kVR16nhq2774Fuwr+gsXhpdYGUWqrBPwSSni6MHZydODMzmgg9MtHvH7FHeCOpd4vsnormGxpcKG7R+pBXEePCf0C6Gjv8SMYvIGokpXeL6YYEiZKu3taKeVe7vNnI2hK+h+8X27PtX53DaFmTFWRMFGqc1GJLgyQzM+VhOb9j9382dJuKpq0XjSUBtf6HD8fXE3NHdH7YD786+0bDqplyQ9oIr1oKNXm7nbAioryhx7So/Hvd5vc9bWpj4om0ouGUm9dR8fMg8jqNOlESrH9ffcu7UmHKDR0TRsOY4GtAxLx74WDUphNuqRcNV2I6KpLWpAC8PtDu0Dtn8W12dZ9HJTqyd3tQBK84dvjR5A/bE/CA44VxHFQ2t1Xbkg7kJ1biQ0iSTe2DKJ6a7baz/j3wkBpwFobainl3dHFhUpACjd5dGCL34ujCCgCSoNr5SWOOjBBtELb/Jzz+ZMtZR/6H+Nmx8p9DJQqTgx0Ia5r1OhonucFpDrwaXRqvQwNkV4EqYIIKO1/VKuInrP5cx4uzDpnfo6HkVrVT8dHEEBCQKnS0BEffamcIQ0fGL/u8JosecxdmAk86b96Miggt8G30tGNvpT1lCoOHflQFaWi2w/f5+2dfv4XhoInfYEL0+Ivpbi6y9avImM9pSrXJuVpsU+fVBRSuG2Y2pY9WfwGgkwvX0DO4/xc3tfcN1BF7fUrmI9+NzyrdKar7Wn3tlM6bClc+LALWl7p7fWrcZFebganfBK9fTOqeKjIqA7qkXNo5Q4CSvP0u4qd41cg2Sj7ITI7A35sViVuGZQ6DsTAFc50tT1P0HZKB+eqArxVyNrNRjQ8Ck5vRqRXEqXhZ8HwD3ehJf8ovWMrTWj0pWyntHciWSEiq+tBj6ui0d04vWMGTqVS6jgQbIMiL5EYpezYPhhjO6XqppW2oK9lwfbyRWZ6g2xK70JWGda7ALe2L0thO6XtbcmP7UiHvIplBYoeKIsLmWUcFFD69Mm4znAk5Jw7tk8Ht51SRXn2fE5JFVOOkqzeJSGJxmMUUJprBCgnn+Fpts+MsZ1SRSUaOKWGT/hOApnaMjszKgiaCoYaSmEESKLTS5RGgaZK7tyuKPF4OaUVmqqWymfUCBPZuoKIjhpK5+ekUnq7UknlzH3TtttSlZQaW98owi/nDoxkiubHqKF0doaX3pdV09Bdzq3wlTyRKBXYkFT3L2rkg6UGFgrMieWD0/RT6jg8G0nUGY7knHOHKK3kwye6aUW2lFP6QNer+2cplMosv0SURgpfyR1FlPJ+KXm80zyYiNL8QNnu8Xqr6qJHP3w/jZYa9F79tvTxo3FzcXL6uuFpZEvzE2/imSpHYkpfqUkW6FlFetVEj376UWqeoLdqou7JuyfbbanKrIbXr2RhUuZ15r4ZTStLNV9qKP37T6m2lMZL5T0RyrhSe0uJx9uA2V7VrdIQfyr88H3moIgCSiFzuCG1IDBlCJbBlrzPVFf0yJZs++fPxCkNI5amnAUefygoybZvb8nTGBOvZLvH6x+qsqV85toD/avin1DqXpTSoIBSmrlW4DFgO6X9M1WUulDay4IAEgR4MyZ8SvV4YXVGT6qvG/albS/Jazulw6YqShug3OYv3zTWvOupqOI4MNEPSrfIygqMx7psL29vPaUthZT6UMun0ht0SrPT9LgtnWZewewMlCCEoG5HgRUNWaW6RwXcaJPe4itcuZQ7vZXObQB3NwelL184330Lqyfnfy0uAJzvNjmf/rhPiRvGAvuDc5NUTv692G5LmfKq2ZWeC35Vz8XPVR2KPE30gis3eFxK4jzSVICbNRZcyifDpCtaTylj6kofNUDFq1v9aIJYjsdhnvRfFV3QJKjeGhu2TGJK/r0goFT9ak4//Vi9zunXX/Gq86oNXRIq6S3tbflYGHZFBJSqK8kbKlw1zSkMk2YMwEhnSd0FbR+GYYwhoDS4VrgIxWjc/+2bipnTnD1ShRFyWdz2Tw2zfPJvBwGlzGeKZsZEetYC7/G7bysDKvRI7TCkEDq6lo+FYVfEQKniAFLIql+Z8ryLC3kXRKyAIbW9Lln4uMBBqbp1KCJzyqs3mD+X7a6upwVBo1DyCEJHOPqljLHgQm3XNNQYD6aAzc8Z7ffeJbvzjKIKmMroISja6X8wzDlVcjs4bCljzFvToZQdGD41doknWLhJRbK7CCEN7cOmEiwMuygaSju7OihtwFxNM5N7nz+TvTqLBgizP8L2ckfRswINpapHTeP61HF++8Usv/fpE16QITtlN/4VKrGPYKQ0BBUNpYzp6JpGyt0xKOT7/BlH1I6hl0jCDcf69F18tpQxpq4GUlx1wv0bWAfl6KD8PurbN3zcxT5Eb1esT99FSemgrqlrGoHKq66UWFwbIro3uWa9aJVM8qFWoKW7Hymx9TuYPN5hk7nLutXRg5iN/tltT5+M1ju0ZtDlAcmDuvVwRl8QE6WMMXUlBR/oUPxPPvhxdABTqPVs7za5lyta7DB+bxXd99YjDcawg4zSQV1rDCligLudnz9BSEnpSm3Pn/HaCK6lXm4kT0zuLprco/jzVk96Q6RP8R0Xctyv6lBnZJpKQkmDHNYWgoUkwona8Q+1b79ZY8yP/6TW7yOzpYwxDTm92WC4UGfk8yeIAE+f97u4ACX2ofbXTWbx6+xbqtZR22tkJx86+CjVPHAqAoCzyhpgWv/6w3n7ZoJe6+wM1AH+fRfg/PyJz0FTV55PdP8ltgcXST22uwUlpaXEkFLVOhwm8XiVWh4N/vtPwO/dJnAbf73bhHymo4NRClHY8wzfmHplWxvBkAZ2M5n8digpHTbLiSFlkBOOl4TsdXjpPT/xb5ebzbDkl63jKxkiCg/ZXiA7iSjK6FEoBnXrx4zVMzqhsARgBUR0hhQxpcG1wmrahbWQ3pgtgd5xqqmxvhGlxxv+qub0TrNVk46GErB9KeGMZw1iSoct43qnBGSGBGxfDIYoFUiAeqcZVBh1CEd9I4GaYqjHK/rqYbv+/HujtL8qN4NvjDSutog93lAM6pYhrgoA5t9nZzeusgj30VMKs8O3dU9nMx8Mc+4QihvhytpNPoaIUgbF0d0lAtVQCeCo5ZkkM95ClHJp9I4N1VFzbFopd4I7aBSBSpSORNHaIFDNkoC7xHCU2x2poPB/onQkGqi3Qn4vX8C7FLOZ/FDydUe6SZSOJMEY638wy5gkFRdPC/q4bkwvabw0LgzGmLYS+Hh4K/BNvVWK68YVk2xpXBqw8BO7XSGLWrIEgssHvwryP4nShAJQB7WA9ZP1lhuHIc7XTejiXQNRmiYZSkiSRd2k1+nupf0e2NuIUoEGlF7EbFL9tuD8zo7gx8DeTJSKNaC7V3L3zALw8n8FrHUYxPr35QhR+kUWKXuU4psfs2nOhKWZUKwXnKJjOZqI0nFCIlCnwS/PewnRcTpIlI6TEE2ayUNa4XMwLXCYQ9XSTyFK0+XysJUsamEOM95IVvShnqX/TZSmyyWllUDN4K3AIbKiKUqW3kSUpsslvZVALUBj6lsI0XQNS28lStPlImylRN9U6iZq9NbZsCWUMB1ISIAoTYhkbANNGZ+IyQcnQ+oCxvr0Y9Uq4wSiNEM44kP9U6rlO3HKB6zduC+WKR0RSoAoFYpmzIHgkpW4YPEDA2X+n80apdGP0SjxYaJULJvxR3yqP5jLonprjCajjVcn4RlEqVA0eQ/0jsn7zWIVKoxhL9WZV5cE5xGlAsFM1Aze72qWpprvkaq4Q3eZvNyJ9Eh0MlEqksyk7T6jVWfiqHd2KIF+Uh0SnU+UiiRTqD24oJASIxNaSHcy3kSUZgin6KHeCdKioc0ag+FQ6oUW1RzB+4hSgWCmbA4uWXcPV1SpvcVwr4w2pcpkvJ0ozRDO1IeCCxRDNd4aG9SnFhZdQCgBolQoGmkHBufMW7czAuytURRXmp6IL0SUimUj98jgHPpszZoluLY2WP+jXAnR1UQSIEpFklHTHlxDLmulWe3ucf+WMubVaEjaVYnSNKkob/PBEHlrVcL1doX1jmkIVLlqpH0AUZomFW1tEAreN7rXersCa+cMzrWJhD4oKQGiNCkT/S0BYNA7MQhXbx1SqfpnNF1bvzYkP5EoTcqkxBYfXMr+GZiv2xWt/nCzBpkY7S3WP2XBNWUmlKgEyY8mSpMyMaYlJLa7D/B4q5LzmdwleBC0tyD7onfCyTTmi9ON3JcAUXpfHub+FQBIgzqEnXon4I52djm9awCbuwwMN2v3Xu4StN+uQJiqtQH5Ff4hvLd/CtcBg0lxWnN/7/id/R/hmbt1+waVFQAAAABJRU5ErkJggg==;clipPath=inset(0% 22.33% 0% 23%);" parent="1" vertex="1">
          <mxGeometry x="561.63" y="290" width="85.13" height="80.98" as="geometry" />
        </mxCell>
        <mxCell id="gHBn23wMbkpfhwxa4SyB-30" value="&lt;font style=&quot;font-size: 12px;&quot;&gt;Python&lt;/font&gt;" style="text;html=1;align=center;verticalAlign=middle;whiteSpace=wrap;rounded=0;fontSize=27;" parent="1" vertex="1">
          <mxGeometry x="225" y="354" width="100" height="30" as="geometry" />
        </mxCell>
        <mxCell id="gHBn23wMbkpfhwxa4SyB-31" value="&lt;span style=&quot;font-size: 12px;&quot;&gt;Airflow&lt;/span&gt;" style="text;html=1;align=center;verticalAlign=middle;whiteSpace=wrap;rounded=0;fontSize=27;" parent="1" vertex="1">
          <mxGeometry x="315" y="354" width="100" height="30" as="geometry" />
        </mxCell>
        <mxCell id="gHBn23wMbkpfhwxa4SyB-33" value="" style="shape=image;verticalLabelPosition=bottom;labelBackgroundColor=default;verticalAlign=top;aspect=fixed;imageAspect=0;image=data:image/png,iVBORw0KGgoAAAANSUhEUgAAAJQAAACUCAIAAAD6XpeDAAAUXElEQVR4Ae2dX2wUxxnAl3AqKI2ihlc/ICSkijeQ5SCCkIVdOQY3cjFKAEF5CAgEqv1wBmLAUVIrEYEGQSEpD1CKwEKufESUIETdEB6MZSuVYx8BG9cSyBhjfD4fhw6bYM5sM/Ptzs3N/pv9v2uDVtbc3t4dt7/9fd83s7N7giiKz/v7nl67OtFxgyzPujthed7fRy/ZZIJexFf//NgDwz9P3slMiKIoPO/vG1w87/58QXUZXDxvcPG8B0UFQ8WL0FJeNFRe9HBtyfDGyuGNlY+2bU5Edyb21iY/3//42MH0uVOZi80THTee9/dlkwk/vtf0/8wf0xmh/ZbQfutOZkLIJhNDxYseFBU8WLbAeCkqQFtSC9CFvwT/gCDAcn++8GDZguGNlcnP96fPnXp67eqz7s5XaC0fYghYaxzBa41fHkkJoig+6+4cEARefjyM6W2KChizh4oXPVxbAtY+Pnbw6bWrz/v7LH+fmfNCRA47lwcP+Ek+0fvdvTZ2l0AFTR+uLUnsrYXA+yrqMgdlzjng1xpH8ZNs9Ly/D0U5zvjpBlfZ0cHF80DNx8cOPuvuJP/DGdvIc04VHpSdKO35yI8cE1hNkkQfbducudg8M0GqkMM5L888OK7994/woxoQYKH2eXzs4MwJqsM/T+byHEl4WvDAv9HVSwLhH8VPqoSLCu7PR6Xs8MbK9LlT05uiRA7KS5qcDjwpfuIMZNx5UO5fT9aAi0PlRYm9tdOyWNUjpw9PFEXU/ysvQj10T2BY/BS5xnm0bfNEx41pU9FoRkvKP5QLdb5wNpkYXb0k6PzwsQWjBMMbK6eBhQbOyfwM4IXGPzk2QCxN7K0Nby7MZKfUKxSZGXnWGF7o+D1YtmBw8byh4kWZi806QSWYT/0y4ry+u18aAFPQItigwQWP8IOBSovJSZbDo5cXFQwIQiK6M0QKmiIntN9C0ZXzGMwmE8MbK0OR/8jxAYkwFFlQipaqvQINBU3AA/8eri0Jk38wWlRUEPAQmslO8UdLEjzNwQN+j7ZtDpd/D3C/Pn3uFGeM8XgziZyGXgQV01jf3W8aHvAb3lgZMv+WLbg/XwggP2vO/XImdn13P4q0Fg60bDKRiO4MI7/Hxw5a+L4uvcQyOVvwQu3f1LnjLsEw9baZ7FT0zgBnr4CJmQAPzWEx9ZHMxom9taHzb3DxvCDws0NOaL8VvTNgF54oimHMf6Orl/jLzyY5x+CJopj8fH/o/BOrK/ziZ6FXwIbN1rgz5kEgDVn9UlTw9I8rfeF3ejBhOc/lEDoLTxTFx8cOhss/cfc6sbri5d8amETu3kP70VLi1xo/PYimxdoqWJjvGa76RYxWAT9v4qczzkFfHk/adBheuPxDkXP3Oonflx8xB6KzDx1zTob3YzrjPLwQ1S+jq5dI8FyOn0465zY8URTT506FIv9JkZPyz/FTSM6TwxNYMtkpV8yDgBOC+qWoIA+e7J+D/Fwh5wE8URQzF5sD7l8u7YF8mN/Ulx85ws8tchgeGOJktalM8gGPnyrwHOKHyJk8y2Nqey/gBdy/vJqFyAfxs2GHZf9cdA4fEOu7+z2CF2R+mvBs+Icum3PTOUEeXnGxYGFCaDDz31DxolxvgTZPrj9fmvTPbefQYSEPr3gHL+dfEC5BkqeyGcDbvU6MVr1s2ME5hQk5Z2YGkUVB5eEVT+GJovj02lVUfwaGnzE8zE/cvc4w/3lEDpsHwytewwN+aP5SMPhxwePwzztyOJvCrSB8gBco//QKFiYF4lFs1fjpMTmYN+ZdtckUL6IoTnTcCIJ/JuDJ8ZPhh8i5Wlsq3hzmjfkJT8U/cnsQuZogE5/da6h30hnn6IfRKjFaRfIfuSWKl/zgHLrP8MA/mBH7YNmCnlXlPavKb69cQa5gdo+Z9M5wPp1mw9OW46f3zsEhAqdh/YcH/sXfX7flZNfy2MgbV8TlsZEtJ7vO7joOtxJwl59yYJoHnhw/N/yn1UvhpM+i+gn+FCx0CvwhJb7Rgpcr4huw4IfLYyNndx2H67XcQ8ieVeCEh/nd/GKPF706Jue1xod/niQ70N2BafIxqo3BTD42wu+KRHTLya6eVeUunZpA/QSYCcHPjNryZcMOH+RrjdN70jd4yDmalmobW3h213E3SlNzpSaFjYyoeQ+PDEkDQn/gIeeuiMK3HPywhXu/bLk/X3D26iTTpWY+v8THW70Pm3Sp6U/O+yGFsPGSkxPh8tgI1KJOpUBb8KJV7Uf+7HXBkl+t+ADPnHN0LG0Rt5zsctA/OwlPrK746z+bvIbXfouMavoQNgcz5p3L57c8NuLU3WFI6rLQeNmww3ty9MCY1/AGM+KG71+ai5Y0OTl+gn82h7ZtVSs+acdUK96FTevRUoOfrfrT2tgKFCzRKtTDY7pfHjykzsGS3oIX1aYzztEUW8SDn31jp/9nPeFVV3jfQ0DHCr47KsHmUdh00rl8fjCKZqH4tB4zo1W+1CkAjyHneth03rl8fr+Mi1ro/FnsJFRXfP/1X3wImFg7ZcJzHZ4DFQpNi2m3oIHsofIis8WLlZjpV6qDbKro4bkbNjPZqV3ttmtLhpbyYYsIgy+mgqfpvgGQ82BykXbhQ6Y+0MHTrYLFXedoii2iieRnoc6srkAjYdq71YOnVGOmK2HTI+cofstjI/zJz1zMDIBz5PYBtHNuhU3vnCP85JEzw+Bprs6srvCnS8dY3hpXjZnOm+dFniPM6EaLeGFng2HPz0SdWV3xr1NfexASDT6iNa4VMx2Gp0IOzpLr/6UZWG7jyvP2yhV6lWdRAVepgmcZnTr3D4Pdyvjh0kO1gRUSPx0rWHLkWqRzdcK34tzzL+acGC85nI4ceEIvJYfTc06MzzkxPvf8i7nnX+QGPAGzNYRGwy5cMRPPb/dnDEUDPz3vgWBzMuftan+JTou3oJMGc06MRw48EepTQh1e9qWEfalZ9ewi4PVkG0ALOBFLIqspkC1iz6pyrW67calSXYHO0vnaJWB0Z86+Og9vT1xihoABEviLgQn8f2XMwr5U5MCTHEiY0sJDUbtyMZjZjoXb/80lZt/5/FC7VHHGvD1xpJrkmZphSuc416DjoC4l1EsgczrqU2wRW7ftVsqnV6rgqjJQoRIdNNR1eIxw5KGtnIfyHA6PhIcJz3SNnFWPsMFfsHkWTVHHRVy5KMtO9VIlWpX4eGvghJOTH3PenDAjDevwDn/3DJnhqG3kINBqEBfnnn/BTvgkRmL5cvxUR1WiVSIMNAcpw9FRWqeHYBceIhcdo/2A3U10YZ4yu17/5cRFFLFhChouccm03eWxEdRhly8kyytVcE/g5hd7AhcnZeEgZmp1zAk5i/28WDsiBzy0FPFmPVCMHHjCioj77PA7xXk9BDxQGdg4SczTLzIJP9Nhk5BTyqSvi6lnTW+8D+VISUSc9lZs/2R1efnSyvc/2fAHlPBCgg346fTtCDnT5nXenRTq2B6bN5IZfgqpTuecGF+x/ZOypW+vLi+H5bPflyHbgpreiHAQMOnrgGhUyrYJ89DEPbkrZrgrfdxAqE9VFv+WkFtdXl629O28HURnl0C1OboHNEIT8D48kwHtlAGT5D+tp8yuNxU2894c9w7DCg//QhCNR7/NCw+VlzWovAzyAmWU0Ni+vPZ37614F+QrW/r2OzV73hrw+vpjC67zVJg0Ti54gxkRmOUd43InmlhCGvqb8Txr9q1Q/69m7Fd/7478tzbSt2Z22xrg996Kd9+pQdMs3xpISfyCmfl0zx7QwOg2FzwSMAOoHcJWl5Kw3V0Z6dkAy+y2NcKFMqG5WGg7AuTov1AaWJDDlZdYIsdVbfYMvRBqpF6dvjRmddHZXucp8n9A1VN0bM6J8dltn0b61qBFJhfp2YDIXSgTYqXChbLf/K+fJkfagUBoskgxZ17J4bTHY2A8fgvRsciBJ7Mvn4ncXclgi/RskLQDfk2FqvIRhH6mQxvkjM2Djh0afVZkOOUaHl04t9HbrA4JJzS2z25jbSPmSdoBvAtlQlOhlnw0Qu8pco6k0LbRbYOc98FX6UD1yoUaOU5S6Y0wy8t2hBzOfLPbPmU46Tx0JbHldyjfGkjZJGdgHn+2Awv1dOEQl1ZZ+VaoMImOvdb4b0QoP70x8F67WsGah/m9ebNNB5jWU46DhA+yT84AXnCKTMhwr7edRhmOqkpU2yrkMLzIpU1ahDjX2wRJPsURcnrweoZe8PTt9HVRCsS5ht4MnXs6clsnw9EI1bWTK5df37pK9qBTDR2iqh/hFDk9eHD2gKfwc28b1BmowaFSN07S8NS1A3ix0silTZyVi+p+t7/SQXJ68EgPgXZLv03rYrONXo5HKVFngJtcXg+BLlhIm6PbYJ+Q1js4S04THjqB4OtIJoybSL1voyRHzNOLmRQ/a5WLFhL+9XSV70hbvasAsxz0PVM+a9M28oZCHZoxZpZcblSFcFJtNBfbr1z4gcGW0TsD8AMyjjAjb6IOj8RM9/KZ1jtDtxLGl4lSPA3jmElYeh48ye52tqECr/PuJOxZogKnUpyb6bwtOGeBHK92hF9zsTfB0yXn4CBQgedXnQkDzRaiJXipV2cSZqSBB6zNRj8L27sRLYm+KvDIkJiOIqqSqa408SbRMdQN564t6VhqImYSfi4nP/pm0GR3O9tQgUdOAGmlJTfWm+3P0eQiPRu46kyCjTSai19vO23BJ56XcM4As4OThYdOI/CdvVMqZd28utSsI7d5hr4YZuShuZhJ4OETDm4Mu3hATqWfB5PY3XBL5z2F+pTlVMeevaPBcLabi50ddvGGnAo8lPDwBFYLGll4CTpTCOcKOEaciWdMw2LMJGhjpUJToVPFp2fkWHiDGdHjHh5UmAwMsw+tx0zCDxcv9v0zO/3LTsJj4aGEJ2unE+UcfErSzlKFCYyt1JmEGd1oLuY/4a5asHjpHFDPK1hID09ZjPCssRI261JC2xFr3QOH4cFUM+3ZSqrAyEqPnVOBV3txwstJD8K+VMnhdPlPfzIbJ+ntHTMPLLSU/3whx4ZNkvB4PFNuY9Y8YR+6rocmYaFtt1qhIyfhZ6b/Z3j9qs3EpvPyvLDp8WkgMA+dIuc+6aPc0nl4gLCpMHJpk2EJ6pdzbNg0O93Ivnlgqp0enunxaKVnOmuai4VYqc4QjI/OsfBIteJgMWn4VjA/xU7B4kA/QYcfHoIRmgpfbzv95s020pd482bb7LZPL9+7rhPTPHgqFzahWlH6xL/GQs4T9qVi7c86x3+yxs/hakWHYlOhgKfARC5tilzahC6BwGu6Rns9gKT1ETl4aKKfh7d2gO55513pN6m6RnuV+cxwjXfwgGusFF38gE8nIeNxaeqjfxK8THbKzsAY2GnOPOwcfUwh/0xWLm5VKzoKMk/FSoXmYr/4SfAGM2LkwBPDFOXUBkJ0jDhH85P84x5w8R+er/5J8CxMsVXmQl7z6lCeo5nRbVPx0/VqhfFM66FP/knwyNVATrml9T5CzZgOOaCYnEyj+MnhX1Dg+eSfBI/0E5Q+8a8xNk/XOcY/nmGzAMEDft7mPwkeuR2VljH21/M4R/Pj8S9Y8Dz3T4JHLgji90y5pZZ5cGdAw2hJk4N212gv8k87fgaiYGESoYf5T4JHZozZN4x5B0SuZuzwd5oVipIZvSY5iU87aPALIjxg2bjQg/6DBA/tYtxDV/rEv0ZpHsxysOAcJz+vO+mMZPoPmwqPxs/SX8TxtgwP33+RkcbmQ5vO0V9Vy79Aw7tQJjQudJUfgpfJTlme7kd7SZsHzlmOljQ5aCcn09v7G5T5L3A1C6Ojm/4heI5f0AXO1V6cUDKwsyaTnVLWL0GHh89LuOQfgmf/TB74B+Y57hzNO5OdYvwLbs1CK9hUWNd+iP4ijrQRPJglbTPDwctdco7+qkz+C3raIwhdiJ8IHgyv0NnLcluIWu8V0IQM28S/0MDD8dNZ/xA8R4ZXwLkPz2QM97sjG9DxMwRpzx3/EDz7M/48iJaqyMG/MMnnqH8IHoyNWQ+V+HoDz5yjKRL/wiSfc/WnDM/qBAioLT88k3H1ElAamLK9vb8hZPJhfls76m3utBw8C+YBuQ++Stv8Tyh5mF2zvb8BzQgiqSUUDdx/sLPrBDJ7xWxXIQjO0Yzr2g+FkZ8d/3LwTJmHyNWhKw3sHDj0rnekHUp+zcWW+QkWrskLmnM0+KPxszPHvxw8TvPAuSDkOZoZ3Zb4kdmVoch/2L/kZJr+IobtHDyenAfOffBVetCjvrjh/199A8QPX2kQphIGX9piih+CBzM2Dc0jeS7g5IBn12gv4tdcHCZ+Jv0TyIxNffPCRQ74JSfT4Sth8NXxnP4heJzORQ48CYVzTCRFIVS+ZDkcFnLzw/B0byIAzoWUHKtgWKIoHz+BzJVW9W8akCMido32bu2oD00i5OAnwdNKeHAPxTBGS8KMaVy+dx0hbFwYgnLUiF8Onop5+I6z04kcASlZCLkwyLEU/9+06pccPEY+dJfn+tS0JEcQJifTR+Nn0ZWujQvhStcgVjTa/mF4ih/NhvsgTW9yBKEoikARhVN8siZwvUN8FbXyEuocPGIeIleX6hl6QX+9GdLuGu09Gj+LKDYVSjoGZKQGj/Yx/HLwpJyHz8rOTHLMAUpA5u4g4O+QjcK/HDw06xL/nOArcgzF5GS6a7T38r3rde2HpAQJObKpUCpZ6bsMuDoOjusX4p+Qu6zylXMMNO2Hycn05XvXIcBu7ahHRKFwbSpE8RYEdem0RqxUaFwI/DA8/OMlQo36Rf7aX+HVM9IeADXBzqPxs3Xth3K1T+NClDthAbSELmRT+EtuEsIjMT4skpNpaXhsVn1K9fYMr/jY3wOZ7FTXaG/n+E8gK9AFwFs76skCt+eRJMZXaEoGww17CHhoxErRaRO4VmHm9Arsw3D2HTLZqUx2KjmZppeu0V6d5fK96xA2/w8TgegDWfLgLAAAAABJRU5ErkJggg==;" parent="1" vertex="1">
          <mxGeometry x="680" y="180" width="70" height="70" as="geometry" />
        </mxCell>
        <mxCell id="gHBn23wMbkpfhwxa4SyB-34" value="" style="shape=image;verticalLabelPosition=bottom;labelBackgroundColor=default;verticalAlign=top;aspect=fixed;imageAspect=0;image=data:image/png,iVBORw0KGgoAAAANSUhEUgAAAJQAAACUCAIAAAD6XpeDAAAgAElEQVR4Ae29Z3RUZ5rvq2/3rnU+nHXPmZkzc+ZM95kODgRJlZNKCYFIBue2u93OJiiHShICg1M7YBuTQRIo50w2JtmAQkkVVMqInCQUShV33s9d7y4oRGnLtmgkGJrt/yq/uxBIqt9+3viEIJjmi2VZ/u9AeoCkSAa8AB4AjAIgCMA9wAAnBlgKWBzQn7uBdbGsl6K9bhwbcLp7B+yN524ctJyvaen58MhlQ31/Yont7Z3Nr3x9ctmnxxZv+H7Rh0cFKYWitGKptkyVWR21fl/sZ0eWfnV82dcnE/ObMiotXxzq3f3T5YrWm8d67eYBut8FYwB2gDEWCPTjksC6gR4F741BEjAAGoD0umi3g/upwOsmWJaluYv/t5uRd4Nm5LvwfROGZEkMwwia+2goivE6HbjLDgzOeJwelxtnENQxgIsEGAfIj2o6M0rMq3aceuXzA/Mzq+SpJSEJBXPi85WGfLluryRtjzB5jzCpQJRcLEkpk6VVKQyVCkOlTFcu1ZZJNKV+PfXe5rkrt4kSdskTdygTvotM2rQwfdvzGbve+axQn30g5wfbqX77RSfYuacKA8TS4XG73HaOKEWStMvLcIDv/lIMd929n6nWQ4PHAItMjMWBdgPpBBpjgEUPOOHBKPqGiz7ePfRFddurf6sTJec/9UG2fO1JSeaJYM2R2amHnk09Mld/XLyuUfqxUaLLQ9LmS7TFMl25wlCtyqwLy9ynMFTK9RUT4Ykz6uRrGhRZ9fLMGqm2QpxeIteVhmVWhhkqZKn5oSu2znnry/D4zR9s2rfr5OUTV8GFUzSgn3UMXU6aw+kk7+HzsEzw4cBjWdZJ0iyC5ybsVxnPLQAKA7jiZns9UNlyIXlr7XxttlJTpMw6LFn3Y/Can8L0tWpDXWRGXVRmffSaunmZtxW2vjpsfbXqwxrlumrF2hpZZo00o0ZiqJbpyv1SGCpVmdVha2rUWbVzU4pD0soFmkqBpjI4vSpEUy0w1IkzDzyVUBGsqZNnHpQZ6gRJRSGrs4Vx2YrkPRlbSwuOGM/bGQ+HbWh4zGEfA2C8Xi9N0+MZsixLkvdSHf/H09CeaXjsnQv3DSSkk8LtLFCjFPzQPfBVbeP/fv3T2at3qjKrlWvqQ9OqZiVVivSHwz8+q9Tmq3QF4fqCcEOeWpOtSNouWb1JuOLruZqCYE1xqK5UoC8TGiqFhkqBHkmZgXpOn+WJ00tEacU+qfWlan25Sl+u0JbLNBUSTYVYWynV14oz9ssz9yuzDioyG2S6Kml6uVxTptRVLPiwas5bXyre/9vnJScvu9DgByxOj13zkWNZlmEYPxcMw/ztGWg8BHi+EYIGQHMUbrZivuH9vOKnVzYUzdPvif7OJtpw6pm0+tmp1fLMg5HrDin1NYLEwuB1+4LX7Qtdu0+wrkG8fr/s4wNhnx4O/9v3Il2FWF8pMVTJMmsUWXXKtfU++bpN34A3Hl5EemG4pjAsLV+VUiBPyZclF8hSC2WphcEJuaFJe8UpBXJNieo23VJpWtFTCWViXZ04pSDk7c+fS/1qZ+WRa8Oj3M9+mw5BEBRF+W4CbHG6+T00eJTXRTBwE4P9NntS9o/SpNxnV+4WpJX9Ib5aqD8c8fGP0Z+cVGUdlOmqVIaayHX1sg3HRR8eDc48OEvX8Iym4Wntvmd0+2cZDsoMNTJDjVRfLdFVSXRVYl2FT/55ilRbJtOVy/UVyowqVWa1SlOuTC9TpJUq08tU2tJwXXmEviJCXxG7oTZybYVcWyBM2RualCtIzRdrimT60qj1B4WppVJt5fyP90do86UrP//g69Iy4+WxsTHfRJphGIIImMFMN7Xb//7DgYeeUBrHcKbm9LnnMgv/882tAv2+iM9OizIPL97w/bw1+5XaaklapSS9SqyvkWTWS9c0RGvKozTl0dqqKF1VhK4mXFcbpq8P09crDfUKfZ1cVyvTVcl0VXJ9lcJQrTBUj5+tiNNL7krXINLUCNOrRakVkrRyWTqSPLVElJIj0eTJdAVSXZFQUxSqKQ7Rlgn0FeGJuxSJuaLkQqG2QphRK8qoFulLROn5Vqt1dHTU9ykyDOMD+dhZHo5maC4AJxoaKBYbAdoBQI4CbDncHqYvfEbTINhwVrDmB4WmamlWVbimUK0vDV9Tr8raLzLsm5teKzTsV67/IURbp/7oWEhKWeSHB9SZ9ZFrD85ZVRSZdViZUavMqFUYanyS66t9kmnLeCXVFPNKll7Mq7tfnFYk9ymlUJ5SKEjYbig+PQIw4hwGcDDkkJscm9ERD2D6LY/ysAAuBnD0lFIUNgyAUwCFTVdWbjskTS8QZu5XfnpWmvW9TFMdnVkdnFomy9inWHdIknlAknlAse6QPHN/aHqFYt0hWdaBmE+PzU0oUOiqlfq62E+OCZMq+MnpqnjJybRld2HcS5GXnCx9HOl74YUk5ixZk5/7fauTZknSSWBDACTOPmazTYakaNZFo7kJyxA04aQArjqxpZ/tVxlKRWnFqqyGiI+OyDP3S3R1yjUHRB8eE2YdERr2haaWBifsDVm9Sxy3U5G0+9lVuU+vyF7w6VFlBuohhclliz47IUop57E5rv+cbngiTYVg5bblmu+a+25hNGBeJ1rFo0nYzF3Tb3ksSZA0waJJNoG7ACg3QMXZjmc0DcG6OpmhRp1RjRbIukpxRoN07dGoz0/OSsgLWb3j/W3Hdv14pcx4c++Jnu37W/+6+YeYzJI5K7bP27Bfqq1UZdYJkorD1zQE9pY+ctNveRL9PllKqeTdjSnfVNgB3BgNDMnt5z1W8NDDyK1mGcw9QgFcJuCDb8ueMRwTZB1TrTsQZqhQaYsV+gpxRkNI5n7BBxvf+qpm76n+7lFwA+ps0XKCgR4S8ptuRqftFMbvlOvK5310ePbqAnVWw91B7g42qbZSqq2cbsuTauolKWWS1dnStz8vOdVvp4AiSKBndNSbAcu7s4ZlCdJjxwEaByhp/NfBhiOSNUeUWQfVWfXqNTVha+rE+qq5aeVvf7j1aOcNN8fbNTaEOYeB8pCYEwMYpKGs5erizDy1vnRuQoFUXysz1N2entxLbgbghWmrZq/MlSYXKZNyFyRsuuRBDyjjHZs5u5uJCQvasAS0bcl6gXF7AKo7R59e8Z1KV6PQ1coMDbIsNCtRZNXLMiqluiLjheEbHtpDkG77IOB27lSBGnU6KMd1gsLHALYe7QvX5P3m7a0RnxwL0dTK9dW+RQLaFuFsTqqtlGgqptvyItLyhXHZwpTCyKyaP7yy9kDHIJqR0Z7HDR5NUjTuQfDAO+il97Rcn5WUu2RNZYS+QqKrE2YcEq49JMmsD8uqmLeubATATgLF0KjLpL1O16iT5D4S6ho5hiyyZRiUybtCUotjvvjxqYRSXnIzAE++alOUvjg4Ye+c+D2KlF0fl55wIm6P12yTAhKNWhRgwBC0AyjYWdfxW22ZQlMTsW6f0FAuytr3bGLVgg3H5r75xebj5yiKoRnUBVG3RTLoQM2LA6CdQ4YmAJK/Lp2Xni9OKZJrH9ySIK1Iyid5Sj6vxIm7Vam5Ybqi0OQCcVrhIn32TTSf/seAF6avV2XWhmhLFB8dCklvmPfhUcmqbQVWO7DoNBbDMIfDgZMEOnkACidcdpcXfTQsNeAgdxy0zTeUhsTnK3TVD6x75CMnTSviJSdPyffBU2kLQ5LyRakFsdpd17F/GHjhmQcVhuoQbUn4p0eFun3qjEOyxJw9FgfQXqBxYAjuzJo79eMO/pAdsjiw1E0383WdRZFaEJxYGLl2/8OCJ0nKVqbkKDUFIUn5wpT8mLTtl13/MPDUGQdUa+vFhlLVhgMibYNcuz941W5NlRWApAk3S3jQsolmWJxmCc4xgsXdIzcpgnQAvLq+JDguT6ytVuprHhY8WUquIjlbkZ7vgxeVvOW8nUGP3Qxe075UmGzMk2rqIzYcUKxFRzli3T5l5uHZq/ZEfViGAeAMGt5Itxu8GFDc8p4BwuvwOu1uCjrGQBq/IyS1UpV1MDSh4GHBk6fukSftlqflhSYXCFPyIxK/OzdC/aPAC02piVh/ULWuUqIvlxsORHx4QpBW8WzCrtwj5vNu5L3CAngcY0DTwALmwTEKWeA1DyTv+F6QVBSs3Re29pAyrfhhwVOk7ZUl7pKl7kWeTqkFt+EFerdMrxk+NMsTafaHrd0nX1Mm0ZcrMg7KM45KMg/MSimMTN21/cTFm4CmmARFMjTGMrgXc7gBbhKwtaFFHr99TlpNSOZRsbY2ds2D20mZ4oRFkbZXmrBTmrJHmFokSS+KSPyuf5T+R5ltKtccVWTVi/XowFOm3z83qU6ScVCUWSNKLVqyrvzT0h/bLg5yu7w4STsIaqzl/PD63ZXi13WLPt43W3dI+mnTM6sLI9MfWrepTM/zwUMOhpriyKTNjyU8Cm1QonUeEIwdrfPqLb/VFikNt89RfUepcl2tT2FZBRJttkSbHfNJ2Z93H1tVZlxR2vjm3hNyfQWvpJrSSTTuNGf86c8ULUyWnMevlNzxY97tCctj121ODZ40vVyUWhTKLZ7kumKFvkSiyQtNzva7ggU0JiFXOtm5He9K/GfWc/zkkvNkT+Ap9HUBlqfOOByx5vvIrKPhmYcV2nppWo00vUqmuceVbzy/J/CmcVJEwdQsT5RSK9PsUxkOqTIOKvQNch3qXdVr9o8HNr79BN4jBE+srUTSVYi05SJtqSC9MCQ1Pzh1j1Rbxq8nY9700Zuq5UVsqA9bV6NYU6nIKleuLVNklUoMBQLNE3g8iGZgnTe1bhN52GnLBZoykb5MklEhySgT6YsE2gJ/pEhA40m3yUP1Qb01VcsTaesl+n1Sw36poUGsrxHpqkW6SpGuMoCZ//YJPB5SPqf0O5EFt/+PThu9GEOQwLBo/4rlDnC4BncOSU58JSku4I4l0UEBwI0xYnf9T8sSPpGko42JiRIn5fBKlLR7qorILBEnZEuTchWpBfK0osiMGlEC/+Ec5/fOv55TJO9RJO+RJ+X6JEvM8UmelCNP3KVM2RuSmCdMyotK3HxxmAYCu+1CRtMMjdG0m6ExzosAKHDyyufeQwGJA44DifYlGM5vh4dJ4FuTdpvjsY3/Sz5SLABFo291B6L/7DSwgXOnOugnYtBBJQ5wbpSpb73c2DfIq6a+gUl0ralvCtrf5ajucCXvPRNtKBEl5wsS85WaElnCnsnO5yZbz00ZHsOFhXIfAwsMjcQB8v1v4uvtrydp8NLgRcGdDIk+3F9xTQpvsr9LkCxOMAR5J+L1Dkzk48AnjAWSBYrEKa+TJTGW4zeG/hbFLwYDXrFe5Ejx6wUoKOu7fSZ12p7gxIKQpCJlWnFE2vRbHufzxmFDAAnu98UAGIrlFTqIoHCGJmmaZJHZegEcACOTff7j358yvHs/cRJoAggX7bFz1n47JHl8mwtqZtCOLeMF2gU4Qgh3nkeeB5FF1jxRdx4SX2/9y68w1g8Utqn8mHjl5uDkUpGmSpFaFJWSM92WRwPOonMsbkzhPDl8/Fjw8IqmSYZBZyfIArmxiMPtGN/zjW/fDzz/3wfKiXykKDcQDsY7xuBOzjuBBMLFK4ZhKBLnDse9iB/uAK8dKA/yMuYTcmDh00ScP/8O4NeAJbfX/qRI2BGaWi5Mr5Qm5asTdk43PIo7zEIOnLSTC3NH4QwAw5M+bshS0YDCskCzaFhxs+DgIlf8n/n4xtTg+eIHGYbxBe8ypAe4s21fgK8HwMGiOPzJLAPjIvC83ONEcN2Iz7No/A9xT3uy7pRl0OzoV4umSTsNG2uaw1Jzfd2mIrVInbJ3uuHRLEo9gI/aqKHDMFIJ9kqw1zL2BmyEX4zjFLgbAbMAeR7YERbNXBBP34Rx4uv4z+oXuk0fOZqmKYoiuQvRArjgZIzXvUd6xwqN17852re+xvJVjYlX39Y2baxp/qKq6bPyM59VNn1RY/yyuvnzysZtNT/yamvlMV5tKT8+JW09aP3ucPdfvqqXJWaHxOcKEvPDDRVhqYXTDY+lAXdccF0rdPWnYedepftfIfveInpXefqe4xXenUD2JlEXdOz1z2G0BPAWgFHq74TnM1WfwfnIEdxVZ+zfWHnirx/lhK3+POSDr+bE73gmfu/v4/KCUyp4JYvfEpaarUzPEyVmhybmSNLyJWn5woTds5MKeTUnqYBXz8YVTElPvfO1ODk7eMU2cUK2IhWFv4brq0JW5U43PDTR93YRN770nFtAdP2O6fot2xlCtSuhXc0viwwsEsYiITvm4+dWYNd2YKNnMPfViTbne+dey2MZYFg0ZqL/o96Pm27c3hYBBlw4O8iAyQNfnOqL/DhPoK8UGqpEGdXizBrJmlrZ2nr5ugb5ugZxZg2vxh8ayLQ1Pkk1t5fevgX4+NepLrpl2hK/fMdAvrXjVCH5V3IBDf/CLqAhTs4Wx22XJeaI4/OlSfkRq789N0QCSxBAIG/hwVxvnxw650H3K2xvNNkXC52LeUV3zecVjBwCFw0Y0MiT5xINDBoZ3ePZQRBaaNNoPLvzNsMyODAoe43H6/CgoRbKm64tW1MQumJbzEcHUGgoR84HT5pVJ1tbL1tbz0tOnFkzY/D8B3iPBzyy/yP6egE4eoBzQabRusPL7YncAYViFVigaZalfXMBiiE9lHeMJVweZsADlHHQkbT7kDRutzylWp1+ZO57ldIMlCtDllkbIN/7E18VhhreQB5/8HhA4/4sL4CcJH1SZ9nJFuMBBue/DTA4/+3ULW8hdPKI7ZzPK495saM7Br/+Gbi9gAHBsB64RqAsTXevIOTRyqC4R7SAYzDSYycxFCfoADhgO/fmpsrZ8dnPJFUp1/4U8+GZSO0R+Zo6+Zo6Hzk/Komh2t8OaEw7vHHhyL5TcklqoWTqExM/rYCGn1ZAY7rhsRYJZnsa618OAw3gYmkSvEC47+03g5DJoWm+bx1N0BRGcvm3Koy33vi8dvbKbOUnpyK/sTyTXP3sqj2LNtQp19QrMusUmXXyjFp/JgapvtrXnvjKxfajOH+5vkqmq/RJqq3gP5xDYcdT80lRpBcr0otvR4unFfnycsgeQXhdC4BXnfOBX1HQEU12RrjOvUINlgKBtsxcd60OtYJwXziAz/K4zeMBAtoHPPN1deGaOrnhoGzdcdm6H9AIp81XanN95P5+eP5ZRkBjqvD82OTjyEm5HCu8c5aH1m12xQCv+MnNh65lYHudNofbrf/pufwmuHuA9O3c3AUYhGPIqxW4NG40gBPgWM/Q+qIf5JmHgpMqQ5PKVRkNEVn75NpKlaFmwaffqzLrfAkYAtIw+GPDJzRQDjCf/O4LKDfKuFni+PZU4SlSi3ySc0ka5CmFKC9OMkqQw6tHDl7HfOBV5zLoeI61qDHLbG9PNHXzM/B0o1nLuCuIorhtfxLDvG4C4DoFmw+aZO9/LFi3X/3J4ZiP9kXqisNSCsK1NeEZRxWGE+PJjW9PYHY7t4YvE9F0wwsg9xjAo7uX0B1SsCmhfTluixnpjfbc+g7uzW0WNAzgJBxAjzKMZxRg99mh0MRC1Yc/yDNqeTUZpABDvDvDnGI+FP+8MaDhT7Xh9927v4nJZEc8AfORX7wVpOQEr94iiNsWkrBTmJytWv1lzzAGQBHgBRyogWxvrwQ6IqDjBegMp7vmTTKwzQdbDL86noP2hWCOAqucMsk8lmX0xY/B2cAyOEaiLUkMhoPGAFy4E8Dl8oz12OHt746gmcjaw7zk5OPS1QRQfFD5UAKY+W8fNXjC5JyQuK3C+O0hCTsFSbvVcV89WHhsZyxYY8EaA7ZI1qr0WmKx3nj22tdA2XESbV5jMBbkQb0mOq+xY2TOD7bQ1VsVH+4TZx2cKjw/y7s2d1/5UPy0AhqPGjxRSq4wfrs4cacgYaeIg9c7hAFLPijLw7vDqfYYsC2GjljoiCSsYS7rEnfHXwA/R+HgRUmJsCAvRgHLYBhxzQsvZO0JTtojXFMnXttwf/ACyU09H0oAM//towZPkpwrTdgpT9qN4CXsiojb2DeMA008KHjeHiXeEc22L4GOpdAZBR0yzCJxmuTgPMp6XRSCxwYRGAkseGg4ZBuc/faXyg2HBFloD2yq8CZiu798KH5aAY1HDZ4oMVuWuEuZnC2I2yFK2BWV8M2FUeoBwsN75ETnPLp9KbQvgs5w6JKwHULCJGBufQOucyyDJp5BLEO5PcQIBdqcYyFJhfKPToV9dFycXnZ/8CbmZphq/FwAM//towZPGLcLOSAlZwtXbZfE71qQ9N2VMeSn86Asj+4MYzoWsO1LKMs86FBCjxy6wlhLBFrz2Y+DDx4A4yGZ0723lmYVKNZ+P9fwQ/j6Y+Hp5fcBbyK5+0ip4acV0Hjk4K3aIUvYqUrKFqzcJo7buSh5y3UX8lR5UPAYczjYFoFtEWVVk+0StlMFtkVM60v2HiEzVAjcRnUQwx3dbq8/HZtZLF177Kn0I1Ldwfn6qqnC4yX3GMMTrNwuj78NTxq3a3HKVpQk5sHBg5ZIsC6CzkVUu5KwiiibmjY/jze+OWT7N3JgM1AoK34QsPZhgMXrS55OLpdtOC7JrBfrysSGu9n0/NNIX2Pq6zn+vUq/JQU0/Mu4gAbvdsnP+FsG7C/7b39xARfwBYqk3Yqk3fJE1EnKE3fJEnb6pFj5lTxxR3hW9X+8tUWetPudj/eMkSgbxCiMIledq1UuSyTTHwL9r1DW19EeymTrOVs08Ko9CtqjwBoJ1kjWEuEXtC2wt88BrxMjrwexrLNzBJtnyHs2tVK87qg4o06WUSnJqAhg5r+d+nruvzy8ieSk8TtU8d+FvP/N7FU75sbnPP2XjzfVNaOU55jLAW5gXHClwG2OpPtCof95qv1lNF18UPBao8csc8FxCcNvBNFA1bedU6bunqutFa05KNbXqNbWSg2TwvNTDJxeTrqT8l8bHi85afyOsMRtwe99Pev9zWpd4e+Xp53osxMAmHMUR0feN+DSNo85nO4WQO9ixvYcdEY+MHhGtcMcCsMnae+NIAxgY9UpcXK2KOOA0LBfrK2MWFePgvzvJP7lbQSS+7n13OMAz99bSuN3+CRL2C6J2xqenquM2xSz+rPuW2gQYrxjyCPBbYULHxLWcMomYbpjWHRuEP7A4LXK3WYFXN8NnutBowBJW6olafnSrMMiwz6Zrio8q1air+RlNtnJ6s+mSPyvDW8iNkncdkncdmnCTknc1vm6Pc++mLax7Pg1LoU2StnIAj1ykO7/AGzhjDWM6YyErmi0yfmgus02OWmOwS6lgPdGUD8OL3+4V6YtE2celmUcUOmrFfqKX4Q3cW45+XrucYDnNzgfOUncdlFidsj73yg++Fz+Z631mgv58TMk6bgFDHhv7CL7FkFXJFiiGVsE9M4D64ObsJhkrPk5Z+9CcF0JOnODiErdpjDUBGsaFBkHwzPrpGklk5mdz/ImkvvZJcF/eXgTyYlXbwuO3y1YsUn6zsfrcxrsvhRphIdzBqfHLq0n+sTQGwGWJWxHNPTFgGnJg7M8KbS9fKv9aXD2Bx3stctWfyMz1D2bXK3KOBi9pkGUXKjKrJuMHy+5xxgeLznx6m3PrtypSM6Ojv+q+YrXwZ2RUm5ukUBgo+fT8d6n4VwkWJYhZufmg4lr8PecU1wqtEqg5dUbpv8BYz1BRUanfOWW6DV1Ev2+EC2KapRpKtXasqmv5/jzngQs4/y3Cm2pXFMi15Sg9PdpRZLUQnFKgSg5X6HPketyZdocafpeiSZPkl4g0RZLdSXK5Hx+Je1R8sm/sPuVDUlCkTg+XxiXK1i9UxC3TZy0VZ6+TandEbo6L3T1HlF8jjwhW7p6q+j9jdIVG8MTNj31xueyN7YUNliRBzl9g3IBxcAQycA1A5xfiXe+hNtiuAEvBmyxYI7lX8zZotFijle+xZ//j7gFH1r2mSNJ82xP12L22q6g3aeHZSu3RWXWSvT1Qh2CJ9dWhekQPL/x3TO3nHRJMDV4PnJ+eD5+ktRCWcJONDtPykGnpkl5iqQ85NaQVCRNQr6tExWwpvbfihOypyRlYo4qKTcsOScsebcqebs84TtJ3EbRqi8Vq7aK398sfHeTaMUW4artIau2CeN3SpJzBa9+lX385AAMeQkUeMNSToK+iTatzq+kut/wti/2tkfSHRHIb8UWC5aFfxc8PzlrJLRFEqZZro4F9OXNQX87eEm6emd4Zo3M0CDJPCA1NCh0VSrN3aXCPeR+bklw//D85ihLL45MK4xMK4xKL4pKL4lMKw1PKVYlFCnjC31eYjyvqQUKPslS86ek0He+QFa18ltF3GZVwlaflPFbYpK2K1d8LX1voyxumyo1V5KcO2vl9t+/s2lneeNF7KITrrpYoLnQIK+rCegf8c6XMNsStznSa1XRHeEcvEVgXjRleH6bu3efBVqjCNMsT3s0de6zoPSyDlH87rDMaqm+Vpl1EL3qq+WaMp/ZBZJ7cPD8wPwm6GtIEvdIk/ZKEvNkCZzi9sqQ8kXJ/JIk7uGVMCFnSorQ5ao1ucrU3bLEXZL4HZL4XdKEbFliTuh7m8NT98QaCpVxm//wcuacP2e9/lnp3/bbWMBdhGcU7C5woXhtDMDV7rz6Pm6L8bYjcmR7GNsZgTze2xcy5qlbng/eHZu7uz3WGk2aZ+M2NdWtD3prV7MoOV+VUSXRV6rX7RdpKlSZtTJt2URs93c+54f08w0/wpD0guC0/JDUfEHqXlFqnkxTqNSXhBvKFOmF/ErNU/BJmbJ3SpoTvwMpbtfc+JzghNyQxLzQpHxBUpEgpeSZ97f/4fVPg19fszTpb59kVzb2XEI53Lms5Tjyt/PYnRRyqRw+6LJF0x0RnMI5cmhXjLUsoE3zp2x5d7D59zYZczg6amhbwFqDmQ4ldCQELfv6pERTqjCgdAsR6+qFqUWqzGrpHXgT55aTrzTBtbQAACAASURBVOem1m0G7Dv7byVZZaLMEqE+X5S+V5iaI0zZJUraKUnahVLs8Sp+m5RXq7dKpyJB/C5RYrYkGXWM4qSc0Lidc1Zsffa974QJaEkQm759Q/7hM91X3ch/CwdmDB9GWyk0uFD5NZqEW+X2lteg8y1kanc1H9rnsdYYxjLvvuH5bM5HDsEzLoL2EOiUQ/vbQfM+OyrLqJYaKkRpxeHrakKS8sPW1Ih1yPImkvvZJcF9wvPNM31TTRT5n5QtScmRp+5BudOTd6sTtoet3qxcuUmRuI1XyoTveBW2etOUFL56i2rFJum7Xwj++tHcP6+Z/Zp+1p80s/6kWf23vVtrT5uveZy+AHPSQ3hHgHGwLOCkxz52i4sMOINdfH3k9Bzo+BO0L0AzFNsi5PtljUXkbPPQao/36OBnZpvjDhP85BhzON3MwesQgenVIPVHKPxAaqgQpOaHZ1XPTcz1weMl98Dh+VcIwqQ8QeJeQeJedWLuAm3hy+ur3/3qUOLWE9qdP+p2nNTvOBmffYpfu47F8ylh+w9Tknbzfu3m/fqtDR/lfb/zUOt+23XLGFzmEjmgEg80g9MMwdA4Q1AogpzCYWTMV/uJOXvevNhpU8KNZdA0G60KLAvBspi1LGLMC1hrDCLXNWV4/kGOtUT44dEmNdkYy1qDoT0UjMuDZNoyhb5CaaiU68rRUKcrV+grFPopVwQJOPj23yrTKqPX7VcayufE7xCm5qoyKuSaCkFCUbT2oCChKDgtX5RRMSc+b9abX7/2UfbWgydbuuieSzA4CrgvLzhKEz4G9BBPjgFfUPrEnAT3986dOg7IOWS84BYXC8yFjTPAMBTFOCl2BEWPey7BzV3Q9w60z2ctasaqpm3q+7Aw36FdwCtrCveLaVMzbWq6NQzJFMqYxaxZxbZF3oWn0FfIdeU+eD6QvMObn8qvbIgSCoPj9qgyKqI/qpNoiwUphUp9tUJTpdTsEyflzf3gy+j0rZ+UtVoHUV5pLnFCBwX9DNwkwYHRuAcHjEAF93DWySsCZS/mEQ43eEXCAK8oGOSVl3URDE2jKEYOKgqgBBYDevA4eS2bOp9Idy5lrdFgiYb2+bTt/se2Xw1PyJikjEmJ4PnsTGmo9OlnbM7H8lcy839ZuK48eNVuqaZUmVXzTPzeucmFEVkNCm3lnFU58oTvUraXn+m5gTJfEMA6nUCMAsPlZwGUVMYDTgeMOdCra7wxjG/fn5lN/FuTJUSgSC5xNPctGWwQd7U5R+tHb+XZe9919jzv7VBzIctRYF3E2haR6MR8kh5y/LptfHvcrHI8P7/ZsabweyyvTcKY5EwbZ3nqNTVKQ6VCX6HKqFJlVMl15b5QD16z+5nKj35aAY1IXbFaXy5MLXkmvmBuSikK8UrNF6zc/tKHBbknbTcJrsaXi0S1LQkGKA/hZSiCvV09ihtyKEBpeICy8wujYEryksArF4N+hgliPdfA0886m+jRavzWF45r7w5fnDfQH0r0RBDdcsomgnYVWBeC5TmmPZbomPZuk21V0K1KpjWCbYsOil6/T5WBKvKoMqrCMlF1F0l6yWTk7gOecNX26KwqYWrp3OTy6I+PSJP2hrz1t5c/zD9zbnDU56xN4+QY7nOHQj2nr44CiwN1BSW4cJ6C0YMwVEeNrOcVO7iRV+T1z3mFXfmUV/ilz3mF3XzTe+0N7PKf8f5XiN7nqa5FTGc0WsP1LELTkPZwMMeAeRlYn2NsUXSXZLotjzUqWWMY0xrFmGKCFn52BG2vaEp9xifVlErSS36m8wwwrF+8laVkqwylsxOKQlMrwzPrQt/64lXD1u9tN1kADHdh7iEuIhe8BAx4RgeoAZbBCeyS237YOfiN58Zq8voyuKaGa2K8/zleUeejeEX2R/IK61XzCu8O4xXRuQi3xeLWBaQ5hjHFgGU+WgO0x4LtNbAuY83zmbb5jGkpY13KdkSy3eLphse0KFhjONuGjpmClm08EZ5VK04rluvKlYZKSXqJJL3EZ4u89veLtAK+ICqrRJRaEJxcGpJYJvhgx8uG3dUnzTgA4ya4jE3k0NCQc8zBzeh6gP6BHovDbr3puPyco3+epy+K7o2FnuXQ9RLT8yqvoHsRv3oWA68m+3reyMeuGLC+y1rfYCwv0ZYlaGLSrgKbFGwSsL4C1oWUVU1Z1Ux7LPJLty0AW9h0w2Nb5AheayyYlwe98O2P4Vm1otQin/GJ04ol6SXqNVOu0RPAzH8rSt09a9UuVH1E1yBbufPbqhZUepslgALSQxEkzSUP8bKjrd7+zURPKpx7BfqWoTOw8zFweRFcWA59r9Adr7EXY3kFvS/xiu5Yxiumczmv2M5YXuGdIURXKNUjpXuUdHck3TWf6lhCti8F21KmM4LqEVM9UuiOBttSsC5mTQumGx7TLGON4dC2ECwvB22otvzxza+Qx1/WPrmuVJmeJ9cWhaaV+D/9gMZkW5QBX+a/XZCxfU78nuD0wyHv5Gk+rxy6harjusFOoCqi3ESOBGLsEHYzkb0cC5ci4MLzSOeXI/Uv+xVaDueW3Vbfc3BHbPdSXjHdC3g15fi5qc4qJzmfm2xWCUYlv5rCoXXZWNv/hAvbgr4+3Dfn3W+kGTWSzHqppliRtlepLxFpy/2ffkBjqvDUqTtFqUXBSZURyXnVp/owjAA0wOEESnVHMvgV0rkPG8zCr7xGX1gM/c9NGZ6f3Llld8n18pNju5fykmO6F8wovHHLgynDa1GBaZm97Z/gUk5Q7umrolWbJYZqgaFOlFYsT8tTGUrl+ooAZv7bqcITx+crdVUhK3eu+LZ2CE0vKQ/yj2MYCkjvOdy+CRt4nbo6n7m4iLnwItn/6v3D42yO7V16W91LWD49NHgT1na3N8Am2UnhNztkjhIwLR5p+xe4UhpU0XpTGbdJpC0P0dUINWWK9HyVAR0y+GkFNCaFN0mZF1FyjUpTLl/xed7JNg/KjIWN2W+hhEsUUM5D2M23qYsiuKCCiy/Bpde9F1+6T3gB5JDlPZLw7tjc3a3LqcJrDYXWhbda/w9cPxR0uONWRPw34vSSYF2dSFcp1xap9cVy3aTlXCaDNz6lxvi2UHtElrDnRc3XFxweL+AU6yFwF0t5wdtED31HXnwZeqLRjOP8B3DpdffFmCnD8w9yd2yO6VnC9Cxhexbx6qFZ3h1sAedzU+42m2eDcdFA2x9goCnIeMW9KG2zRFOK4BlqFbpilbZQri0KMDj/7WTw/NlrAhpz9QcF73+7fkc5ATDiHCZYDKU/owfZ4fX01QSq9y/Q9Rp0vwPn3mXPv+jtj7o/eL6u0oftEYcXcD43ZXhnZ4Nx+aBVBCO9QVc98Kd1uQp9WbCuTqivkWqKlZoCpabATyugMRk8fzKNgMbvNZXiFV/sP2UFFnCc9FIYqqXt7oDLS5jzL9N9b9Dn/sxceJ69uIg99xzbM+Vu8+4g17vUh43uXkx3L2Z7Ynn1EC3P31X6j3gY892jg4A9zEnHvNMhYHptuCsaXMNBToD3Pi9Wr6kK1tWF6msl6UUPFt5/pObJ4r7ovjzCuhlgYAyVuR8aufEDnBfD+SXMxb8QV5djN+TkVRGaavasnqrl+eH5ze7RhOcnF3A+N2XLOy0Ey5uOvqXg9QQBeDcU/hCsqftf75YsWntwQcpuacJuYeb+ySzM768Q0Jgsfm7Oyi/e/7j+5hAwyGmA22l2tcDg27dXcr713PjXydZ2d8Y26HtufCc52cSE1+zYnthpXxKMG9t+zSnBZBbGtijG/xHbomCa5XSTDH5c4DE+i93IBxKCWNZd1nTxd+9lP51UF2WomZ+SHa4pDNXVPyh44pRtyd98b0dZPr0+ePTwYfzKC0/g+Q5XxxMa354cntJjEuCDZQgehdt7XPC7NzaKdQ3y1JLotLx5a6rmplU+KHjytLyMXSc5bl4WGIpyeQf2ei/GPIF3n/BOz8E6YqjRI0BBEEOMjQHEaHaLUoskyfkR2qKoNdXBycUPCp4kqXjd3uNc+XBUTgGYa9itjfTVqCfw7g+e9+xTRP/74G4FGsWkezwAG0pOClZ9J07LVxrKZemlohQUQsCrgKHOfzvZmBeyuuyjkuMEUCg5EDqu7vYOrIUr0U/g3R88R6uEvb4FyKsMi+B5XTh1tOumOukbqa5ApKsQppYo0kp5yfmCQvzAxjcmgxe8suqLmuMEuGkMzTYZyui8nAgXFzyBd3/wxmwvwfBZYHGcdQcB4yEo/LwDf+2zPTJDwazUUrG2MkzzwODNer96477vCbS2YwGlCDo7dn4lnFv6BN79wXP2asDpAQY87NUgVB8GyAGSTstpEOvzf59cqMpqiOAir3iNb7y1jW9PZnlPvV2xcf9BAkYIB+dlhHPw+l96Au/+4LkvfIH87Ghwsn0oQTgwJE6DZRj+3wV6+ScnBemlEcnbfMEDPn7++Dnx5Ol/feFYE1+ffr/w85ozOLhQinmMAtw5di0SOv46+UHd1M7nJl3PdceCT/7Mzr6EwPwRjjEP6hAVrFFIlsjbMkeAT60q8OnOQR3bokDrgRblJIqgTLKx1kisNRSM/w4/LoTTf3J1/SvDUH4FeUmU152miGsYLF5XMiu5JDi1RJ66Z7xVjW9PZmETsfnemTK8KZ7PPYrwJpBjTeG3ybWq/Iu5X4BnjMDOLPaYRNARCmcWwgklbY5kLmzwk2MYKsiFXIEZlvDgAEWnzwvidgSnlkgy6315ZCWphePJ/Uwx+AcPL+CUZ5IjnkcOHh+5+4HXssh7OoJunQPtkXB6ufvHua7et8Fx6x54KLaMO2UDlrrqoFd+Uy1IzhNkHfQz81P8+bTADxheALnJz+ceUXh3ekv/1uVULY9qXUy2/hYaZXBmMWv8w5glyn31MNDAsqiEiU9Bt8vQ0DiwaCW933g+LGXnHxOKAkY7X2yjMClv2rvNO3uYATvOvIdz3Jv8pwe3B7zu2LvVDGZmzJuAzefvPFV4mGUWmOfA6Qji1Bxn+2/dV9bRbieKwL1DjmVplG/zdv0nVLiOHMOY1V+VhK7ePt7y/PFXMwZv/Nbzz5/PPXKWx8HzG5yPHNOmnio83Pb/QdPzcDbMZfz30b7VuMuIyiJy00uuUhcqEoqWCsj/ldvuBwoDljpmPp+wpUGYlOezNnFKgTilwNdnzsCY5zc49tedzz2C8CaSo1vDpgqPMM6FM/OgVUSce8V76zSB3H9wrsTl3dquQUA6aK48pptFSeuA8RIA1U3ng+NyuJqBe0XJ+ShJQ3qxXFOC8m9MUmziQY15fni/8nzuUYPHS+4+4FGn3qaa/wdYRXCliqWcyP2HBBQWiAr03dbdypX+aoe+Intbjje++lHu3Dc2i1ftC9OcCl1VHBq3af66zSJtuVBTIuJ8c6VcBRhxQq5o1e7JoIpX5nxTfpwFO3pqSAe4rw5fDYNLyX5IgY2pzir9y7iARs886AmHnjDongddz0HXMro7iuiRsB0xvBoXizw+LhkFtfKKsczjFW2N4RWgJd294hZ8LrMKMyvpNgW0SOGsFM4qoSkSWmKutT3t6EuDIQuKn0LbGzjK1HN7hnK7qsmk8AYANtWdiVy5SfROTpT+QKShXpiyKyT+69Ck3OD43XNW7wyN2y1JzFGl5kWkF0ZqilSpe3klXJ2/seJHGpwoYpHFgRwYvapiO98LZHbHfWjKh6sBzO7cMrYoxqqkrRLWKof2COiYBx1qVCOkPZxXrFXJK+Tfzie6TcErqlnKK7opnGpUU41q8mwYcUZFnFHhp5X4aSV5VgxNSmieB80x0BTONgmJlqe8xv+grmXB0H7weNCeIoLnplFC93HFaFCm2ztXgOU5acYBsK/10vOarf/5YqY0NTdyfc2shJywjBKVtlCWuleWvEeWvEeRvEeekCOLz5YmoCP4iRIklW6sNeKoChWgMZUeHrumpM1/nm54KLbf+irKG2VaAtalYHserC+AeTl65ZVpKfDKsgxloZqotkXAq5aFwCurEiwKJJMM2qRsq4QxiukWEZx9Cc5EwJnf42f+h6vpf3vbIujuBDi/EfDzQKAimCyXTpqCMQZcvxYeYKibdQGc6LucuL0s+O0Nv3/7a1VmnVxbJNcWyTSFvuRFspRiYXxe8MocUeJeXj27Yu+XtS0YMAwBXo8LiAHnjTDofGva4Z1bCp1LaOsCsj2CtilYmwJtUxljbm9W3ZnQ+29RoDCfGJOSV2yrhFfQKuVX83zgxDbFMI3zmMZ59Nlo+mw0tC2AVjnRNsdpEjo7/4Rd3AEj/Wj30hfOSaGoRRIIGpVZ9v5qeDRJOIe9mB0D5ioNu0+0v/pJmTwe1YAIWb0jeNX20Ljd4qQ8aVqJXFMm11T4lxYBjf/7p68/KTmBA4V2AjAMvDed11TQN+3dJt37H0T3XHeX3NEtd/SGuHrneDrF3vZwT6eYV+4OAa+c7SH8ss5y8qrtaSefPMZ/9hj/2dv6L97Wf8Ha/hdu+lefHL0y/PwbcGUr3DTCyBh4EC0PoPUbwQDGMDiKHXXRvrKHv3LMozwooRYA6fY6cC4AyzYM2Qetb35R/vKH+QtStyhXfCV770v5B9+o4raGJ+5SrPiaVxFxOzZXHaPBC6jKIgvEoP2yHLrfnm7LI7vn0+fi2Es72Bsl1GAueWsLDObCQCVzM4dX5LWdvKKu7+IVeWnLlAS9BdBXCOeKoL8YzpfAxTK4VA6XygnHPnC1gWcUZSggkb25gRyDURIIEjwUjNHgoFHtILRWYAJKsN0Z8tAn669nzyDg4MYpkkRlgoFmPC4vCi0GGKXhspO2XLKftF4+1Hy+obG/vvFCfePF+rO9vNp5pP90+3m0GEFPDQPMyMhlGdjemHZ4ffFwtQzsDvCi4R6NH1z6G67te+feV4xb7U58xVHSHB55AHVuEzU+YH58m6BR50fQQDLjRVO3q/jSzAhJ3yRZO8WVoOTSmfnqM3uBqyzKoPPQe65JJywO7ndBS3pkfgAkAbgdvDeB9aJJI0tylUoBFXtmUUXFyQLyhwDVugG4xThJFiULGB29IoeON6cb3li/mhn8ErDrQKMf38HY3egRRmGBvKIB59VkEe/sJLlFuErXvnrX97y6AGW4Gi8nV2rSiepaUGgmiYY0HCVT4lZxNMFBRQl00QqPJtHDz33ZXX534d1974G2aGBQegD03wh6FLDrnksvQOcLZN8Suhfp9u4Xt7yD7iUPatE92BOJ3/wWsFuo0DgLo5TTyXgIZCo4r7yA88oDhF9uwH1yAeZAndsNkkFPNgO3KBig0WT64gP98H7hH3ts4Xl634Dre8A1iPpJGhjKDozb9/Tyv47v4sa3J2b98L0DJMteQ90SKnl4A2i0kL13GfYLH/3f/8ePLTys41X23Aa4XgtDP8LwIWaoEgb3wcCPMHCCXzdPAK/GfT178zh78zhz4xhz4xgMH6UHc+HGQbh+ghooAofJ95T8/Uh+/b/w2MIj2mVEx0Ky6y947xvevhfd3Uu8tpdw8189fQJeefsEPy9Pb6hP7p4Qd08IZvmLyyLHzEu85lftXQu9178Czy2guePRX//x/31f+djCgw4FdChpm4KyiaiOYNo2l2oLoVskbOtyXkHrcl6xxmU+MS3P+UQ3L6Wbl5KNUrL5n9jm3xNNc8csfySuZQA2gOYaM3g9vvCsL4PlObDEoswp1hgugeJisCyCdhm/rDLglUUKFimYJbdlEoNPjUugdQ466GmMcrfKmCvfoTUJ8imZuevxhWd6AcxLwRQLpkVgWg6Wl6B9OXQuGh8bN77tP8oJaIBRjdQS5hPbrPIJGp+HNiG0xcDZha6WcOryVvCiKf9MXo8vvE4VdEqhQwQWOWOKZCzzaJuC6RHQ7eG8YtvDeQVmtU+sKcwnpk3FtKm8Z6Ws+bdgEUGTzGGaQ9z4EJhbqArUDF4zAQ9lfkAr5SHfOs998XmwPjfpeu7Omc5d3xPfOw/K33J8VobxbYscjGrauIQxvYabXnEYo13tEvKcEGxvUKYXaGMkmEKg7Xdky++gTQ6dL4JRRbWEsi3RTIuAMs2C81vADciTeQavJ/Du1KSwxkCrmm5TsFY5a5XSJhGY5dAZTlplWGso2SQAowqM86ApClrCwaJ6Ao/H8SvQ4PyG+KAsb5LIVbAuYU1hlDmYtj1L22ZTrVLm7Hw4+yJuneMx/hZr+h00R0LTm9D4NjRHM21/fALvUYLXrGSN4ZQ1lux9jbyYQF5YQ/R+RnR+Bd0rCFsM3jqbbpFB06vQ+FdoiYLW/3wC7yHAGx/YP75Nnw5h2l5g+z5hBw6xnh6Wvk6xF3GmE642wcVtZPcrXrOYNMrAGAVtajCFPoH3CMFD+TMvfQbDZxkvg7Po6NOJzrEcMAZgvwwDOd6+V5zm2UTbU5wfQ8wTeI8SvBsl4GkGsFOAjo6cFHgI0uMZcpOcpx12g7y+3dE5z9X2f2mjALnDPpltTlwwTPeEZfzCfHzbPdQPzBgFXgydDXmAdgHlAMx+HYZQ8RkSYNjo7HlnrO1prCkUfnrhHwIeS3Pn98gP6hI6S3EOeK4sgPa/TBpL0DEfVRXn0TzkvufPcjl+icbbnmRWiTKctoZDazSgfPoKj1Hhan+BvpyCuwdRBTx07IxE0yTJMhiN2vgoOjAF1k0NbLQbJdiZP4BRzppepJuV0BTBGgUeczDVn815mXCZE2ZqqTft6zwWfRgMi7wzbqFFuuOG99JSsD7/0OB1hNNtEQheuw+ezG1dzlyKp2knOo5DJZd9huZmgeRyzw97vSyJ9r3sMLjFY4qmmkLAGE4bl9DNcmiJgFah1xKC4DlRrpmZAoe+z7TDo5CbB0KHKNIAjsvkpdeQw91kkas8NuczxAdkeR1htEnNWd48sKjwVrnXupQ99wFykGCR5wFNkyy4WLCzgFMoifJFN+2rK3oLbmwj2hZDkwyaw8iWGOR12RYBJoHLEkz07wQni7yHZvCaAXgu5L7jO30mAZwX4HI6Y1Y9LHhsuwrVwmqNAUsMWFRUm4K0LITuvwKqfoH8cVDBINbJgItlaYoADAZdPsOjrtPnvvGejmUaRdAsIo3I5qBNzbSE2tvmes/vRgMlclKZuWsG4HlRZ8Iw6KCZBMDOw40couNOwPjE+LlptjxoV6A41bb5YI4GcxhtljPm+dD+Ej12CY1syD8RvCTlJQnk10UCznm8or7U2UmY13pOhjNNwUzbbPSPmARgVGNngoeNwfilPM4p/HGzPGBZL/KbItDDDXAJRo3u/rcfluWBVYo67bYFYJoHljCwKMEUBW2LiWuV4LICjfxLcQq8JEP7YnF8zxw1CDcq8MY3qR8l0BZCWeagfAFtImhSe08LRs0y5mY1UIA/ZmMejUqqegEGgAAPhbFwFbzesWvrHxo8sxgd8bQtQHUlEDwFmNTQPG+s8136+g5wdwFJ0WjWSdHgZsCBpqCuc9RgqbdrpfcnKTTOBYvUbRRBWzhrFMLZKO8ZuadzAYwdBRJVsZy5TnMGJiwsAwyBA1wFChyMi4CrQMLo4LaHDo8rT3IHXlPUQMscV89KemAf7R6kUQ5sLwE3vcw5oC7jw3XD55KHmsXuE/8GxqfBEnbrJznToqabhXB2HtEUQfU/D97TQMEw9Xh1m/4nMcAje7B3gaf3Zeh6E2yvgDWSsolcfTL7pQhoj4GOBdAZC+0xXF7RMFQmpEvNX0z8TiXj8Zkt77T586H4jlJ5Xjt+h5mechnlZPvrcGEDXC+Aq/vh/BFojoWWKNaoJNvEhElImhSUKYI2xcBPL0NLsMf4zyOmSO+lEqAJDKhBuOr/fWegMe0TFv/vEAAPRuupq1pvp5w0zwI0ZXiD7HzJ3sFB6pgHXfPBNt+XS5uLrou8H3h8WTV4sHEn42BVQKuIbBKQRgljVTId4ZhZOWaU3M5wY1QyLQqmRcWF2UWi6J4zAvrsHz0mgfdCCjP6E0tSnEdvgEO6/7eflsbDg0cwMFrnOPeiw/Is1aYAyytg+StlfpFDFQWd0dDJZSWycHUFrfOnDI+PHJfHGTkxTBScfQVOPw+nY+GMGhol0DSXafoDdfY3tDGUNYpR5pvmcGiKhrNRcFoNPymh8X96Gud4uleD8wDAAEHSJOfdOy2UJvlHHx48FERxjR2qJ84nu9oVHtNs1N11/gVBsnFFVrui0X4Yqui5gEVeX3eOvAMak2yDBWSP8rsVTcTme4dtVoMxAozR0BLDBdIthOYl0LIUbwmmmoXQrIBmNTSr0Aq9KQSaZ1GtvyFtbzI39gM9RqFYcYyhWLQcmsHrocFzeRn025KjMHrUe17n7IjGbXOgZzZ0LGJtC7gw8EjojGI7Ypj2hfR9wLsTPjkOG6q8Ohk8vOv/UN2/ZTr/yLTPZtrmoslIoxyaVKRRxh3DyqBJBE0CaJlDtz1LmJ4mbW/A9WLwOEkK3KiwlR3FwREz6j720OBRKPsmy8BNIC7CSAd1pcDd98JIz3+HjpfAtgzF5LeHMx3hqCidbQGDStZN0fImyYcyGTxXa5S7LQozRWJtKswoxVoEhDGUNoZCqxpVPWsMoRvn4s0CtynC2bFsrPd18mo1eC6jtR0FTlTCeQRgBAWfzOD10ODRKNqM9DJDJI2h3sYxSN4sdFz4ALreAturpGUBblFRHSqmS812zWM6FtwHvAk2hwoeTwaPOP1n4sxrxNmXqMblqBa5MQYdmrequdEulGl8lmwOwcxLsHN6/EYRZj9J43afczuLNo4ICjAGhZ7MaKjJQ4PHwijB0B4KvBSKNQTKiSJ6hq5B90qw/Zkwx2JmJdEuY7pUbFck2zVvqvB4yf0MPLDNButsaHsWjLPAOBdagunGucRPs6ExhD37NH32j2SblO5ZAbcqgRxjuUA5jKFI1s4lsSEpElWVRpWLZ/CaOXgTfqnbmWB8ybT8yeyAwYEYgJEzxOVsb1eq17yUMAmRQa9h6gAAAihJREFU80HbYmiNBeN85H/XEgkt86BlPrQsgE4V2BTII90qRR555khojWGbY5HjnkkBbUquyKoS+aW3KdE7zSJUCMsohRYRNArgbAgayZqEcPw1OPEinIyFU+FwSk6ckmI/yj2nFPaeJMfFL7wjBwnsEhqlWUDJsnF0/PPQr0cOHs0SDOMA+jJgbWDfz97cRV/4hOw1eM/9q7f33z2dv/FYf+9tneVpEnhOK7CfwtCxQJuUaBWRbULaLGUtYWg90BoFFjlrVqBEDm0qVN64TeXzd0b9YVssmBdCK8q5wTYvguYlrHGpq/W/u9r+yW3+jdcWgnXH4L1vkOeSmf41MHQIxs6w2HmGcXFR9TRLudH57CNwPXLwXFyyFgr1QDjazqaHWc812n6BPN9JXmgiL9QSF74lLsTjF5bgFwT4hT8S7S9hlue85hjCEkm2q9Ecp13NWNVgCWPNKh88bpxTs22RYIqyN/0/Y8b/5jD906jp34ZNv7llfuqWdc5QR+jQhTeGL61wXM/wDG4h7fXgNINnADDv7cMQ5A6AYjQZFHnsmuGJyWTPySMHD+OC932vJBdCj7a20Vji4hIlOMA9AiPXYeA8XO2CS+1w5RO4lAX9SUzvW9DzCio12hnLoNWhmjGH0SYlbVLRJjVjikYFXc2LoOtv0Ps1XNiN0g3cPATDp8FhBncPPeakHR7WTSNaNEpdQ1NIvlsumJ0huewaXIj4jLq1Twbv/wfNoEnscW2EZwAAAABJRU5ErkJggg==;" parent="1" vertex="1">
          <mxGeometry x="560" y="180" width="70" height="70" as="geometry" />
        </mxCell>
        <mxCell id="gHBn23wMbkpfhwxa4SyB-35" value="&lt;font style=&quot;font-size: 12px;&quot;&gt;Python&lt;/font&gt;" style="text;html=1;align=center;verticalAlign=middle;whiteSpace=wrap;rounded=0;fontSize=27;" parent="1" vertex="1">
          <mxGeometry x="550" y="255" width="100" height="30" as="geometry" />
        </mxCell>
        <mxCell id="gHBn23wMbkpfhwxa4SyB-36" value="&lt;span style=&quot;font-size: 12px;&quot;&gt;Airflow&lt;/span&gt;" style="text;html=1;align=center;verticalAlign=middle;whiteSpace=wrap;rounded=0;fontSize=27;" parent="1" vertex="1">
          <mxGeometry x="665" y="255" width="100" height="30" as="geometry" />
        </mxCell>
        <mxCell id="gHBn23wMbkpfhwxa4SyB-38" value="&lt;font style=&quot;font-size: 12px;&quot;&gt;Python&lt;/font&gt;" style="text;html=1;align=center;verticalAlign=middle;whiteSpace=wrap;rounded=0;fontSize=27;" parent="1" vertex="1">
          <mxGeometry x="870" y="399" width="100" height="30" as="geometry" />
        </mxCell>
        <mxCell id="gHBn23wMbkpfhwxa4SyB-39" value="&lt;span style=&quot;font-size: 12px;&quot;&gt;Airflow&lt;/span&gt;" style="text;html=1;align=center;verticalAlign=middle;whiteSpace=wrap;rounded=0;fontSize=27;" parent="1" vertex="1">
          <mxGeometry x="972.56" y="399" width="100" height="30" as="geometry" />
        </mxCell>
        <mxCell id="gHBn23wMbkpfhwxa4SyB-40" value="&lt;span style=&quot;font-size: 12px;&quot;&gt;Power BI&lt;/span&gt;" style="text;html=1;align=center;verticalAlign=middle;whiteSpace=wrap;rounded=0;fontSize=27;" parent="1" vertex="1">
          <mxGeometry x="865" y="285" width="100" height="30" as="geometry" />
        </mxCell>
        <mxCell id="gHBn23wMbkpfhwxa4SyB-41" value="&lt;span style=&quot;font-size: 12px;&quot;&gt;DuckDB&lt;/span&gt;" style="text;html=1;align=center;verticalAlign=middle;whiteSpace=wrap;rounded=0;fontSize=27;" parent="1" vertex="1">
          <mxGeometry x="555" y="380" width="100" height="30" as="geometry" />
        </mxCell>
        <mxCell id="gHBn23wMbkpfhwxa4SyB-43" value="Load data" style="text;html=1;align=center;verticalAlign=middle;whiteSpace=wrap;rounded=0;fontSize=27;" parent="1" vertex="1">
          <mxGeometry x="555" y="470" width="220" height="30" as="geometry" />
        </mxCell>
        <mxCell id="gHBn23wMbkpfhwxa4SyB-47" value="" style="shape=image;verticalLabelPosition=bottom;labelBackgroundColor=default;verticalAlign=top;aspect=fixed;imageAspect=0;image=data:image/png,iVBORw0KGgoAAAANSUhEUgAAANUAAACUCAIAAACLJvsdAAAXVklEQVR4Ae2dP2/iShfG36+UL5CKho4mBX3KlGn5AlS0dJESIYRQikgUKUiD5AIJpYAiRaQoCgUFxiATKxiM3/V9sk9OxmAM2V0wnqto72DsmfHMj/Nvjsf/8/V/egT2NwL/21/TumU9Ar7mT0OwzxHQ/O1z9HXbmj/NwD5HQPO3z9HXbWv+NAP7HAHN3z5HX7et+dMM7HMENH/7HH3dtuZPM7DPEdD87XP0dduaP83APkdA87fP0ddta/40A/scAc3fj0bfcZc/uj71F2v+dkRg7vmNJ+eiYTWenLm3YyX6Ms3f1gzMPd94nZ3fWdmqmauNslXz/M4yXmeawq2H0tf5f9uMmeMuewP3omGd3gxztdFZ/fMvVxud3gzP76zewN2mPn2u5i8eA3PP7/RnxZYNmUfyUMjVRpmKCV3s+74WhPEGNThL69/NY/VizostO38bqFqFvLN6QF6uNmo8OQN74fv+wF6UDLvYsl/M+eaqU3+G5i8KAcvxSoadq42ktiWCULslw7acTwek3nVgEeIS+VVUMyn+TvO3evLfxovrx/fTm2GmskLmAcfL+zGEHLRz/jaQhaQTovH0Znj9+P42DkSj/i88Apo/dUwG9qLx5ORvA5dCwoQyxFuhOXl4/sCVvYFbMlbbhWf1QGWf3gzL7anajP783who/r5AcNxl48m5vB/DpAvDB/H28PwBhWs53vXj+zq7EPLv8n7M0MyLOW88OTpk/TXi2v/gWDw8f1w0rI2mHpwM3/cfnj/O79aen62aJ1eB5iVt14/vZ/XAjvwVvqHsZOupLaRd/sF0C4f0KPxAZKE5oQ3XG7jnd2oIUDn/8n4sz79oWDQN4bVcNKxOX4esUxx/YUgvUzFXBlZg6kGBQj69jRfl9lQJPpM8WHtyRW5gB07MypBhtmpmKmahOUl5yDql8q83cMvtKQiTALGcqQSrao0nh6Zeveuc332JMZ6JAqRauT2l2DNeZzAllTP5ESHrTn+WWuWbxviz5Xjl9hSrt0RBFnK1EUw3aepFmIZn9c/FN+pThKBh7cmaZRlOMQOHD88f6QwWpkj+zT2/3J5CG66LJ2cq5uX9mFi8jReX9+OVChQwwTqUfsbbeBFhHUJHZ6umVLslw4bHna2a5fY0Vct3qeDPcrzGkwOTSwohloGRYupdP76vMw0h23K1UaE54Trb23gBb9dxl1DWilkJ6EuGTacYrow8DS1S7x+9aj5y/kCedD/JHAuKqYcoIGQYz1EK2epntgFkFS45q49Khk3Bhrg0AzpI03p4/uAl9a6zTkfDNKx3jz9YeMz8PTx/QHtKASNJgmK9fnynDEP2SqE5OblasfgBXDKVQEvSz+gN3EJzAs6yVTN/O6I6dtyl8Tq7aFgnV8Niy6ZBObAXheYkQq2f1QMbVFoCxyoIj5O/3sC9vB9T9kjmUIa7KqN6luMZr5+uKHKbw3zgCCWc7/vXj+9KK/h4fheE9wCN4y47/Rl17sPzR/52dUID+wbEpRkqGz0mFo+Kv7nnv5jzy/txRIgOfCD8Sz7qXefkanh6MywZqpTC+RBs9a6DSxA7jAjHQIAVmhNix9SsiL5Bvv5aepYLJA/PH6c3Q4jDF3N+ZN7J8fD3Ys7p3oYFHo4wS5RGGJbdmGoAW1CKrno3yEWQ+XyIQoelo2yUvFKGdfpByj5XQeTJLMOspKiDH0NeEa0st6fHROEx8AcgIkJ6iHpkKma969BuQz5zOAQNgSdt/97ApRgDr+sMSpB0ehOYbgrEqJaohQsIvkgbEenWypkgWxqgiVbHyeZv7gUWGDJQVob0oNFOrobS1HPcZbk9jchb4cobYYX2LLbW5qKCEpiV14/vFHtv48DViIYP6fv17tdzdG/jBSLeCnxsBRSWDDvR8CV4/WNjSA/khTUaAoHrYOVV8mEihFciYoHAAhEWak84MetSuQgWeiIdcBh8ET1EJzMVk1cl1yhMnvyzHA+5TzTaOJcsQIDxgSDf9+WjazwtXABD14/vnFEIsIi2QANsRKrpgb0otux1QRy0i04WmhMKSyQURrfFLAfKZoDOrMRkScQk8YdwWrFl0yQPA4Tpyd+OpKkH12SjEsxWTRlAthwPzke0tQcRKz1WxPyir0JnGCmkfo++CndXaE5oJsJHgQYvtmzj9SvQkwgQE8Nfpz8rNCcQNiuxw1eIoVA2bDT1UBVm/eH5gwKs0w+yV6KRReaBDNlgiTm6k2AoVxsxL9r3/fBC3Mp7PL0J4tjspO8HK9rsJFR2oTmh63P4CCaAv41JAJhvyCGaRL4f7FIAHRdhS1FyUOHOPZ8JASshILK/nu2QYm9gLyJ8GlYF14E61/eDfTyiJTquRVBaIoXVHdaMwkrnSV51UOWD5u9tHDxLG23449cvk9rnXiBOEIVW5kZ+xIUyUIKNNTYyhAsVJQi3Jlp74kL5LBLE80aDD78fRr9937ccLzq5EMkWJcOmKjgo7NiZg+av059BW0luZDlTCdZb693PZ799P1j/iE4sxeXh+HCc8DWNS/kY0Ys5j3j+jb1Fi8w/QFexCsxzVhZytZGyIkKFsPJ8HgS1B66LD5o/3w92vVhpTiHSJt2FdVlPnA8UcKFcz4AGjA5f41oElqWKhyceLfbwINz5nSUvjOOj4MbztyPGdEDtRSPY+ki5L+Uj4OOKNuXNoRUOnT8gqGgorJL1Bi6Ntk4/SDOBglNmQn7Eopk0/OOkooCDTMWU7ipcjY0twkdRFoI3xiDRZzw7LC3FF3Mep0U0euCSD7+EBPAH9xDoQBnxZz33gv1WLu/HJ1ffNqSSzKEMeVBuT+k8IryyMT4M+LjVAUat05+FdztY2Si2hqHUsRyv2Aos2vDJypFcbXR5P+YPDO6U8jtULsFH+B9SZLL1Aywkgz+M/kXDkktbA3tR7wZZzdHKiGFeSW0cBwXk5WpBPh+FEONtAHolATgIf1wKIWQKxoRPpkkjwryxRXT4rB5Edg4QtZVdSgx/EHW4B8xHHDMo7GdgjYFTFQEQkmXkXGIjrDixktObbyvO+P3EMTFhLEpF7/s+tjXayF/YU1k55Qd1MDH8cdSwA2QcMwhpB1wqoBCNc62SC8gND6JlLbDGnkNU9EhTjUM8sgaVDX3jONfUvDIeyRE75ELy+DNeZ9FGG/DK335TQzC84oguECb1ZvxrFfOUE89IeIS4RbeluJ17fqE5iamvs1VT9plNH3ghefxBFK0TJ6Cn3J5Kiw0p73FEV64WpJryWoSy47ga0JvycTjf99/GCzoQgHid6M3VRjLjBhHmONFBjkPiJB9+GInkDwgqT1HwkQ7p+vUG7rpNcxVRBEtR6j44yOuIkZfDxZHONXW99F1gtobXV7LV4KFjGR2MGWEGfEp0+sAFntK9pPKnSEFEZ5THZuNkrwCjsLswsKMyQBX4EGShqJMeA8IoClu/tg9kJAUxbUpcSM2Yngo8koRKvmTLP/T+4fmDG/lIP+PFnMM7juMznt4M5dIqf6CNp2Az3egalJxT6E0lbx5h5MbT57NLqL/eDXIOwvks8SPMWAxMNHwJzn+WlMg5QHgl2kGB9AJbcqM0JOFJUQRfe6XhCJ2rZEO9mPN1DxkBNeVHItU9VHb0Y02Uu2hd3jgHJFmFBOtfZaDxTOTGtBcJX737ub0VqsJirkxswXprONMEfu7147vsQ6cfpHtFyEtugSCvYrnxtHY7BGLHzp/Vgx33eW1yC0fCH3a1ip5+ziKXjzltzBuFNr9ofMsVwH5WjIMAIxkowaIIXVE2FC5AboWfG4rYi0OpBPd4HPAdg/4lQ40nh4goc8aP8JFldGZlRkk4GoIH7TKVYNNIZVsMx13iuTi2ElEAf9JDRw5zTLWLKM/RwHdU/MF+ihCB2HtZBmkht1Yai8iLDttnMnsUvmp0hqJkEXEWaQLOPT9mOgKEK7L2+ZM7gsKR6F/OxMPzRxhBHFE2eORirkREKWMlTQZW2BCSpbeSW3ILopWestK6/IhbOAKHgwOIwrHxh2RSiSCsPZl4DEkZM8aWqQQPxUmnGE9zhncekrgoZWW3UzjaMZc3KPmOSe2SwiPkDwhCMmGPb/kMhOMuI16ppXCDhICSYUsR6LjLrdDBbr6yBsvxwqsg4aZxBCbjUcJ3bPYff1VEUJm23sD94cS/jRfRz0NJjFYqzRdzHsdTZj1KBqu8xyMoH6f8w8RISx+LuRvTpDnr8BWkozr3gnfOcN2MZ64rwImWYRrofWXZet3lYDRTMZWf0BEwJ2/hmPnjfcLV2BidIQqw+SS+eFAyvreh7DuDnuC1chEBanYA8GWrRw7fMetfCV9MVwOzfnIVLAfL7FE8YrJyFU4SwzISp2XOgcxI4GkRheO2+Tg1qeAPcx+HHkgmGSDEo0/xI3w4U4mzIP85TgdIZBokHyhMhf5lUIYTHC7gZQpS5yJdL77OBXxKFiDc7fiqHzL4uG2+1Mk/3PC6BTosyik6FwvK8eFjJUqcBU9vhHFfd+ToHQ4JX1r0L+8ZWXdy7qFzlXWFbQ2+leaa5Xjxw4To0rpMRPb/+App0b+cOYlgOBEGBl/8EAnUZXhZ1nI8vB1Ysh5dTiF8qZN/oJB7VSkLG3MveNJ2ZTrCOnTCm76RYO1w8DcfUUid/MNY1LuOknOvJPmtA04eRy6WXNzjynLMIB9qS5vNJ3FMKX/SS0AaVTjJWaIWLmcqpnxSE2O68d1G4XrSqXaJYEr54/1TYm2lLpX3Y6G2OM8rKfylHL6U2n8KfDJZS+Ej/BGurqK7d4gwI5M5XI/sWxrKaZd/8DlimmsrgzVcGg7DGnEkVwu2bU0DYdH3mHb+8MJVGZRZBw02SFDyWXZY3sDmkPJtR9EzdNzfav4+5zcaQTzzpiwNb5WISqyR03/cVMW/O83f51jxCTeCwgIeXFLiLFgjiam4WRU28VW87/izdXxnav6+zSl2eiQu8BKKrW/594gwx8/pYm3a5vs21v990Px9GxO4I4jFwNVV1kiwH/oO8OHtr1ryfRtu39f8KQPiQxEjUz/sJax7HwSF3MqCtvnUUf79WfP3eyTE/4FgOAlvh+UNeLvl9lRLPjHAX0XN39dYRJR2SE2AIITNp+FbN7aav3Uj83Uc4nCrBTrAl60Gr6zR8H0NZaik+QsNSehA/C1apPEX3gU/VLE+oP2PGAyUjA1vMpfYoYwNN7Tk2zi6Wv5tHKJPjzj+M0Q6yLx5TH+fofn7PRKR/0eSQZzVjlxtpDwCF1lx2r/U/MUlIE6eS7ZqavjiDuh/52n+thguILhuCxjYfHLjhC2qTuupmr+tZ77YssMIYnv7retK/QWav60RwGblMhwItau93a2HUq//7jBk2P+03J7CHdEOx25jiKu0/Ntx9JD5fHI1lC+K3rGuFF+m+dt98rEorNXu7iOo9e9Pxk5f+/MR0PLv52Ooa9h9BDR/u4+dvvLnI6D5+/kY6hp2HwHN3+5jp6/8+Qho/n4+hrqG3UcgSfzNvSAVKvy3+93rK/c9Aonhb2AvCs1JsWWH/0qG3Xj69ibpfY/qv2vfcjz+/btW/1xLieHvbbzIVk1sCI4dq/gvdwlP244+A3txejPM346wYfCfo+Lf1ZQk/mT6J+GTB0+uhsWW/e8Gb98tDezFydUQGf+Zirnv7uzSflL5u2hY+Du/s+SOzZmKqWxmv8uoJOQay/E0f/9ort7GCynqOv3Z23jxNl70Bm6962AfevxbaE6UNVnHXeLM3sB9Gy+Ub3EDc8+nIcW3/b6NF8brTDl/7vm9gWu8zjr9GbJNlWt5vuMuWaeSl8rjluPxfDmUjrtEK8ZrcKfyK5Qdd/lizpmJmKmYbG5lheEaDuFIUuWfMiV8twzeOsl3r3X6s0JzctGwzu+s/O3o/C4oXDSs68d3ZfSxsQZPwJamEK4SHeN1hqrO6oHVdX5ngY/L+zGuLTQn7FvJsHFO/nakSOWz+mdnslWTuLNLjSfnohF0GK3kb0eyWpxWaE6UVzzgNs/vLHaAFR5sIan8kTCM7Is552Tkb0fYqO/FnJ9cDemd8CnJXG2UqZj525ECFmQJdlszXmf4eHoz5GnK2xlogxIFXMu+8cHh8A73lFsnV0OFv0JzcnozZHIhCydXQ7kB4UXDkgoBd4cuaf7+/O9N0b+cY7T0Nl5wPvK3I+5SCo0Mx5nuM6YqWzVLxpezQuAocnAa+ev0Z/K9NIonzum/aFjsW7FlI006Pn/l9pQ/A8hyNor9uAjr+Z1FiNH6L9v39GZ4ejPU/P1r/noDF3MAeignYBqW29PGk/Pw/FHvBnqNEuX87osVyR9hOr0ZnlwF8k/Juc/VRiXD/vU66ofnj8v7MXPxw/JvK/54F7laoNzrXQcmIN/jhVxrDO7D88f147tsuvHk4I+M/vlp+NM1JlX/yp/43PMpaSAz+BpLeB7SHu8NXIkgzTKFP5D08PyBV6BL+Qr4WOeLOZcV/kT+ldtT8IQHSjjXvYELKYheES/t/3KI/npB0b/1rtPpz4zXmfJScWXm0C25ZOf7Ph/dyFZNhqwlf7na6PJ+TLMPG55S0kipifofnj/w7U/kHxZ4IJvP7yyKcOyQzvdo0rr1fV/H//46dmxA4S9TMflHzYst6ikefN9/MefXj+9wY7FUUG5PC80JVfBK/rJVU04/3lGD/TdAGIUfuqfIp93sPylHz++sxtPnD8x4DX5mxZbNPnNjQs0f8fjrBYU/MkdbDW+9h7pEb17MObZ/hFeYrQbI0rWEa7KSv/BagvE6I3+X92PlbonOT+SfdOHhocOZwL+AD33W/Cnj/y8+KvzR1zu9GeI1qvWuI41Cx11KswxGW7k9vbwfy7lcyd9ZfaTckuTvomEp3xKdP8Uf9j2X/Mky+6zlnzIRf/Gjwh/VU6c/G9gLaauhE4gnQ2Cc31m9gUsrkGa+3JBe2n/5W5W/Tv9L/p3fWUpznf6MynFn/0O6ONS/nX6wyqL80bvS/P1F4JSqFf6kqFPOxEe+SQGbkMpzGLaIzx9UOZU+vWY4BxLolfwpsUbkraA2xp8ddymNPNkEOq9Ar/0POad/vazwRxt/XcN4G+VZfYS55+RZjrfR/wjLP+Wqi0YgUB136bhLNgRZK/mj04qvegPXcry38YLRorP6iPz5fvD2aylH6QPNvcCRKjQnPIK7VuTfizlHvIk3u25wDud4UuN/G/mj/kVEmrHcYsumGIsv/wAHQzCIMhZbNlCWBqXkj6vS4C9/Oyq2bGmAKvxZjsdVRDRRbk+vH99Lho03juRvR/LGZfwPpifqp4I+HM7W9eRo+Zt7vpxLrmXJZK2t+LMcjw4NeKJbjeWKsPxDzizpxAlYBuRvQMo/vNyGKVVcX0YBvnyhOeFcOu4SdaI2LNDlb0cbjRPWsPdCkvjjAm62akoxsG4QlZRpXI70faze4p1EuNx4neGdM8BlZZ0DewE5RDKyVbPQnBivM6Cp+L++7yM0LReLIcMQBsrVvulfNIpVODaBAjuvdOzh+SNT+UoLRwRU86eM0h/4OLAXJcPmX0wVM7AXCDhf3o+LreAxETBRbAVVFVs2MxV6AxcHS4Zdbk8jelzvOtC8heYEr1dYF39BJZ1+ED0uNCeF5qTcnqLnbKvYssPmmuMu2crl/bjQnJQMWzH+UPnc843XWcn4rL9kBHekhMcj7mXvXyVG/v1kpJAf+pMawtciKQHHewMXuj4s/3ghnBV+jFlw3OXK6FL48t3qD9fzj4+kgr+/PaZx+PvbfUho/Zq/PzBxmr+dB1Hzt/PQfV2I4Byehwonyn+dp0uhEdD8hYZk+wPrnj/avqbUXaH5S92UH9QNa/4OajpS1xnNX+qm/KBuWPN3UNORus5o/lI35Qd1w5q/g5qO1HVG85e6KT+oG9b8HdR0pK4zmr/UTflB3bDm76CmI3Wd0fylbsoP6oY1fwc1HanrjOYvdVN+UDes+Tuo6UhdZzR/qZvyg7rh/wOaHU7I/xM4qwAAAABJRU5ErkJggg==;" parent="1" vertex="1">
          <mxGeometry x="650" y="310" width="115" height="79.9" as="geometry" />
        </mxCell>
        <mxCell id="gHBn23wMbkpfhwxa4SyB-49" value="" style="shape=image;verticalLabelPosition=bottom;labelBackgroundColor=default;verticalAlign=top;aspect=fixed;imageAspect=0;image=data:image/png,iVBORw0KGgoAAAANSUhEUgAAAP0AAACUCAIAAADXrLg5AAATK0lEQVR4Ae2dsUsrzdfH9x+wsrCytPUv8Om0sRACAQkiIiI2VsINiMX9gdgEfoLct0inFi82WoiFjY1NKrEQBLEQBInwZLOJawyJu3Ffz343J3PXuIm6Ju6752F5yN27mZ35ns/MnDlzJlczzYoj/4kCcVLANCuacB8ni0tbSQHhXjiIowLCfRytLm0W7oWBOCog3MfR6tJm4V4YiKMCwn0crS5tFu6FgTgqINzH0erSZuFeGIijAsJ9HK0ubRbuhYE4KiDcx9Hq0mbhXhiIowLCfRytLm0W7oWBOCog3MfR6tJm4V4YiKMCwn0crS5tFu6FgTgqINzH0erSZuFeGIijAsJ9HK0ubRbuhYE4KiDcx9Hq0mbhXhiIowLCfRytLm0W7oWBOCog3MfR6tJm4V4YiKMCwn0crS5tFu6FgTgqINzH0erSZuFeGIijAsJ9HK0ubRbuhYE4KiDcx9Hq0mbhXhiIowLCfRytLm0W7oWBOCog3MfR6tJm4V4YiKMCwn0crS5tFu6FgTgqINzH0erSZuFeGIijAsJ9HK0ubRbuhYE4KiDcx9Hq0mbhXhiIowLCfRytLm2OEve397Z6GWZD7CcKfE6BKHG/+J9y4rd3Ta2W/ud/K5b9uVbLt+KuQJS411L6wKx3aUl95b8Pwn3c+f1s+6PE/dB8cXjBu7SU/uuPKdx/1u5x/17EuGf0hfu4k/u19keJ+8G54sCsPjhXHJwratMy3n/N8vH+dpS4X8w80LVJ18x6eWv/6Qf6OZbtVKoveb3x0+pmmI3be7tSfYk38F7r+8k9EDHMhno5jmPZjnqnUn0BQ5ZNf6VeP9CEuYv6RLqkpfTMXuXnVM8wG2MrJS2hb+w+/rQO2ReV+sl9Xm/sHFc3dh/5AitnV8/prMk301nz+o4Clnzn1Xhr2487x9UfaMJff0xtWh+aL2r//Ptzqre1/6RNFgZm9dFl4+S83hfUftRL+8n99Z09tUqDkDbtXgmyiuM4B6c1bbzg3ZzWtYR+dvXsOI6W1OnCw5OFnxnH/PXHHJjVhxeK2njh5+ysrW0/ojeOLhtHudqPQrAvlekz9zPrZVAyvECr1Yl0yeM+QejgGpj1uOdgDlHVXRzTMBs9drWF+75w/NGX/j/nPndRn1kvH5zWeraeE+4/imBfnu8z94nfZW26uQWb0sdWmuO964xid1ab9sb7gVmdt2y72a81zEY6a2oJfWSpeHBa6423Ldz3heOPvrSf3N/e27/+mGMrpYm0dy1mHhzHOcrVRpbI58E1tlK6vLEcx+E7E+nS6LKxtt0hNHF29Tw0Xxyap6j/8EIRi4SPCvTR54X7jyrWl+f7yT3imJXqi3ohjqne4Tim72aw62LZ7vq4uU7QUnrid7kHC03hvi8cf/SlPeL+7Op557iqXtd3tIdylKupNw9OKdRwfWerN3eOq3mdUo59NxGPu7yx1PvZwyc8XKm+bOxSEIPXx9pkIXfx7SE84f6jCPbl+R5xj/ixF4JMkkN/lKvd3tvk37eNY/7zLz/cimNO++OY6AytEqZ17Z9/4c8YZoNC6SmF+2k9nf1qKpthNrKHT1TtFEVUR5aKU6uljd1HdqK64R4dfjHzMLpsaCnKvBhbKaWzZu6i3v0ixLKdk/P64iYVgvSNsZXSq994cl5/OxN2H8f0dEuQVu9Nj5c3VmavMrVaQmBteIHqv7XvjThtOT45r48sFbWkt1RzHCevN7b2SUlknWgpimL/+mPCp21bSIg3e8R99vCJERyaLyKKfHtvfzGOCe4H58iJx7iuTRaYe1rUKuP9wKw+tVo6Oa9nD5/Wth8ze5Wd4+rZ1TP7UcGyGmYjs1eh3uj22+EFeikWD3Qzoc+sl6/vaMUSEL+vVF92jqu0QE/QGn1wjqrdKmSyMLZCNQym37JpCUTMNQsZmqcoMBU7rWuThZGl4lHur3V8N9xXqi8n53VQSPtuSRqbfJrAZNpkASJAAS9jKkmvTmfNt73OcRzaLU5Rk0eXjUr1BfEGFALzoSh6ZryAad/36nD/2AfuB+d6wX2l+kKdLdka74cXXDISyqSRIFMNL3SO9pxdPdMY3ywNpCLcxL0Ow//IUrMHvtm3ur23FzcftKSHO+rDJwrQddElsodP7421htkgiJW+xyWgF3EzN3YfuZCO3Od1d3ocL6Aa6EW+nd2T8zr2DfGMTwRv3Jkmsnn2A6yG2ZhaLfFGDfXY5niEPoMm8DgytUphvW/9r4fcT3uplAOz5B7Az5lZJ4eBhys1jombNPykWnFMTOg0Grn5mBjvOUmT7o974/3rGAM78VTAjr7vg5YMmtMdxzm7eqZ9ZddU9Ap30Er8Ls+s0zWRLqGqGLm5cN9+LUOPBwABFwKfATfpFW4izduB04vMunkQ4Ht4gRwt1IQLQZO1yQKDG8C9YTa82aPZQBgos1fhbuOJOflXrxhdNlD/xO8y+1qo1eiyoS6lfNyr3WZspcSFjK2Qkr1JbeoR9zvH1dfMkNdJHBf8DaDA90eXjZn1MuKYQ/PkMuIaXTbg8/GdsRWKY27sPmJzl0sYWykNzhXZQczrjcXMgzrMMJT8YWBWn0iXfOOTOtKgEIz0GNoXNx8OTmt53Uung7M7tvLXeEZDmjLe8yDNXs3MennnuHp7byMD7/LGyh4+qYOiNumf7i3boRlMgX5mvZw9fLq++6sQuI7kMHTi3rKdyxsLLgdYxDA/s172uUnXdza/F6uRjd3Hk/M66n97bx/lahu7j9h0h9M/tVpCVpXjUJah2jQ8hkj0yXkdSub1Ru6CXNCt/ae3HV61SCife8T99Z2du6irF9IHzq6e1ZvgL683Ts7/ehhCqE/mLurgG3rxX/Gqjo0awD3ytAK2tLxgqOveDM4VR5aKW/ttPBAsMRO/WzkXPu5PzusDszStwTfY2H28vW9zNPjyxlrcpI7Kzi5iU7D02dXzyBL58fAT0lmzbSHXd/bG7uPMejnYz8nrjYPTGqWONl0OLUXz8NY+dSSVLct2ePhALknbFQi0YvQHZikjFQsVH/cY1HxdS31jDz73iPu83ri+s7u5Lm+sto+1va/evLyx0ItOzusHp7XMXmVmvczeNgZ49iYRLEr89g9sPsXzeoNpHpjVXxfEAStOuEPczXi89yIkLl5aijKBA8YzmgObc5SWaCUzV6ovFBNzeyByk9Qu4at2pfqCMDHf9/k5lzfWrz8mOiGU0ZK0Ls9dtIkF5S7qvIjvuP13lKvBcUUUgWMM6ng/OEdeLtetLx96xP3WPk3i/GsI3/RhIk2u0eiygRERAyfsinl8dNmAV7q2/XhwWvMNbG8NcHb1zKgtZh4CUMN3s4dP7OUz99d3Nm5isGQ37O3rcOcoVxtdNjDkjywVcTOvNybS5MUhGhbgmLUtFtwPL9CUtZh5QGdmP1ub1uF0tf1uOmtiksEQ3vYZ9SZvm2gpHZEZdbwfmNWxK69+pfefe8Q96e6GIDj4EPoHjOUcFGMPHsxpSRqtMZPAK+2otWXTThm4H5j1TBj8rcsbi+cH5h7La3TFzF4lYLBH4eqyRJv0kpkvbywEgrWUvrbdCtQE14f/lrnnHsj6IGwQMI9xiwbnihu7dOwh+KJ3udsm2rQ3uancaymdV9tcvd5/6BH3FPlWtpBY9N58gGvecXT3qW/ZdNIF7u/IUrEba1WqLy0vpbmupeMEbroEdut8b2n7x3S2tQmA+YFjUxibAzBtW6DKPTTHfEK90XW92n4Lu0sT6daS3ec3tjUfP6OlvEBZpfrCfo6W0tUw0Xvv/e77PeJe3bdqK9a33tQS+ieiBN72ihtmHVspqYG5AKv49q28SSPhLVW76Tw4WYZ1gpbQ8V7i/oOdR62kyr23P9rcASD0E+TnqM/zZ/avuLd0tBTcJ/SoxU1yDpn7oXlytLjwPn7oEfe5C9ry6CjZdzwAM3zUIUZ6HHCBS90N95btrPzXi5xq4wXsBGO8R4y/y/Vca7yfLKjjPWD6xAFL5h5qIOVpMfPQCuYk2uzOYryfWqV1BUyDVHDsvHb+/2QBi/j4cm+YjX5xryUpKtLRq3479rB/j82UbjbPkXGENYY2raNM1b8PjgjheZ+zhJrTCrvpNH+iOdyBsWOIF6G2rQCUkjzDali2wy7K0HwR555fM8A7Xhu7FDmAS8P+fezGe8dxRpcNHja+Y1xvWyaiaR1DKGxm3weepjQ3p62jY7pzXMXCcWCW0p5R2vWdjcgSbnZcZpyc17FziaJQSF5vIMiDbaOPtoi5952vvbyx2H3HNu3b6mFLARux77lDPt18f4w197RG7K2rg/j050yl0sbUBnsp13etNDst0Yr/GCZtG/NoHTzkI9jvOfduAgVq8uoysa/ScQbDD7Goa9/3uHccJ3dBmZJ4I3qmbzsMWQzYkBpZKgYHc3FGQrhvKXB7b2vjlATWs4tCxe66qlWJD35iV4fTTo5y7Y/qIhMTcGPgZOyQPom/QrrRznG17dSR1xsbu49AkJyrpK4imLugZElvv9YNy7ZF0DBpIzadNXeOq+zdBXCPxBDe69BSJJpavUr1hUOZwVPW5Y21tU+JBmq11TyF9/wcy3bwC+/Xd3bbRn3Qbp0f79G6FhXhKbUH6A/M0mndbhajwSLl9QaS5zgPLLNXObt6VvNzDk5r/AzxOu1fI3I+GXtBa9uPuQsvv8UwaTP7KFdb3HzA2oDWr+6yRK1bpfrC4WC8Bdn2nJ9zfWefnNexJqbEyWZK9usaPZh77xhDM/NncK7o2yIgf8+Na0GEqdXSwWnt8sYyTIrVGGbj8sY6OKXToZQa7ebuqzXv6OcgORzbAp+IvKnv6vJzT7mHu8xxru+jH8Hpr3g4qnxePqa7rEQQECc80lkznTVxcgKDNIbztj9gCC8I9IBa2jrdfEAhM+tlxGrQMd5bTtCW1ia5TNAQc8hiplUIkdfcJ+mYl6a20XHcpLdmJtLgnD8TCVt4eC/2HBO/y1jmQgQ+TkAzhntOmssP5h4/H3ZwWssePmUPn5Bmwt/9pg895d6yHToD9c1ePlHl/kwfz/Jf1M6yyQlGChcMD74pycf9SX6mEDk8772X0s7c0CF8FSw/fIVQoDBJO7LvTffXd5TA40viR7oR+ypUvST9bi4X0nG8R9yW1mDuLgF2+nyzJaHvnh3hWYv+qIgA5d/u8QVzj7nu4LR2cEozXl6n8z1fNFnHr/eUe8ehxFdeRX3TeK8lO+R+dRTl7QOWTad+iZ4UccneiDc8uzc7Zrnx4Triw902QodRCxlbIRdCda/fViav01lHHNvjsR/rTnSbkaUinzPG17v8nUD+5RXqOW8i+uj/OH+juacpuP703uahs8sbi9c2eLtl029hYJZ4u2+FRRQq/JqkubbdPln1rQ5fudNr7r0TDE1XMnT0tXFvr+Qrorz3XcNsnF09Z/YqyLbHKDuyVPz1xzzKUUa+z95ty0GyJGfbo5DhBUoXOzilM8fdFIKF4M5x1cu2d387cXihiLT+t+QZJoVB4Xm/Nx2htkgI1RK0uvUtT/EAssTTWROHg5GXP7VaworlvR57cFqjvjFZaBsTw9kX+DkfDdG2FbnjzT5wz1v3oYfztfFCcJSwoxzdPIAoYV6nXyDE6rbLE7pq4fxz4VzOdxfS/e+A48cV3yMYrcByVlUguDtZNh0kDxga+EdlVJW+73MfuEdjaPfe/aW0UIZ8TLJdZr98n5pSclQU6Bv32DHBXMlu4kf7gLc0TPpDzlFRX+rZLwX6yT3WeWvbj9iB53BEMP18CB1uEk4J9Us+eW9EFegz91Dt9t7G7xDhqNTbIyk470wLIzc4Pbps8EIqorpLtfurwI/gHhIgTLZzXE1nTfpHrDL0j1jhRCJ+JwO7PNnDp9xFPXjV1V9N5e0/X4EfxL0qFsdMkLZxe09pG90E+NRC5LMo8J4CP5T796or90WBUBQQ7kORUQqJmALCfcQMJtUNRQHhPhQZpZCIKSDcR8xgUt1QFBDuQ5FRComYAsJ9xAwm1Q1FAeE+FBmlkIgpINxHzGBS3VAUEO5DkVEKiZgCwn3EDCbVDUUB4T4UGaWQiCkg3EfMYFLdUBQQ7kORUQqJmALCfcQMJtUNRQHhPhQZpZCIKSDcR8xgUt1QFBDuQ5FRComYAsJ9xAwm1Q1FAeE+FBmlkIgpINxHzGBS3VAUEO5DkVEKiZgCwn3EDCbVDUUB4T4UGaWQiCkg3EfMYFLdUBQQ7kORUQqJmALCfcQMJtUNRQHhPhQZpZCIKSDcR8xgUt1QFBDuQ5FRComYAsJ9xAwm1Q1FAeE+FBmlkIgpINxHzGBS3VAUEO5DkVEKiZgCwn3EDCbVDUUB4T4UGaWQiCkg3EfMYFLdUBQQ7kORUQqJmALCfcQMJtUNRQHhPhQZpZCIKSDcR8xgUt1QFBDuQ5FRComYAsJ9xAwm1Q1FAeE+FBmlkIgpINxHzGBS3VAUEO5DkVEKiZgCwn3EDCbVDUUB4T4UGaWQiCkg3EfMYFLdUBQQ7kORUQqJmALCfcQMJtUNRQHhPhQZpZCIKWCalf8DTBF7vReUbQgAAAAASUVORK5CYII=;" parent="1" vertex="1">
          <mxGeometry x="498" y="558.45" width="173.59" height="101.55" as="geometry" />
        </mxCell>
      </root>
    </mxGraphModel>
  </diagram>
</mxfile>
